<?xml version="1.0" encoding="UTF-8" standalone="no"?>
<svg
   xmlns:dc="http://purl.org/dc/elements/1.1/"
   xmlns:cc="http://creativecommons.org/ns#"
   xmlns:rdf="http://www.w3.org/1999/02/22-rdf-syntax-ns#"
   xmlns:svg="http://www.w3.org/2000/svg"
   xmlns="http://www.w3.org/2000/svg"
   xmlns:sodipodi="http://sodipodi.sourceforge.net/DTD/sodipodi-0.dtd"
   xmlns:inkscape="http://www.inkscape.org/namespaces/inkscape"
   width="21.5mm"
   height="21.5mm"
   viewBox="0 0 21.5 21.5"
   version="1.1"
   id="svg858"
   inkscape:version="1.0.1 (3bc2e813f5, 2020-09-07)"
   sodipodi:docname="10_транспорт_легенда.svg">
  <defs
     id="defs852" />
  <sodipodi:namedview
     id="base"
     pagecolor="#ffffff"
     bordercolor="#666666"
     borderopacity="1.0"
     inkscape:pageopacity="0.0"
     inkscape:pageshadow="2"
     inkscape:zoom="5.6"
     inkscape:cx="95.753053"
     inkscape:cy="38.919274"
     inkscape:document-units="mm"
     inkscape:current-layer="layer1"
     inkscape:document-rotation="0"
     showgrid="false"
     inkscape:window-width="1710"
     inkscape:window-height="1030"
     inkscape:window-x="192"
     inkscape:window-y="0"
     inkscape:window-maximized="0"
     inkscape:snap-center="true" />
  <metadata
     id="metadata855">
    <rdf:RDF>
      <cc:Work
         rdf:about="">
        <dc:format>image/svg+xml</dc:format>
        <dc:type
           rdf:resource="http://purl.org/dc/dcmitype/StillImage" />
        <dc:title></dc:title>
      </cc:Work>
    </rdf:RDF>
  </metadata>
  <g
     inkscape:label="Слой 1"
     inkscape:groupmode="layer"
     id="layer1"
     transform="translate(-70.366302,-88.807899)">
    <circle
       style="opacity:0.999;fill:#ffffff;fill-opacity:1;stroke:#000000;stroke-width:1.5;stroke-linecap:round;stroke-miterlimit:4;stroke-dasharray:none;stroke-opacity:1"
       id="path1421"
       cx="81.116302"
       cy="99.557899"
       r="10" />
    <g
       id="g848"
       style="overflow:hidden;fill:currentColor"
       transform="matrix(0.01984375,0,0,0.01984375,75.784187,92.059613)">
      <path
         style="opacity:0.999;fill:#000000;fill-opacity:1;stroke:#000000;stroke-width:11.6325;stroke-linecap:round;stroke-miterlimit:4;stroke-dasharray:none"
         d="m 43.613531,749.22104 c -10.551051,-1.47271 -13.185005,-2.93696 -13.185005,-7.32955 0,-3.7855 31.913223,-46.68066 71.273104,-95.79922 41.20731,-51.42397 65.1959,-76.47315 73.23518,-76.47315 3.33938,0 3.56652,0.73866 2.63827,8.5762 -0.55862,4.71699 -3.8666,15.95807 -7.35095,24.98024 -3.48434,9.02217 -6.10413,18.01079 -5.82159,19.97487 1.02182,7.10688 8.64252,8.55604 52.37468,9.96012 47.0166,1.50965 158.95395,1.99332 160.25477,0.6925 0.47397,-0.47398 -4.5611,-11.74738 -11.18954,-25.05149 -13.43307,-26.96171 -16.40758,-37.37457 -10.67647,-37.37457 13.81287,0 71.18401,62.02949 145.46624,157.27764 l 13.66037,17.51588 -5.04061,1.52657 c -8.56405,2.59364 -62.16015,2.43436 -69.61912,-0.20775 -10.26959,-3.63669 -17.5859,-14.11295 -31.93476,-45.72824 l -13.29796,-29.29958 h -127.5998 -127.5998 l -10.88006,27.24917 c -19.26452,48.24832 -19.91824,48.85249 -54.091314,50.00203 -12.004064,0.40319 -25.781077,0.18159 -30.615635,-0.49244 z"
         id="path1008" />
      <path
         style="opacity:0.999;fill:#000000;fill-opacity:1;stroke:#000000;stroke-width:11.6325;stroke-linecap:round;stroke-miterlimit:4;stroke-dasharray:none"
         d="M 33.484442,526.0884 5.8163852,498.37987 5.823464,332.26812 C 5.8319279,137.60268 7.1222821,111.13402 18.326281,75.706299 30.634275,36.788846 54.569769,19.210327 106.01543,11.306158 144.88887,5.3335949 347.9006,3.7593166 406.64196,8.9750561 c 60.35626,5.3590099 89.7054,19.3614689 106.14191,50.6402099 11.93989,22.721622 16.77014,50.859964 18.43983,107.420254 1.15108,38.98071 -0.57554,247.35391 -2.54347,307.09277 l -1.11107,33.72295 -18.26809,15.46132 c -19.77051,16.73306 -26.70703,20.9696 -40.24998,24.5826 -17.01467,4.53909 -70.20281,5.85099 -238.23047,5.87638 l -169.668275,0.0308 z M 136.94608,470.66457 c 22.04543,-11.19015 35.32477,-40.53159 28.83483,-63.71164 -2.88556,-10.30591 -15.22341,-24.14571 -27.04588,-30.33833 -12.27291,-6.42854 -33.23389,-6.76309 -44.651336,-0.71251 -17.322756,9.17991 -28.827299,26.88739 -29.939912,46.08312 -0.849464,14.66018 1.669074,23.81715 9.300553,33.81189 15.145081,19.83483 41.540945,26.01484 63.501745,14.86762 z m 300.8215,1.97824 c 13.92629,-5.21051 28.65941,-19.92286 32.98121,-32.93458 10.50842,-31.63777 -16.5033,-68.74395 -50.04282,-68.74395 -18.78623,0 -37.99796,12.68102 -45.86489,30.27385 -5.53768,12.38355 -5.70865,31.95108 -0.38319,43.77755 11.86357,26.34431 37.19406,37.39812 63.30938,27.62713 z m -35.27614,-165.025 c 50.84934,-2.94127 60.39827,-5.27114 64.59511,-15.76002 5.70603,-14.26068 7.23861,-30.26723 7.23861,-75.59814 0,-59.73855 -3.76596,-80.19971 -15.52442,-84.34592 -21.31093,-7.51468 -156.11593,-12.29261 -258.28506,-9.15451 -69.18684,2.12504 -97.56478,4.07435 -115.588962,7.94002 -8.489099,1.82081 -10.043988,2.83924 -12.741959,8.34629 -10.947005,22.34568 -13.440305,134.10651 -3.448178,154.56644 3.977862,8.145 15.616749,12.03822 41.603729,13.91658 29.11569,2.10458 256.11293,2.17383 292.15113,0.0923 z M 332.36618,90.290148 362.69174,89.155991 V 59.566945 l -0.72481,-38.814656 -89.19064,0.107722 c 0,0 -85.26218,1.224952 -90.4673,1.375762 l -11.61457,0.337016 0.74174,27.838565 0.16158,42.321927 94.40392,-1.56997 z"
         id="path1010"
         sodipodi:nodetypes="ccssssssscsscccssssssssssssssscssssssssccccccccccccc" />
      <path
         style="opacity:0.999;fill:#ffffff;stroke:none;stroke-width:1.65894;stroke-linecap:round"
         d="m 138.95904,301.60869 c -44.018841,-1.09984 -56.130688,-2.78885 -62.043707,-8.65205 -4.281823,-4.24574 -6.603856,-18.70551 -7.641261,-47.5837 -1.476696,-41.10668 3.757002,-98.18439 9.654532,-105.29048 1.426286,-1.71857 8.668964,-3.40206 24.916136,-5.79151 11.43257,-1.68137 56.46948,-3.85401 108.26909,-5.22304 103.85766,-2.7449 237.60083,2.81867 246.56317,10.25675 6.6863,5.54913 10.33203,44.26501 8.95289,95.07506 -0.90595,33.37642 -3.07562,49.74951 -7.48409,56.47769 -4.47039,6.82268 -22.98841,9.04888 -90.01763,10.82176 -57.07907,1.50969 -168.87703,1.46595 -231.16913,-0.0904 z"
         id="path832" />
      <path
         style="opacity:0.999;fill:#ffffff;stroke:none;stroke-width:1.65894;stroke-linecap:round"
         d="m 178.03611,57.84909 c -0.48779,-15.906092 -0.75598,-29.033706 -0.59597,-29.172473 0.16002,-0.138767 40.1916,-0.734185 88.95908,-1.323152 l 88.66814,-1.070849 1.05561,27.20915 c 0.58058,14.965032 0.68657,27.806271 0.23552,28.536086 -0.4572,0.739769 -29.80106,1.72441 -66.31422,2.225193 -36.02177,0.494042 -75.76024,1.262299 -88.3077,1.707236 l -22.81357,0.80898 z"
         id="path834" />
      <path
         style="opacity:0.999;fill:#ffffff;stroke:none;stroke-width:1.65894;stroke-linecap:round"
         d="m 99.922246,467.24321 c -10.117806,-3.49627 -19.34731,-11.31912 -24.650165,-20.89326 -3.879191,-7.00375 -4.342447,-9.18672 -4.304699,-20.28468 0.05063,-14.88449 4.174401,-25.43159 13.647113,-34.90431 9.827875,-9.82787 16.508585,-12.53397 30.935005,-12.53058 10.58711,0.002 13.52409,0.57406 19.7518,3.84394 14.82471,7.78376 25.50856,23.0378 25.57204,36.51089 0.0729,15.46894 -9.57724,34.37631 -21.90601,42.92016 -6.50781,4.50991 -18.23428,8.07953 -26.29709,8.00501 -2.84227,-0.0263 -8.57887,-1.2265 -12.747994,-2.66717 z"
         id="path836" />
      <path
         style="opacity:0.999;fill:#ffffff;stroke:none;stroke-width:1.65894;stroke-linecap:round"
         d="m 406.57261,467.77291 c -8.77021,-2.81616 -18.65429,-11.64701 -23.97219,-21.41773 -5.48716,-10.08172 -6.85825,-27.58001 -3.05765,-39.02257 5.41793,-16.31185 23.75609,-29.55057 40.93012,-29.54835 16.7699,0.002 32.69226,10.71925 41.29897,27.79767 3.33173,6.61118 4.06463,10.00499 4.10748,19.02024 0.0632,13.30123 -2.63444,19.61428 -12.699,29.71815 -12.75518,12.80501 -31.6449,18.25723 -46.60773,13.45259 z"
         id="path838" />
    </g>
  </g>
</svg>
