<?xml version="1.0" encoding="UTF-8" standalone="no"?>
<svg
   xmlns:dc="http://purl.org/dc/elements/1.1/"
   xmlns:cc="http://creativecommons.org/ns#"
   xmlns:rdf="http://www.w3.org/1999/02/22-rdf-syntax-ns#"
   xmlns:svg="http://www.w3.org/2000/svg"
   xmlns="http://www.w3.org/2000/svg"
   xmlns:sodipodi="http://sodipodi.sourceforge.net/DTD/sodipodi-0.dtd"
   xmlns:inkscape="http://www.inkscape.org/namespaces/inkscape"
   width="21.5mm"
   height="21.5mm"
   viewBox="0 0 21.5 21.5"
   version="1.1"
   id="svg858"
   inkscape:version="1.0.1 (3bc2e813f5, 2020-09-07)"
   sodipodi:docname="12_спорт_легенда.svg">
  <defs
     id="defs852" />
  <sodipodi:namedview
     id="base"
     pagecolor="#ffffff"
     bordercolor="#666666"
     borderopacity="1.0"
     inkscape:pageopacity="0.0"
     inkscape:pageshadow="2"
     inkscape:zoom="3.959798"
     inkscape:cx="32.473965"
     inkscape:cy="45.205645"
     inkscape:document-units="mm"
     inkscape:current-layer="layer1"
     inkscape:document-rotation="0"
     showgrid="false"
     inkscape:window-width="1710"
     inkscape:window-height="1030"
     inkscape:window-x="192"
     inkscape:window-y="0"
     inkscape:window-maximized="0"
     inkscape:snap-center="true" />
  <metadata
     id="metadata855">
    <rdf:RDF>
      <cc:Work
         rdf:about="">
        <dc:format>image/svg+xml</dc:format>
        <dc:type
           rdf:resource="http://purl.org/dc/dcmitype/StillImage" />
        <dc:title></dc:title>
      </cc:Work>
    </rdf:RDF>
  </metadata>
  <g
     inkscape:label="Слой 1"
     inkscape:groupmode="layer"
     id="layer1"
     transform="translate(-70.366302,-88.807899)">
    <circle
       style="opacity:0.999;fill:#ffffff;fill-opacity:1;stroke:#000000;stroke-width:1.5;stroke-linecap:round;stroke-miterlimit:4;stroke-dasharray:none;stroke-opacity:1"
       id="path1421"
       cx="81.116302"
       cy="99.557899"
       r="10" />
    <g
       id="g967"
       transform="matrix(0.02539063,0,0,0.02539063,74.117792,92.891707)">
      <path
         d="m 456.65209,81.526363 c -48.352,-48.353 -112.639,-74.981 -181.02,-74.981 -68.381,0 -132.667,26.628 -181.018001,74.981 -48.352,48.350997 -74.981,112.637997 -74.981,181.017997 0,68.38 26.629,132.667 74.981,181.02 48.351001,48.352 112.639001,74.981 181.020001,74.981 68.381,0 132.667,-26.629 181.02,-74.981 48.353,-48.352 74.98,-112.639 74.98,-181.02 0,-68.381 -26.631,-132.667 -74.982,-181.017997 z m -1.838,24.056997 -32.511,100.06 -52.339,17.618 -85.495,-62.117 v -55.799 l 85.092,-61.822997 c 32.883,14.158 61.963,35.507 85.253,62.060997 z m -96.743,130.883 -31.489,96.912 h -101.898 l -31.489,-96.912 82.438,-59.895 z m -82.439,-212.247997 c 25.88,0 50.804,4.163 74.155,11.827 l -74.155,53.877 -74.155,-53.878 c 23.351,-7.664 48.275,-11.826 74.155,-11.826 z m -93.927,19.306 85.092,61.822997 v 55.799 l -85.494,62.116 -52.34,-17.618 -32.511001,-100.061 C 119.74209,79.029363 148.82109,57.680363 181.70509,43.524363 Z M 37.306089,262.54436 c 0,-52.483 17.066,-101.049 45.923,-140.467 l 28.316001,87.147 -74.229001,53.931 c -0.003,-0.203 -0.01,-0.406 -0.01,-0.611 z m 1.002,21.736 85.128001,-61.85 52.339,17.618 32.68,100.58 -32.329,43.862 H 70.945089 c -17.836,-29.827 -29.335,-63.851 -32.637,-100.21 z m 44.3,117.881 h 91.562001 l 28.339,87.218 c -48.642,-15.717 -90.492,-46.671 -119.901001,-87.218 z m 193.024001,98.71 c -18.111,0 -35.754,-2.041 -52.72,-5.888 l -32.515,-100.071 32.329,-43.862 h 105.811 l 32.33,43.862 -32.515,100.072 c -16.965,3.846 -34.608,5.887 -52.72,5.887 z m 73.123,-11.491 28.339,-87.218 h 91.562 c -29.408,40.546 -71.257,71.5 -119.901,87.218 z m 131.566,-104.892 h -105.182 l -32.329,-43.862 32.68,-100.58 52.339,-17.618 85.128,61.85 c -3.302,36.361 -14.8,70.385 -32.636,100.21 z m -40.6,-175.264 28.316,-87.147 c 28.857,39.418 45.923,87.984 45.923,140.467 0,0.204 -0.007,0.408 -0.008,0.612 z"
         id="path2" />
      <path
         style="opacity:0.999;fill:#000000;fill-opacity:1;stroke:#000000;stroke-width:3.53351;stroke-linecap:round;stroke-miterlimit:4;stroke-dasharray:none"
         d="m 191.02199,484.78262 c -22.48153,-8.59031 -44.97482,-21.46054 -64.04127,-36.64318 -10.35783,-8.24795 -28.826139,-26.70333 -36.775215,-36.74948 l -6.287902,-7.94672 44.614637,-0.24291 c 24.53805,-0.13359 44.91901,0.0768 45.29103,0.46746 0.73775,0.77478 28.11063,84.57361 27.72131,84.86551 -0.13123,0.0984 -4.86639,-1.58942 -10.52259,-3.75068 z"
         id="path842" />
      <path
         style="opacity:0.999;fill:#000000;fill-opacity:1;stroke:#000000;stroke-width:3.53351;stroke-linecap:round;stroke-miterlimit:4;stroke-dasharray:none"
         d="m 350.02068,486.86322 c 5.01292,-16.20041 26.92017,-82.66895 27.42023,-83.19543 0.3711,-0.3907 20.74739,-0.60105 45.28065,-0.46746 l 44.60592,0.24291 -5.20592,6.54436 c -21.81601,27.42486 -48.98911,49.54972 -79.74917,64.9333 -10.94339,5.47296 -14.7557,7.13257 -27.09659,11.79589 l -5.89963,2.22932 z"
         id="path844" />
      <path
         style="opacity:0.999;fill:#000000;fill-opacity:1;stroke:#000000;stroke-width:3.53351;stroke-linecap:round;stroke-miterlimit:4;stroke-dasharray:none"
         d="m 476.63669,235.52206 c -19.7967,-14.40689 -35.94973,-26.6928 -35.89561,-27.30203 0.0958,-1.07832 25.00473,-78.3726 26.68047,-82.79143 0.82562,-2.17711 0.89167,-2.14592 3.7177,1.75528 12.77761,17.63898 25.59306,44.50601 32.99712,69.17701 5.31072,17.69579 9.20804,42.99779 8.76427,56.89907 l -0.26995,8.45644 z"
         id="path846" />
      <path
         style="opacity:0.999;fill:#000000;fill-opacity:1;stroke:#000000;stroke-width:3.53351;stroke-linecap:round;stroke-miterlimit:4;stroke-dasharray:none"
         d="M 239.37781,63.215076 C 220.20973,49.208681 204.09377,37.31593 203.56458,36.786739 c -0.65961,-0.659611 2.50878,-1.879596 10.07598,-3.879752 41.46834,-10.960857 82.26664,-10.9545 123.99781,0.01932 10.52326,2.767247 10.97261,2.983854 9.34909,4.506783 -3.71727,3.486965 -70.60313,51.407946 -71.645,51.33071 C 274.73,88.718423 258.54591,77.221468 239.37781,63.215079 Z"
         id="path848" />
      <path
         style="opacity:0.999;fill:#000000;fill-opacity:1;stroke:#000000;stroke-width:3.53351;stroke-linecap:round;stroke-miterlimit:4;stroke-dasharray:none"
         d="m 38.164365,253.05847 c 0,-20.74579 5.271634,-47.70195 14.19614,-72.59103 5.733141,-15.98885 18.491142,-40.39942 28.035446,-53.64172 2.263634,-3.14069 2.700365,-3.3939 3.274263,-1.89833 3.701031,9.64473 27.204566,84.15909 26.692866,84.62563 -0.57451,0.52382 -54.209096,39.49632 -67.757898,49.23494 l -4.440817,3.19196 z"
         id="path850" />
      <path
         style="opacity:0.999;fill:#000000;fill-opacity:1;stroke:#000000;stroke-width:3.53351;stroke-linecap:round;stroke-miterlimit:4;stroke-dasharray:none"
         d="m 224.84493,332.16445 c -0.23183,-0.39006 -7.24598,-21.74465 -15.587,-47.45466 -8.34103,-25.70999 -15.32573,-47.01314 -15.52156,-47.34033 -0.37799,-0.63152 79.61585,-59.04012 81.52048,-59.52329 0.61573,-0.1562 19.41027,13.00434 41.76567,29.24565 l 40.64618,29.52964 -10.71626,32.92581 c -5.89393,18.10919 -12.91262,39.65714 -15.59706,47.88434 l -4.8808,14.95854 -50.60407,0.24176 c -27.83224,0.13296 -50.79376,-0.0774 -51.02558,-0.46746 z"
         id="path852" />
      <path
         style="opacity:0.999;fill:#ffffff;fill-opacity:1;stroke:#000000;stroke-width:5.2168;stroke-linecap:round;stroke-miterlimit:4;stroke-dasharray:none;stroke-opacity:1"
         d="M 69.377602,545.28531 C 54.416326,517.13817 44.629807,492.24454 37.684692,464.66919 33.18112,446.7879 28.687962,420.89315 28.79135,413.4155 c 0.04619,-3.34041 6.394688,-8.35284 57.626651,-45.4988 31.666109,-22.95965 59.748689,-43.2891 62.405719,-45.17656 l 4.83098,-3.43175 37.95767,12.88088 37.95768,12.88088 8.5198,25.39429 c 4.68589,13.96686 15.63189,47.26596 24.32445,73.99801 l 15.80466,48.60371 -23.69871,32.14261 -23.69872,32.14261 -77.32571,0.35645 -77.325718,0.35645 z"
         id="path935"
         transform="matrix(0.67733333,0,0,0.67733333,19.633089,6.545363)" />
      <path
         style="opacity:0.999;fill:#ffffff;fill-opacity:1;stroke:#000000;stroke-width:5.2168;stroke-linecap:round;stroke-miterlimit:4;stroke-dasharray:none"
         d="m 350.34447,728.33948 c -9.38094,-0.8509 -35.71733,-4.66762 -43.11105,-6.24774 l -6.53365,-1.39631 -18.04945,-55.44672 c -9.9272,-30.4957 -20.73283,-63.59337 -24.01252,-73.55037 l -5.96308,-18.10365 23.50138,-31.93147 23.50138,-31.93147 h 78.28016 78.28016 l 23.31376,31.75035 c 12.82256,17.46268 23.15585,32.52498 22.96287,33.47176 -0.19296,0.94679 -10.85031,34.01996 -23.68299,73.49594 l -23.33215,71.77451 -6.05275,1.5482 c -15.04394,3.848 -39.07165,6.31913 -65.28524,6.71426 -15.18307,0.22885 -30.40064,0.16258 -33.81683,-0.14729 z"
         id="path937"
         transform="matrix(0.67733333,0,0,0.67733333,19.633089,6.545363)" />
      <path
         style="opacity:0.999;fill:#ffffff;fill-opacity:1;stroke:#000000;stroke-width:5.2168;stroke-linecap:round;stroke-miterlimit:4;stroke-dasharray:none"
         d="m 512.19074,539.76642 c -7.40645,-10.05132 -18.19247,-24.65939 -23.96893,-32.4624 l -10.50265,-14.18729 23.83367,-73.2323 c 13.10852,-40.27777 24.25154,-73.65017 24.76227,-74.16089 1.97185,-1.97186 76.01371,-26.15747 77.46339,-25.30325 0.8432,0.49686 28.93398,20.77939 62.42394,45.0723 56.77068,41.18025 60.89312,44.44912 60.92426,48.30977 0.0576,7.12553 -5.21616,36.72221 -9.48224,53.21615 -6.15004,23.7778 -13.25884,42.3205 -26.03241,67.90334 l -11.5437,23.11967 h -77.20566 -77.20565 z"
         id="path939"
         transform="matrix(0.67733333,0,0,0.67733333,19.633089,6.545363)" />
      <path
         style="opacity:0.999;fill:#ffffff;fill-opacity:1;stroke:#000000;stroke-width:5.2168;stroke-linecap:round;stroke-miterlimit:4;stroke-dasharray:none"
         d="m 454.21046,273.55894 -62.45762,-45.55698 0.006,-40.98686 0.006,-40.98688 61.66334,-44.85906 c 33.91484,-24.672493 62.15827,-45.061058 62.76318,-45.307927 1.84948,-0.754798 26.54281,11.493031 42.23476,20.948331 26.44871,15.936875 59.54319,42.627626 75.76521,61.104756 l 7.61957,8.6788 -23.9234,73.38161 -23.92339,73.3816 -37.89029,12.94846 c -20.83965,7.12165 -38.23117,12.91755 -38.64781,12.87979 -0.41664,-0.0378 -28.86346,-20.56931 -63.21516,-45.62564 z"
         id="path941"
         transform="matrix(0.67733333,0,0,0.67733333,19.633089,6.545363)" />
      <path
         style="opacity:0.999;fill:#ffffff;fill-opacity:1;stroke:#000000;stroke-width:5.2168;stroke-linecap:round;stroke-miterlimit:4;stroke-dasharray:none"
         d="m 199.20391,306.15873 -37.26754,-12.7307 -23.79334,-73.00976 c -13.08634,-40.15537 -23.80076,-73.41844 -23.80981,-73.91794 -0.0331,-1.82666 27.24634,-28.56369 39.32148,-38.53961 23.18223,-19.152059 55.66326,-39.747959 76.95824,-48.798445 l 8.81489,-3.746379 62.37945,45.295074 62.37945,45.29508 -0.36481,41.29999 -0.3648,41.29999 -62.11256,45.24672 c -34.16191,24.8857 -62.73368,45.19947 -63.49284,45.14171 -0.75915,-0.0578 -18.15067,-5.83384 -38.64781,-12.83573 z"
         id="path943"
         transform="matrix(0.67733333,0,0,0.67733333,19.633089,6.545363)" />
    </g>
  </g>
</svg>
