<?xml version="1.0" encoding="UTF-8" standalone="no"?>
<svg
   xmlns:dc="http://purl.org/dc/elements/1.1/"
   xmlns:cc="http://creativecommons.org/ns#"
   xmlns:rdf="http://www.w3.org/1999/02/22-rdf-syntax-ns#"
   xmlns:svg="http://www.w3.org/2000/svg"
   xmlns="http://www.w3.org/2000/svg"
   xmlns:sodipodi="http://sodipodi.sourceforge.net/DTD/sodipodi-0.dtd"
   xmlns:inkscape="http://www.inkscape.org/namespaces/inkscape"
   width="21.5mm"
   height="21.5mm"
   viewBox="0 0 21.5 21.5"
   version="1.1"
   id="svg858"
   inkscape:version="1.0.1 (3bc2e813f5, 2020-09-07)"
   sodipodi:docname="13_печать_легенда.svg">
  <defs
     id="defs852" />
  <sodipodi:namedview
     id="base"
     pagecolor="#ffffff"
     bordercolor="#666666"
     borderopacity="1.0"
     inkscape:pageopacity="0.0"
     inkscape:pageshadow="2"
     inkscape:zoom="5.6"
     inkscape:cx="47.923596"
     inkscape:cy="66.546271"
     inkscape:document-units="mm"
     inkscape:current-layer="layer1"
     inkscape:document-rotation="0"
     showgrid="false"
     inkscape:window-width="1710"
     inkscape:window-height="1030"
     inkscape:window-x="192"
     inkscape:window-y="0"
     inkscape:window-maximized="0"
     inkscape:snap-center="true" />
  <metadata
     id="metadata855">
    <rdf:RDF>
      <cc:Work
         rdf:about="">
        <dc:format>image/svg+xml</dc:format>
        <dc:type
           rdf:resource="http://purl.org/dc/dcmitype/StillImage" />
        <dc:title></dc:title>
      </cc:Work>
    </rdf:RDF>
  </metadata>
  <g
     inkscape:label="Слой 1"
     inkscape:groupmode="layer"
     id="layer1"
     transform="translate(-70.366302,-88.807899)">
    <circle
       style="opacity:0.999;fill:#ffffff;fill-opacity:1;stroke:#000000;stroke-width:1.5;stroke-linecap:round;stroke-miterlimit:4;stroke-dasharray:none;stroke-opacity:1"
       id="path1421"
       cx="81.116302"
       cy="99.557899"
       r="10" />
    <g
       id="g3529"
       transform="matrix(0.03947507,0,0,0.03947507,40.608842,84.319793)"
       style="overflow:hidden;fill:currentColor">
      <path
         style="fill:#000000"
         d="m 838.14633,520.75439 c -1.97753,-1.97753 -1.99983,-3.32295 -1.98469,-119.75 0.008,-64.7625 0.34592,-118.24513 0.75,-118.8503 1.74035,-2.60641 5.60982,-3.3997 16.5829,-3.3997 h 11.47968 l 0.33606,-11.58877 c 0.3242,-11.18009 0.43188,-11.67112 3.05342,-13.92397 3.78587,-3.25342 10.46744,-3.99247 35.78263,-3.95792 23.35074,0.0319 33.29501,1.20608 54.82738,6.47403 17.32471,4.23853 33.76218,10.2367 51.49529,18.79109 l 15.8227,7.6328 7.6773,-4.11214 c 21.9096,-11.73527 47.3386,-20.44147 75.7109,-25.92137 12.5199,-2.41814 16.3485,-2.70769 36.9664,-2.79564 26.7301,-0.11402 33.4387,0.58579 37.2827,3.88915 2.6215,2.25285 2.7292,2.74388 3.0534,13.92397 l 0.336,11.58877 h 11.7791 c 10.4024,0 12.0871,0.24225 14.414,2.07258 l 2.6348,2.07258 v 117.92742 c 0,116.59409 -0.023,117.95003 -2,119.92742 -1.9856,1.98566 -3.3333,2 -188,2 -184.66664,0 -186.01431,-0.0143 -187.99997,-2 z m 151,-12.41708 c 0,-0.75743 -27.28578,-9.47991 -39,-12.46715 -26.4011,-6.73255 -53.10025,-8.59431 -67,-4.67198 -10.17566,2.87144 -12.26405,2.97271 -15.03509,0.72904 l -2.46491,-1.9958 -0.26449,-98.08851 -0.26448,-98.08852 h -7.48552 -7.48551 v 107.5 107.5 h 69.5 c 38.225,0 69.5,-0.18768 69.5,-0.41708 z M 1202.1463,401.25439 v -107.5 h -7.5 -7.5 v 96.43491 c 0,60.55253 -0.3646,97.39391 -0.9799,99.01228 -1.7849,4.69477 -4.9561,5.20863 -15.3079,2.48056 -7.6601,-2.01871 -11.4867,-2.41778 -22.7122,-2.36855 -14.3683,0.063 -21.6382,0.98621 -40,5.07964 -11.0241,2.45763 -45,12.95543 -45,13.90402 0,0.25143 31.275,0.45714 69.5,0.45714 h 69.5 z m -183,-1.8967 V 294.96098 l -13.25,-6.52967 c -23.26594,-11.4656 -49.56413,-19.70506 -74.29996,-23.27887 -12.27509,-1.77348 -47.86867,-2.4934 -50.25831,-1.01652 -0.91013,0.56249 -1.1917,25.77042 -1.1917,106.6893 v 105.95281 l 4.25,-0.76182 c 2.3375,-0.419 12.125,-0.74443 21.75,-0.72318 14.92565,0.033 19.50257,0.4381 31.11315,2.75412 21.56092,4.30086 50.93734,13.46247 72.38682,22.57526 3.85,1.63567 7.5625,3.0095 8.25,3.05296 0.9925,0.0627 1.25,-21.42484 1.25,-104.31768 z m -41.92927,26.76358 c -15.62507,-7.29536 -41.52238,-13.36688 -57.01478,-13.36688 -7.37699,0 -10.05592,-1.19881 -10.05592,-4.5 0,-3.8972 2.40589,-4.42106 15.52564,-3.38057 19.66013,1.55919 39.03702,6.51093 56.15937,14.35146 8.55932,3.91942 9.98759,5.40384 8.27622,8.60155 -1.43802,2.68697 -4.29123,2.30946 -12.89053,-1.70556 z m 1.9293,-30.46177 c -7.35051,-3.73801 -24.52778,-9.37646 -34.93074,-11.46605 -4.63691,-0.9314 -14.08691,-2.19871 -21,-2.81625 -11.97725,-1.06993 -12.58465,-1.23138 -12.89602,-3.42785 -0.66455,-4.68782 1.37811,-5.51973 11.8082,-4.80908 20.17167,1.37438 39.55532,5.98284 57.28696,13.61997 11.22952,4.83663 13.45909,7.12381 10.16017,10.42272 -2.07825,2.07825 -3.85707,1.81839 -10.42857,-1.52346 z m -0.5,-31.4274 c -15.90323,-7.61173 -37.6287,-13.0724 -56.83677,-14.28582 -8.85288,-0.55927 -11.16318,-1.02734 -12.05263,-2.44189 -3.39038,-5.39198 6.52417,-7.0607 25.4554,-4.28442 17.18525,2.52023 35.91541,8.05042 48.434,14.30042 6.81538,3.40263 8.03858,5.55256 4.92857,8.66257 -1.96874,1.96875 -1.57957,2.04521 -9.92857,-1.95086 z m 0.45998,-30.91349 c -12.95586,-6.81784 -35.78621,-12.75472 -55.95998,-14.55202 -9.47086,-0.84377 -12.80291,-1.51115 -13.75,-2.75405 -1.63507,-2.14574 -1.57956,-2.78573 0.41457,-4.77986 1.41927,-1.41928 3.00337,-1.56343 10.75,-0.97822 21.85997,1.65139 42.08924,6.64702 59.83512,14.77632 8.55658,3.91973 8.84224,4.15823 8.5513,7.1394 -0.39391,4.03634 -3.63451,4.41451 -9.84101,1.14843 z m 69.46839,164.91402 c 27.4275,-10.86106 55.5993,-18.86749 77.5692,-22.04514 11.5144,-1.66541 38.3852,-1.61148 43.7524,0.0878 l 2.25,0.71236 V 370.93004 c 0,-81 -0.2815,-106.23163 -1.1917,-106.79412 -2.3425,-1.44777 -37.96,-0.76039 -49.8667,0.96237 -26.8235,3.88106 -54.7902,12.82942 -79.1916,25.33853 l -8.75,4.48561 v 104.41598 c 0,57.42879 0.3375,104.41458 0.75,104.41287 0.4125,-0.002 7.0178,-2.4851 14.6784,-5.51865 z m 13.7716,-69.67824 c -2.698,-2.69803 -1.25,-4.74966 5.8899,-8.34526 15.5345,-7.82305 37.3638,-13.581 58.2849,-15.37391 13.0943,-1.12217 15.6252,-0.56835 15.6252,3.41917 0,3.37923 -2.6985,4.5 -10.8349,4.5 -15.1726,0 -40.6513,6.07634 -57.0559,13.60713 -7.9872,3.66665 -10.0547,4.04734 -11.9092,2.19287 z m -0.093,-31.17155 c -2.422,-2.91838 -0.7636,-5.05027 6.8934,-8.86168 15.7014,-7.81558 35.2363,-12.96597 56.6652,-14.93982 13.9979,-1.28937 16.3348,-0.83542 16.3348,3.17305 0,2.92145 -2.0965,3.73161 -11.5,4.44408 -19.1611,1.45174 -38.9546,6.11664 -53.7893,12.67692 -11.4217,5.05094 -13.0071,5.4317 -14.6041,3.50745 z m 1.6434,-30.70854 c -0.9625,-0.56061 -1.75,-2.11626 -1.75,-3.45702 0,-2.00739 1.1916,-3.03742 6.75,-5.83467 16.3307,-8.21839 40.6748,-14.42017 60.2645,-15.35267 9.7509,-0.46418 11.7163,-0.30487 12.8326,1.04017 1.7698,2.13248 0.5532,5.57249 -2.1637,6.11806 -1.2009,0.24113 -6.2808,0.68266 -11.2887,0.98116 -17.7709,1.05923 -41.9817,7.30941 -56.2876,14.53104 -6.9048,3.48552 -6.0916,3.29343 -8.3571,1.97393 z m -0.7101,-32.37191 c -2.2247,-2.68051 -0.146,-5.30969 6.7541,-8.54301 17.2907,-8.10219 37.0581,-13.28264 57.6977,-15.12092 13.8847,-1.23665 15.8607,-0.71644 15.3089,4.03034 -0.2759,2.37305 -0.7938,2.63985 -6.3006,3.24557 -3.3,0.363 -10.4405,1.15609 -15.8678,1.76243 -16.0472,1.79282 -35.0975,7.22578 -47.6623,13.59283 -5.5995,2.83751 -8.2072,3.10872 -9.93,1.03276 z"
         id="path3512" />
      <path
         style="opacity:0.999;fill:#ffffff;fill-opacity:1;stroke:none;stroke-width:2.67253;stroke-linecap:round;stroke-miterlimit:4;stroke-dasharray:none;stroke-opacity:1"
         d="m 1009.6325,500.29822 c -17.89557,-7.46452 -41.35025,-15.11834 -61.16471,-19.9595 -18.62159,-4.54972 -22.30704,-4.98967 -42.07285,-5.02238 -9.91718,-0.0164 -19.86087,0.21157 -22.09709,0.50665 l -4.06586,0.53651 9.3e-4,-76.19693 c 9.8e-4,-79.97651 0.58011,-133.89225 1.45337,-135.30522 1.3622,-2.20409 38.50925,-1.2246 54.76068,1.44393 24.04016,3.94747 44.98943,10.97306 75.13013,25.19579 l 7.2478,3.4201 v 94.07374 c 0,95.57404 -0.2808,114.27495 -1.6984,114.16779 -0.4254,-0.0322 -3.7965,-1.31939 -7.4912,-2.86048 z m -19.38039,-72.38789 c 1.07276,-1.63723 1.07281,-1.89824 6.7e-4,-3.53452 -0.63669,-0.97171 -3.29842,-2.83791 -5.91496,-4.14711 -18.26434,-9.13869 -43.74497,-15.36896 -63.64509,-15.56187 -9.98914,-0.0968 -10.72656,0.14228 -10.75143,3.48614 -0.0262,3.52041 1.22985,4.01359 12.73356,4.99985 20.63835,1.76941 38.65763,6.25608 56.19852,13.99304 6.89552,3.04148 9.76065,3.23398 11.37873,0.76447 z m -0.41857,-30.75915 c 2.75312,-2.75312 1.29921,-4.9827 -5.45953,-8.37217 -17.03036,-8.54067 -45.83454,-15.55971 -65.25898,-15.90241 -7.61352,-0.13431 -9.18456,0.51029 -9.18456,3.76849 0,3.47982 1.09128,3.81031 18.73833,5.67468 16.75346,1.76998 36.28804,7.02198 49.85103,13.40275 6.74615,3.17377 9.25215,3.49022 11.31371,1.42866 z m -0.73466,-31.24603 c 0.79297,-0.85115 1.44176,-2.06848 1.44176,-2.70517 0,-4.7309 -22.06406,-13.58498 -46.66904,-18.72781 -10.01915,-2.09416 -28.62047,-3.18638 -31.95359,-1.87623 -2.80589,1.1029 -3.67746,3.1464 -2.14772,5.03555 1.08135,1.33541 2.54112,1.65181 11.83378,2.56497 23.19061,2.27889 40.95598,6.79928 57.62286,14.66214 6.25208,2.94951 7.93306,3.12772 9.87195,1.04655 z m -0.71789,-31.28673 c 0.46306,-0.55795 0.74067,-2.06939 0.61691,-3.35875 -0.20854,-2.17259 -0.66524,-2.56343 -6.23543,-5.33631 -11.59273,-5.77093 -29.96012,-11.41977 -45.25484,-13.91799 -9.54379,-1.55887 -23.07025,-2.70584 -25.53259,-2.16502 -2.81836,0.61902 -4.54827,3.25072 -3.46605,5.27288 1.14293,2.13557 2.84248,2.60178 14.24324,3.90708 23.35286,2.67374 39.71096,6.84361 55.06049,14.03556 5.69204,2.66698 9.21891,3.18844 10.56827,1.56255 z"
         id="path3514" />
      <path
         style="opacity:0.999;fill:#ffffff;fill-opacity:1;stroke:none;stroke-width:2.67253;stroke-linecap:round;stroke-miterlimit:4;stroke-dasharray:none;stroke-opacity:1"
         d="m 1034.1303,501.6662 c -0.2403,-0.89704 -0.4412,-47.79512 -0.4465,-104.21795 l -0.01,-102.58697 12.5511,-6.07379 c 26.1269,-12.64339 55.6334,-21.46133 80.0798,-23.93159 9.4864,-0.95858 43.4398,-1.2691 44.3087,-0.40522 0.326,0.32402 0.6792,48.12673 0.785,106.22824 l 0.1925,105.63913 -2.3138,-0.51579 c -1.2725,-0.28368 -11.0642,-0.50752 -21.7592,-0.49742 -21.1946,0.02 -25.1391,0.48996 -45.2548,5.39173 -17.3952,4.23884 -43.5406,12.93782 -66.5519,22.14279 -0.8069,0.32278 -1.2733,-0.0233 -1.5813,-1.17316 z m 42.3258,-75.89077 c 17.4828,-7.16305 36.9238,-11.75198 53.9192,-12.72733 9.5025,-0.54535 12.1933,-1.63727 12.1933,-4.94799 0,-2.76061 -2.4713,-3.87786 -8.5777,-3.87786 -20.4944,0 -55.6487,9.00474 -69.318,17.75574 -3.8935,2.49262 -4.5461,3.77575 -3.0678,6.03197 1.6481,2.51534 4.1922,2.13254 14.851,-2.23453 z m -0.8745,-31.01237 c 19.3129,-7.84737 32.6064,-11.09422 53.9055,-13.16606 4.278,-0.41614 8.8125,-1.08888 10.0766,-1.495 4.2694,-1.37156 3.7226,-6.43511 -0.7863,-7.28099 -5.3212,-0.99825 -30.1937,2.2717 -42.8778,5.63709 -12.6494,3.35615 -26.9756,9.12678 -32.7037,13.17313 -3.2759,2.31409 -2.3497,6.93417 1.3901,6.93417 0.9008,0 5.8487,-1.71105 10.9956,-3.80234 z m -2.9322,-29.82798 c 14.6564,-7.42698 38.3645,-13.24848 60.3733,-14.82459 6.6241,-0.47437 9.1291,-1.44379 9.885,-3.82545 0.7184,-2.26341 -0.7662,-4.11705 -3.6886,-4.60551 -3.364,-0.56227 -19.0563,0.63279 -27.4096,2.08741 -9.2141,1.6045 -21.7301,4.87359 -29.6884,7.75437 -8.2515,2.98691 -18.0466,7.75173 -19.2788,9.37817 -1.411,1.86241 -1.0298,4.21444 0.9332,5.75855 2.0204,1.58924 2.5346,1.4894 8.8739,-1.72295 z m 2.2971,-32.21937 c 8.5502,-3.86263 23.1094,-8.60755 32.0763,-10.45381 3.9788,-0.81923 12.7293,-2.12408 19.4455,-2.89968 16.9718,-1.95996 16.7742,-1.8924 16.7966,-5.73983 0.021,-3.60423 -2.6088,-4.25093 -13.6988,-3.36868 -17.6999,1.40809 -36.3066,5.69791 -52.0513,12.00055 -9.9355,3.97719 -13.8317,6.26666 -14.9897,8.80829 -0.6487,1.42381 -0.5603,1.99112 0.4914,3.15326 1.9079,2.10823 4.7276,1.75368 11.93,-1.5001 z"
         id="path3516" />
      <path
         style="opacity:0.999;fill:#ffffff;fill-opacity:1;stroke:none;stroke-width:2.67253;stroke-linecap:round;stroke-miterlimit:4;stroke-dasharray:none;stroke-opacity:1"
         d="m 1064.8579,507.86016 c 0.1688,-0.16874 4.7561,-1.746 10.1942,-3.50502 34.1665,-11.0517 51.6517,-14.53738 73.0374,-14.56001 10.0741,-0.0107 13.5129,0.26623 19.4454,1.56576 3.9639,0.8683 9.2389,1.58424 11.7223,1.59099 4.1363,0.0112 4.6407,-0.15527 6.0104,-1.98391 l 1.4952,-1.99619 0.1936,-97.52909 0.1937,-97.5291 h 7.4077 7.4078 v 107.12668 107.12668 h -68.7072 c -37.789,0 -68.5692,-0.13806 -68.4005,-0.30679 z"
         id="path3520" />
      <path
         style="opacity:0.999;fill:#ffffff;fill-opacity:1;stroke:none;stroke-width:2.67253;stroke-linecap:round;stroke-miterlimit:4;stroke-dasharray:none;stroke-opacity:1"
         d="M 850.5335,401.04027 V 293.91359 h 6.95466 6.95466 l 0.46996,57.39253 c 0.25848,31.56588 0.46996,75.73558 0.46996,98.15486 v 40.76234 l 1.95822,1.44778 c 3.34479,2.47291 4.69811,2.52787 12.69179,0.51538 6.28421,-1.58211 9.66833,-1.97528 19.25886,-2.2375 6.49348,-0.17754 15.08645,0.0484 19.44544,0.51132 16.70747,1.77429 41.03133,7.73009 63.31831,15.50376 l 6.01041,2.09642 -68.76614,0.0532 -68.76613,0.0532 z"
         id="path3522" />
    </g>
  </g>
</svg>
