<?xml version="1.0" encoding="UTF-8" standalone="no"?>
<svg
   xmlns:dc="http://purl.org/dc/elements/1.1/"
   xmlns:cc="http://creativecommons.org/ns#"
   xmlns:rdf="http://www.w3.org/1999/02/22-rdf-syntax-ns#"
   xmlns:svg="http://www.w3.org/2000/svg"
   xmlns="http://www.w3.org/2000/svg"
   xmlns:sodipodi="http://sodipodi.sourceforge.net/DTD/sodipodi-0.dtd"
   xmlns:inkscape="http://www.inkscape.org/namespaces/inkscape"
   width="21.5mm"
   height="21.5mm"
   viewBox="0 0 21.5 21.5"
   version="1.1"
   id="svg858"
   inkscape:version="1.0.1 (3bc2e813f5, 2020-09-07)"
   sodipodi:docname="14_другое_легенда.svg">
  <defs
     id="defs852" />
  <sodipodi:namedview
     id="base"
     pagecolor="#ffffff"
     bordercolor="#666666"
     borderopacity="1.0"
     inkscape:pageopacity="0.0"
     inkscape:pageshadow="2"
     inkscape:zoom="3.959798"
     inkscape:cx="66.801435"
     inkscape:cy="31.568936"
     inkscape:document-units="mm"
     inkscape:current-layer="layer1"
     inkscape:document-rotation="0"
     showgrid="false"
     inkscape:window-width="1710"
     inkscape:window-height="1030"
     inkscape:window-x="192"
     inkscape:window-y="0"
     inkscape:window-maximized="0"
     inkscape:snap-center="true"
     inkscape:snap-object-midpoints="false" />
  <metadata
     id="metadata855">
    <rdf:RDF>
      <cc:Work
         rdf:about="">
        <dc:format>image/svg+xml</dc:format>
        <dc:type
           rdf:resource="http://purl.org/dc/dcmitype/StillImage" />
        <dc:title></dc:title>
      </cc:Work>
    </rdf:RDF>
  </metadata>
  <g
     inkscape:label="Слой 1"
     inkscape:groupmode="layer"
     id="layer1"
     transform="translate(-70.366302,-88.807899)">
    <circle
       style="opacity:0.999;fill:#ffffff;fill-opacity:1;stroke:#000000;stroke-width:1.5;stroke-linecap:round;stroke-miterlimit:4;stroke-dasharray:none;stroke-opacity:1"
       id="path1421"
       cx="81.116302"
       cy="99.557899"
       r="10" />
    <g
       id="g878"
       transform="matrix(0.06766405,0,0,0.06766405,74.616302,93.75469)">
      <path
         d="m 192.12567,88.899211 v 77.906459 c 0,2.60882 -2.11559,4.72441 -4.72441,4.72441 H 4.7244094 C 2.1155905,171.53008 0,169.41449 0,166.80567 v -55.12441 c 0,-1.7915 1.0129134,-3.42803 2.615433,-4.2274 L 48.284409,84.67181 c 1.464567,-0.730394 3.203149,-0.651024 4.594016,0.209764 1.391811,0.860787 2.23937,2.381102 2.23937,4.017637 V 104.04472 L 83.083462,90.094487 V 43.954015 c 0,-2.608819 2.11559,-4.724409 4.724409,-4.724409 h 8.57386 c 2.608819,0 4.724409,2.11559 4.724409,4.724409 V 103.88598 L 132.30708,88.321889 134.23842,4.615748 C 134.29795,2.0494488 136.39464,0 138.96189,0 h 20.59559 c 2.5663,0 4.66394,2.0494488 4.72346,4.615748 l 2.06551,89.507715 18.94583,-9.450708 c 1.46457,-0.730394 3.20221,-0.651024 4.59402,0.209764 1.39181,0.860787 2.23937,2.380157 2.23937,4.016692 z M 33.144567,133.29543 H 20.365039 v 17.95843 h 12.779528 z m 34.606296,0 H 54.971338 v 17.95843 h 12.779525 z m 34.607247,0 H 89.57858 v 17.95843 h 12.77953 z m 34.60724,0 h -12.77952 v 17.95843 h 12.77952 z"
         id="path2"
         style="stroke-width:0.944882" />
      <path
         style="fill:#ffffff;stroke:#000000;stroke-width:1.54086;stop-color:#000000"
         d="m 80.839528,559.8011 v -34.36217 h 24.461202 24.46121 v 34.36217 34.36217 H 105.30073 80.839528 Z"
         id="path865"
         transform="scale(0.25416625)" />
      <path
         style="fill:#ffffff;stroke:#000000;stroke-width:1.54086;stop-color:#000000"
         d="m 217.12338,559.8011 v -34.36217 h 24.4612 24.46121 v 34.36217 34.36217 h -24.46121 -24.4612 z"
         id="path867"
         transform="scale(0.25416625)" />
      <path
         style="fill:#ffffff;stroke:#000000;stroke-width:1.54086;stop-color:#000000"
         d="m 353.40723,559.8011 v -34.36217 h 24.4612 24.46121 v 34.36217 34.36217 h -24.46121 -24.4612 z"
         id="path869"
         transform="scale(0.25416625)" />
      <path
         style="fill:#ffffff;stroke:#000000;stroke-width:1.54086;stop-color:#000000"
         d="m 488.52626,559.8011 v -34.36217 h 25.04361 25.04362 v 34.36217 34.36217 h -25.04362 -25.04361 z"
         id="path871"
         transform="scale(0.25416625)" />
    </g>
  </g>
</svg>
