<?xml version="1.0" encoding="UTF-8" standalone="no"?>
<svg
   xmlns:dc="http://purl.org/dc/elements/1.1/"
   xmlns:cc="http://creativecommons.org/ns#"
   xmlns:rdf="http://www.w3.org/1999/02/22-rdf-syntax-ns#"
   xmlns:svg="http://www.w3.org/2000/svg"
   xmlns="http://www.w3.org/2000/svg"
   xmlns:sodipodi="http://sodipodi.sourceforge.net/DTD/sodipodi-0.dtd"
   xmlns:inkscape="http://www.inkscape.org/namespaces/inkscape"
   width="21.5mm"
   height="21.5mm"
   viewBox="0 0 21.5 21.5"
   version="1.1"
   id="svg858"
   inkscape:version="1.0.1 (3bc2e813f5, 2020-09-07)"
   sodipodi:docname="15_украшения_легенда.svg">
  <defs
     id="defs852" />
  <sodipodi:namedview
     id="base"
     pagecolor="#ffffff"
     bordercolor="#666666"
     borderopacity="1.0"
     inkscape:pageopacity="0.0"
     inkscape:pageshadow="2"
     inkscape:zoom="5.6"
     inkscape:cx="53.879912"
     inkscape:cy="29.979274"
     inkscape:document-units="mm"
     inkscape:current-layer="layer1"
     inkscape:document-rotation="0"
     showgrid="false"
     inkscape:window-width="1710"
     inkscape:window-height="1030"
     inkscape:window-x="192"
     inkscape:window-y="0"
     inkscape:window-maximized="0"
     inkscape:snap-center="true" />
  <metadata
     id="metadata855">
    <rdf:RDF>
      <cc:Work
         rdf:about="">
        <dc:format>image/svg+xml</dc:format>
        <dc:type
           rdf:resource="http://purl.org/dc/dcmitype/StillImage" />
        <dc:title></dc:title>
      </cc:Work>
    </rdf:RDF>
  </metadata>
  <g
     inkscape:label="Слой 1"
     inkscape:groupmode="layer"
     id="layer1"
     transform="translate(-70.366302,-88.807899)">
    <circle
       style="opacity:0.999;fill:#ffffff;fill-opacity:1;stroke:#000000;stroke-width:1.5;stroke-linecap:round;stroke-miterlimit:4;stroke-dasharray:none;stroke-opacity:1"
       id="path1421"
       cx="81.116302"
       cy="99.557899"
       r="10" />
    <g
       id="g1404"
       style="overflow:hidden;fill:currentColor"
       transform="matrix(0.01984375,0,0,0.01984375,73.616303,93.82397)">
      <path
         style="fill:#000000;stroke-width:0.876866"
         d="M 343.67313,543.42082 C 338.00612,524.49148 318.31627,458.49637 299.91804,396.765 242.81654,205.17336 236.59035,184.40252 235.95138,183.36868 c -0.46194,-0.74751 -30.65243,-0.94699 -118.25843,-0.78137 L 0.05489181,182.80972 8.9401738,192.89367 c 4.8868612,5.54618 15.6459172,17.58117 23.9088882,26.74441 8.263058,9.16325 21.359314,23.76307 29.102917,32.44404 7.743602,8.68098 17.963825,20.12408 22.711616,25.42911 4.747701,5.30505 20.088655,22.46969 34.090875,38.14368 46.60491,52.16897 86.53984,96.79676 94.20241,105.27224 10.26872,11.35818 39.21143,43.70512 54.61016,61.03335 45.51539,51.21853 85.44857,95.76709 85.8906,95.81778 0.28559,0.0324 -4.1175,-15.42812 -9.78451,-34.35746 z m 48.6095,-8.98787 c 6.47864,-21.70243 17.77135,-59.58304 25.09476,-84.17913 7.3235,-24.59608 18.97047,-63.66046 25.88236,-86.80972 6.91181,-23.14926 16.37521,-54.91373 21.0298,-70.58771 4.65457,-15.67398 11.95141,-40.13854 16.21518,-54.36569 7.41503,-24.74254 11.5484,-38.70816 14.98747,-50.639 l 1.57968,-5.48041 H 379.189 c -79.60118,0 -117.88296,0.29066 -117.88296,0.89504 0,0.49228 4.09558,14.59887 9.10126,31.34796 5.00576,16.7491 14.45443,48.40674 20.99708,70.35031 26.9759,90.47463 37.67673,126.38374 40.63283,136.35265 1.71611,5.78731 4.43939,14.86287 6.05169,20.16792 1.61238,5.30503 11.25378,37.66138 21.42534,71.903 10.17156,34.24161 18.71924,62.84936 18.99493,63.57278 0.64266,1.68682 -0.23141,4.38556 13.77346,-42.528 z m 69.38728,-22.54747 c 32.31251,-36.20527 65.86385,-73.76194 74.55859,-83.45922 45.49821,-50.7444 127.61108,-142.56235 130.94353,-146.41995 2.10263,-2.43397 8.46272,-9.57075 14.13359,-15.8595 9.57493,-10.61827 27.39969,-30.52985 41.24189,-46.07029 3.22178,-3.61708 12.04542,-13.48182 19.60795,-21.92165 l 13.75005,-15.34515 -117.69575,-0.22241 c -64.7327,-0.12232 -117.97916,0.075 -118.32542,0.43844 -0.34628,0.36345 -1.60914,4.21214 -2.80624,8.55263 -1.19718,4.34049 -7.50413,25.64832 -14.01539,47.35075 -6.51134,21.70244 -15.01081,50.11289 -18.88777,63.13435 -3.87698,13.02146 -12.17696,40.84003 -18.44445,61.81905 -6.26748,20.97901 -17.49987,58.66233 -24.96068,83.7407 -25.24822,84.86685 -38.45575,128.89665 -38.86305,129.55693 -2.6363,4.27368 9.84738,-9.36536 59.76315,-65.29468 z M 232.67155,154.96922 c -1.8451,-2.53195 -7.32035,-9.9305 -12.16704,-16.44123 -4.84679,-6.51073 -16.09628,-21.63915 -24.99892,-33.6187 C 186.60303,92.929712 172.21647,73.590622 163.5355,61.933567 154.85452,50.276511 141.09579,31.766135 132.96058,20.799436 124.82537,9.8328248 117.92006,0.87388515 117.61543,0.89072106 117.31081,0.90738155 108.97724,11.85742 99.096455,25.22375 89.215579,38.590081 70.867162,63.336027 58.322192,80.21473 45.777135,97.09346 28.340217,120.57155 19.573489,132.38824 10.806759,144.20495 2.8163179,154.92202 1.8169539,156.20399 0.81758979,157.48596 0,158.76838 0,159.05381 c 0,0.28543 53.105892,0.51896 118.01318,0.51896 h 118.01308 z m 261.85618,0.87687 C 491.33778,151.46053 475.38944,129.96346 427.36016,65.309676 408.01369,39.266758 389.32873,14.111667 385.83802,9.4094737 382.3473,4.7072799 379.23846,0.87449896 378.92945,0.89221164 c -0.30901,0.0175374 -3.96484,4.65414126 -8.12398,10.30317436 -8.76297,11.901965 -57.26961,77.226662 -95.33708,128.392054 -7.78929,10.46936 -14.16235,19.24897 -14.16235,19.51026 0,0.26129 53.08477,0.47507 117.96627,0.47507 h 117.96626 z m 261.33069,3.25455 c 0,-0.44876 -2.90084,-4.39919 -28.95043,-39.42527 C 694.5904,76.221483 653.00767,20.217285 646.36225,11.195386 642.20126,5.5463529 638.54998,0.90992438 638.24825,0.89221164 637.94652,0.87467437 630.44932,10.623582 621.5878,22.55685 552.3973,115.73119 525.00269,152.63899 522.65453,155.84609 l -2.72863,3.72668 h 117.96626 c 64.88141,0 117.96626,-0.21245 117.96626,-0.47213 z M 269.06753,93.369392 C 279.74645,78.901098 299.47848,52.266296 312.91635,34.180936 328.46705,13.252163 336.99492,1.063639 336.37506,0.6525642 335.03486,-0.23631479 159.5896,-0.16046588 159.5896,0.7288516 c 0,1.7044519 88.73523,120.4477284 89.42524,119.6666684 0.35004,-0.39616 9.37369,-12.55799 20.05269,-27.026286 z M 521.03794,105.89773 C 534.03668,88.309721 546.44144,71.58865 576.30653,31.398377 588.7326,14.676281 598.89942,0.77094109 598.89942,0.4975343 598.89942,0.2242152 558.8078,3.5132314e-4 509.80687,5.7676378e-7 431.71871,-3.501696e-4 420.77551,0.15897637 421.20965,1.2905719 c 0.43659,1.1377335 23.11471,31.8825821 73.28222,99.3493581 8.35268,11.23293 15.31675,20.29346 15.47581,20.13448 0.15898,-0.15898 5.14054,-6.85349 11.07026,-14.87668 z"
         id="path1366"
         sodipodi:nodetypes="sssscssssssscssssssscssssssssssssssscsssssscsssssssssssssscssssssssscssssssscsssssssssssssssss" />
      <path
         style="opacity:0.999;fill:#ffffff;fill-opacity:1;stroke:none;stroke-width:1.33795;stroke-linecap:round;stroke-miterlimit:4;stroke-dasharray:none;stroke-opacity:1"
         d="m 351.69549,569.31869 c -2.79489,-9.58443 -101.59662,-341.08149 -108.56365,-364.25 -2.97704,-9.9 -5.85182,-19.0125 -6.38841,-20.25 l -0.9756,-2.25 H 118.24639 0.72494708 v -11.5 -11.5 H 118.30828 c 74.27866,0 117.46057,-0.35179 117.25,-0.9552 -0.33417,-0.95761 -42.99365,-58.53394 -90.94575,-122.746997 L 119.00011,1.5686893 h 20.27464 20.27464 l 4.80113,6.75 c 11.28226,15.8619797 70.56212,95.0513307 83.13421,111.0553407 1.09999,1.40026 1.43074,1.41918 2.60762,0.14917 1.91821,-2.07003 74.08798,-99.779941 81.02912,-109.7045108 l 5.76997,-8.2499999 h 20.59107 20.59107 l -2.04442,2.25 C 373.94631,6.1109881 274.11256,140.5161 265.35459,152.81869 l -4.8052,6.75 h 118.59892 118.59891 l -4.94203,-6.75 c -2.71811,-3.7125 -29.00846,-39.15 -58.42299,-78.750001 l -53.48097,-71.9999997 3.16186,-0.346606 c 1.73902,-0.1906334 10.88608,-0.031357 20.3268,0.3539474 l 17.16495,0.7005535 15.57496,21.1460518 c 44.05233,59.809659 71.50591,96.146054 72.64214,96.146054 1.03147,0 41.14403,-53.283633 81.23055,-107.902833 l 7.77755,-10.5971677 h 19.06826 19.06826 l -3.34581,4.4197365 c -1.8402,2.4308551 -28.20286,37.8683552 -58.58369,78.7500002 l -55.23788,74.330264 117.48788,0.25411 117.48788,0.25412 v 11.49177 11.49177 l -117.74306,0.25412 -117.74306,0.25411 -5.67171,19 c -3.11945,10.45 -21.50238,72.1 -40.85097,137 -39.6641,133.04321 -65.88108,220.74254 -68.9808,230.75 l -2.09075,6.75 h -10.85496 -10.85496 l 1.95818,-6.25 c 1.47382,-4.70406 90.26768,-302.42962 112.27228,-376.44866 1.83104,-6.15926 3.08106,-11.44676 2.77782,-11.75 -0.77165,-0.77164 -143.08449,-0.68975 -194.06966,0.11168 -37.84518,0.59488 -42.13359,0.8261 -41.73155,2.25 1.17943,4.17717 48.5866,163.38456 80.67571,270.93303 19.74912,66.19032 35.9075,120.52782 35.9075,120.75 0,0.22217 -5.38094,0.40395 -11.95765,0.40395 h -11.95766 z"
         id="path1400" />
    </g>
  </g>
</svg>
