<?xml version="1.0" encoding="UTF-8" standalone="no"?>
<svg
   xmlns:dc="http://purl.org/dc/elements/1.1/"
   xmlns:cc="http://creativecommons.org/ns#"
   xmlns:rdf="http://www.w3.org/1999/02/22-rdf-syntax-ns#"
   xmlns:svg="http://www.w3.org/2000/svg"
   xmlns="http://www.w3.org/2000/svg"
   xmlns:sodipodi="http://sodipodi.sourceforge.net/DTD/sodipodi-0.dtd"
   xmlns:inkscape="http://www.inkscape.org/namespaces/inkscape"
   width="21.5mm"
   height="21.5mm"
   viewBox="0 0 21.5 21.5"
   version="1.1"
   id="svg858"
   inkscape:version="1.0.1 (3bc2e813f5, 2020-09-07)"
   sodipodi:docname="17_энергия_легенда.svg">
  <defs
     id="defs852" />
  <sodipodi:namedview
     id="base"
     pagecolor="#ffffff"
     bordercolor="#666666"
     borderopacity="1.0"
     inkscape:pageopacity="0.0"
     inkscape:pageshadow="2"
     inkscape:zoom="3.959798"
     inkscape:cx="32.473965"
     inkscape:cy="45.205645"
     inkscape:document-units="mm"
     inkscape:current-layer="layer1"
     inkscape:document-rotation="0"
     showgrid="false"
     inkscape:window-width="1710"
     inkscape:window-height="1030"
     inkscape:window-x="192"
     inkscape:window-y="0"
     inkscape:window-maximized="0"
     inkscape:snap-center="true" />
  <metadata
     id="metadata855">
    <rdf:RDF>
      <cc:Work
         rdf:about="">
        <dc:format>image/svg+xml</dc:format>
        <dc:type
           rdf:resource="http://purl.org/dc/dcmitype/StillImage" />
        <dc:title></dc:title>
      </cc:Work>
    </rdf:RDF>
  </metadata>
  <g
     inkscape:label="Слой 1"
     inkscape:groupmode="layer"
     id="layer1"
     transform="translate(-70.366302,-88.807899)">
    <circle
       style="opacity:0.999;fill:#ffffff;fill-opacity:1;stroke:#000000;stroke-width:1.5;stroke-linecap:round;stroke-miterlimit:4;stroke-dasharray:none;stroke-opacity:1"
       id="path1421"
       cx="81.116302"
       cy="99.557899"
       r="10" />
    <g
       id="g944"
       style="overflow:hidden;fill:currentColor"
       transform="matrix(0.01984375,0,0,0.01984375,76.368887,92.057899)">
      <path
         style="fill:#000000;fill-opacity:1;stroke-width:3.77953;stroke-miterlimit:4;stroke-dasharray:none"
         d="m 219.44179,753.8251 c -5.53864,-2.4078 -10.4536,-9.85796 -10.46582,-15.86423 -0.0101,-4.70319 0.50848,-6.59854 44.47297,-162.71137 L 283.45678,468.69516 147.87675,467.97519 C 21.482692,467.30402 12.034132,467.08315 8.4208417,464.71531 2.6359417,460.92439 -0.06145828,455.8788 0.00106172,448.96581 0.06136172,442.29502 142.02139,14.304433 146.38021,7.6520325 151.41689,-0.03492717 150.93524,2.8332726e-6 251.91252,2.8332726e-6 h 93.42833 L 350.23355,3.2685328 c 6.11612,4.08584 10.28216,11.8689702 9.42622,17.6103602 -0.60064,4.02885 -10.31939,24.62238 -80.86603,171.350937 -42.42965,88.24856 -62.62013,130.54204 -62.62013,131.17191 0,0.3196 55.88704,0.58351 124.19341,0.58648 120.56036,0.006 124.32802,0.0874 128.79493,2.81111 6.42653,3.91849 9.31775,8.95867 9.31775,16.24334 0,5.51956 -3.27707,11.80146 -28.39267,54.42672 -15.61596,26.50285 -59.50912,100.99619 -97.54034,165.54076 -38.03122,64.54458 -78.33336,132.90495 -89.56031,151.91194 -21.50326,36.40455 -25.44331,41.09482 -34.42637,40.98147 -2.45676,-0.031 -6.55995,-0.96631 -9.11822,-2.07846 z M 337.49115,513.33279 c 26.53938,-45.14161 57.33961,-97.45085 68.44497,-116.24274 l 20.19157,-34.1671 -123.40016,-0.39107 c -115.08346,-0.36472 -123.66134,-0.56225 -127.27579,-2.93099 -5.08776,-3.33428 -8.17419,-8.20567 -9.19859,-14.51836 -0.92197,-5.68147 -6.50303,6.36935 88.12871,-190.29072 26.67601,-55.437064 50.04278,-104.196487 51.92615,-108.354267 l 3.42432,-7.5596 h -67.30158 -67.30158 l -65.03258,195.109667 -65.032578,195.10965 131.992338,0.009 c 85.58913,0.006 133.85812,0.52623 137.29949,1.48204 6.07229,1.68652 12.01692,7.998 13.38046,14.20614 0.67597,3.07774 -2.89451,17.84351 -12.97822,53.67164 -7.65092,27.18422 -16.72071,59.46931 -20.1551,71.74466 -3.4344,12.27534 3.45265,-2.44493 2.88819,-0.86101 -2.51443,7.05557 -5.51887,21.40837 39.99998,-56.01598 z"
         id="path930"
         sodipodi:nodetypes="scscssssscsssscssssssscscsssssccccccssssscc" />
      <path
         style="opacity:0.999;fill:#000000;fill-opacity:1;stroke:#000000;stroke-width:4.72171;stroke-linecap:round;stroke-miterlimit:4;stroke-dasharray:none;stroke-opacity:1"
         d="m 289.55093,591.3699 c -0.013,-0.80152 6.70944,-25.3281 14.93887,-54.50352 16.60932,-58.88422 23.76525,-86.18701 23.76525,-90.67407 0,-4.38165 -4.46584,-10.86517 -9.74494,-14.1477 l -4.62184,-2.87387 -134.03526,-0.42213 C 55.580342,428.35725 45.866252,428.17527 46.483712,426.25004 c 0.36629,-1.14205 29.52824,-88.65197 64.804348,-194.46649 l 64.13837,-192.390047 66.42002,-0.323269 c 40.64483,-0.19782 66.42003,0.130459 66.42003,0.845941 0,1.100384 -29.5703,63.167395 -83.07782,174.377375 -65.25592,135.62785 -62.04502,127.84774 -56.91418,137.90503 5.0294,9.85844 1.96783,9.41168 70.65663,10.31067 33.66825,0.44065 89.1834,0.86255 123.36699,0.93757 34.18359,0.075 73.08323,-6.7947 73.08323,-6.48635 0,0.6154 -136.44596,220.96571 -142.2257,230.1663 -1.96953,3.13523 -3.59165,5.04464 -3.6047,4.24313 z"
         id="path940"
         sodipodi:nodetypes="sssscssscsssssssss" />
    </g>
  </g>
</svg>
