<?xml version="1.0" encoding="UTF-8" standalone="no"?>
<svg
   xmlns:dc="http://purl.org/dc/elements/1.1/"
   xmlns:cc="http://creativecommons.org/ns#"
   xmlns:rdf="http://www.w3.org/1999/02/22-rdf-syntax-ns#"
   xmlns:svg="http://www.w3.org/2000/svg"
   xmlns="http://www.w3.org/2000/svg"
   xmlns:sodipodi="http://sodipodi.sourceforge.net/DTD/sodipodi-0.dtd"
   xmlns:inkscape="http://www.inkscape.org/namespaces/inkscape"
   width="21.5mm"
   height="21.5mm"
   viewBox="0 0 21.5 21.5"
   version="1.1"
   id="svg858"
   inkscape:version="1.0.1 (3bc2e813f5, 2020-09-07)"
   sodipodi:docname="18_химия_легенда.svg">
  <defs
     id="defs852" />
  <sodipodi:namedview
     id="base"
     pagecolor="#ffffff"
     bordercolor="#666666"
     borderopacity="1.0"
     inkscape:pageopacity="0.0"
     inkscape:pageshadow="2"
     inkscape:zoom="5.6"
     inkscape:cx="53.879914"
     inkscape:cy="29.979276"
     inkscape:document-units="mm"
     inkscape:current-layer="layer1"
     inkscape:document-rotation="0"
     showgrid="false"
     inkscape:window-width="1710"
     inkscape:window-height="1030"
     inkscape:window-x="192"
     inkscape:window-y="0"
     inkscape:window-maximized="0"
     inkscape:snap-center="true" />
  <metadata
     id="metadata855">
    <rdf:RDF>
      <cc:Work
         rdf:about="">
        <dc:format>image/svg+xml</dc:format>
        <dc:type
           rdf:resource="http://purl.org/dc/dcmitype/StillImage" />
        <dc:title></dc:title>
      </cc:Work>
    </rdf:RDF>
  </metadata>
  <g
     inkscape:label="Слой 1"
     inkscape:groupmode="layer"
     id="layer1"
     transform="translate(-70.366302,-88.807899)">
    <circle
       style="opacity:0.999;fill:#ffffff;fill-opacity:1;stroke:#000000;stroke-width:1.5;stroke-linecap:round;stroke-miterlimit:4;stroke-dasharray:none;stroke-opacity:1"
       id="path1421"
       cx="81.116302"
       cy="99.557899"
       r="10" />
    <g
       id="g1790"
       style="overflow:hidden;fill:currentColor"
       transform="matrix(0.01984375,0,0,0.01984375,75.679462,92.057899)">
      <path
         style="fill:#000000;stroke-width:1.93863"
         d="M 91.219517,753.12531 C 53.401304,744.91 20.351184,713.18386 7.3121336,672.57911 -6.9896664,628.04235 -0.14092643,570.62585 26.357464,512.91609 56.309844,447.68327 96.322097,384.65198 139.54508,334.61143 l 13.22467,-15.31115 V 200.45674 c 0,-77.70042 -0.72558,-122.399987 -2.09939,-129.116697 -1.15535,-5.65026 -5.44105,-17.25227 -9.52343,-25.782293 -4.08317,-8.52994 -7.88409,-16.97058 -8.44621,-18.75702 -1.7996,-5.71509 2.55068,-16.70346 8.64316,-21.82956 L 147.25136,0 h 126.68291 126.68287 l 5.9075,4.97117 c 10.4723,8.81132 11.5415,22.5915 2.7843,35.86729 -2.5076,3.80187 -6.5126,12.089503 -8.8999,18.417023 -4.308,11.41639 -4.3455,12.45692 -4.8933,135.918647 l -0.5501,124.41423 13.3172,15.16707 c 51.6173,58.79008 108.4597,154.41932 127.4013,214.33675 18.4823,58.46524 16.0871,109.36844 -7.0772,150.37697 -9.1391,16.17913 -31.3538,37.38398 -46.9753,44.83926 -24.7988,11.83539 -22.3837,11.70152 -208.66455,11.56924 -135.27583,-0.0965 -172.08421,-0.65382 -181.745813,-2.75234 z M 459.67054,700.92549 c 42.6911,-21.63159 52.0942,-83.3774 23.5303,-154.5146 -22.0225,-54.84476 -66.967,-128.07338 -107.286,-174.80131 -8.10819,-9.39704 -17.79587,-20.64679 -21.52742,-24.99946 l -6.78536,-7.914 -0.54219,-127.18291 c -0.33488,-77.43945 0.20731,-131.732207 1.37382,-138.814657 1.05408,-6.39745 2.50364,-14.90315 3.21965,-18.90157 l 1.30365,-7.269913 h -79.00997 -79.01076 l 1.05009,5.33126 c 4.83906,24.562203 5.40995,43.530193 4.86218,161.58819 l -0.58206,125.23884 -17.61403,20.15834 C 118.79352,431.9272 65.659844,524.94037 51.612554,588.23653 c -5.06646,22.82879 -4.1417,54.67908 2.06128,70.99208 8.71086,22.90892 21.64131,36.91411 41.449063,44.89437 7.554793,3.04352 22.032093,3.27642 180.750503,2.90797 l 172.53794,-0.40026 z m -347.61215,-35.3011 c -12.03265,-3.96437 -19.960843,-16.37065 -22.311473,-34.91486 -1.57626,-12.43411 1.78628,-35.37939 8.02315,-54.74876 8.977243,-27.87969 42.183253,-90.60416 68.091203,-128.62211 l 8.91824,-13.0857 h 99.15157 99.15156 l 14.0316,21.37117 c 19.4925,29.68974 33.9411,55.08421 46.8517,82.34549 18.3268,38.69799 23.9281,58.57455 23.8516,84.63296 -0.08,14.21473 -0.846,18.40874 -5.2577,27.42593 -8.8768,18.14442 4.5696,16.88191 -177.94943,16.7069 -87.80383,-0.0837 -160.95255,-0.58445 -162.55202,-1.11102 z"
         id="path1766"
         sodipodi:nodetypes="sssscssssscccsssccsssssssssssccsccccsscssssscscssscccsscssc" />
      <path
         style="opacity:0.999;fill:#ffffff;fill-opacity:1;stroke:none;stroke-width:3.74154;stroke-linecap:round;stroke-miterlimit:4;stroke-dasharray:none;stroke-opacity:1"
         d="M 110.66895,705.60166 C 97.867248,704.70963 95.535976,704.09519 87.14174,699.40087 68.989913,689.2498 55.561225,669.26982 51.105049,645.78341 47.833231,628.5392 49.189972,598.94086 54.074086,581.01165 71.896131,515.58825 120.36526,432.21725 182.41799,360.24928 l 18.37527,-21.31141 0.22646,-128.21824 c 0.16661,-94.32607 -0.22685,-131.208834 -1.48854,-139.531968 -0.94325,-6.222539 -2.14344,-14.33659 -2.6671,-18.031222 l -0.95209,-6.717515 h 77.97398 c 73.34645,0 77.96956,0.146876 77.89957,2.474874 -0.0409,1.36118 -1.05643,7.247844 -2.25672,13.081475 -1.8139,8.816005 -2.30351,28.870685 -2.90024,118.793936 -0.39485,59.50304 -0.27074,119.65429 0.27581,133.66946 l 0.99373,25.48212 17.65329,20.47982 c 63.80909,74.02581 115.70768,164.87438 129.3737,226.46891 4.23375,19.08211 4.62456,50.72692 0.80065,64.83281 -6.05744,22.34508 -19.28971,39.66872 -37.7998,49.48729 l -9.19239,4.87605 -161.92745,0.25308 c -89.0601,0.13915 -168.32183,-0.19251 -176.13717,-0.73709 z m 315.18967,-39.74732 c 7.64203,-0.74327 15.59698,-2.16014 17.67767,-3.14861 2.32514,-1.10461 5.6906,-5.33861 8.73281,-10.98651 l 4.94975,-9.18928 -0.10126,-22.62742 c -0.0915,-20.45993 -0.47254,-23.84662 -3.97731,-35.35534 C 442.52435,549.68726 420.91555,507.233 386.73845,454.08915 l -12.9582,-20.14939 -99.89494,-0.003 -99.89494,-0.003 -11.25472,17.32412 c -29.88909,46.0075 -56.86911,97.84189 -66.04327,126.88325 -11.935694,37.78315 -9.415191,69.02332 6.68048,82.80062 4.80585,4.11362 6.83886,4.86837 14.26239,5.29487 20.79817,1.19489 295.51069,0.85446 308.22337,-0.38196 z"
         id="path1786" />
    </g>
  </g>
</svg>
