<?xml version="1.0" encoding="UTF-8" standalone="no"?>
<svg
   xmlns:dc="http://purl.org/dc/elements/1.1/"
   xmlns:cc="http://creativecommons.org/ns#"
   xmlns:rdf="http://www.w3.org/1999/02/22-rdf-syntax-ns#"
   xmlns:svg="http://www.w3.org/2000/svg"
   xmlns="http://www.w3.org/2000/svg"
   xmlns:sodipodi="http://sodipodi.sourceforge.net/DTD/sodipodi-0.dtd"
   xmlns:inkscape="http://www.inkscape.org/namespaces/inkscape"
   width="21.5mm"
   height="21.5mm"
   viewBox="0 0 21.5 21.5"
   version="1.1"
   id="svg858"
   inkscape:version="1.0.1 (3bc2e813f5, 2020-09-07)"
   sodipodi:docname="19_стройка_легенда.svg">
  <defs
     id="defs852" />
  <sodipodi:namedview
     id="base"
     pagecolor="#ffffff"
     bordercolor="#666666"
     borderopacity="1.0"
     inkscape:pageopacity="0.0"
     inkscape:pageshadow="2"
     inkscape:zoom="5.6"
     inkscape:cx="53.879914"
     inkscape:cy="29.979276"
     inkscape:document-units="mm"
     inkscape:current-layer="layer1"
     inkscape:document-rotation="0"
     showgrid="false"
     inkscape:window-width="1710"
     inkscape:window-height="1030"
     inkscape:window-x="192"
     inkscape:window-y="0"
     inkscape:window-maximized="0"
     inkscape:snap-center="true"
     inkscape:object-nodes="false"
     inkscape:object-paths="false" />
  <metadata
     id="metadata855">
    <rdf:RDF>
      <cc:Work
         rdf:about="">
        <dc:format>image/svg+xml</dc:format>
        <dc:type
           rdf:resource="http://purl.org/dc/dcmitype/StillImage" />
        <dc:title></dc:title>
      </cc:Work>
    </rdf:RDF>
  </metadata>
  <g
     inkscape:label="Слой 1"
     inkscape:groupmode="layer"
     id="layer1"
     transform="translate(-70.366302,-88.807899)">
    <circle
       style="opacity:0.999;fill:#ffffff;fill-opacity:1;stroke:#000000;stroke-width:1.5;stroke-linecap:round;stroke-miterlimit:4;stroke-dasharray:none;stroke-opacity:1"
       id="path1421"
       cx="81.116302"
       cy="99.557899"
       r="10" />
    <g
       id="g1131">
      <path
         style="fill:none;stroke:#000000;stroke-width:0.247874;stroke-linecap:butt;stroke-linejoin:miter;stroke-miterlimit:4;stroke-dasharray:none;stroke-opacity:1"
         d="m 78.328841,95.835699 0.02574,8.489481 h 1.69275 v -8.493136 z"
         id="path1798"
         sodipodi:nodetypes="ccccc" />
      <path
         style="fill:none;stroke:#000000;stroke-width:0.123937;stroke-linecap:butt;stroke-linejoin:miter;stroke-miterlimit:4;stroke-dasharray:none;stroke-opacity:1"
         d="m 80.047329,104.32518 -1.697854,-1.6837 1.697854,-1.7018 -1.69275,-1.692744 1.69275,-1.69275 -1.718488,-1.718487"
         id="path1800"
         sodipodi:nodetypes="cccccc" />
      <path
         style="fill:none;stroke:#000000;stroke-width:0.247874;stroke-linecap:butt;stroke-linejoin:miter;stroke-miterlimit:4;stroke-dasharray:none;stroke-opacity:1"
         d="m 80.047329,104.32518 h -1.69275 -0.98383 v 0.98383"
         id="path1802" />
      <path
         style="overflow:hidden;fill:none;stroke:#000000;stroke-width:0.247874;stroke-linecap:butt;stroke-linejoin:miter;stroke-miterlimit:4;stroke-dasharray:none;stroke-opacity:1"
         d="m 78.354579,104.32518 h 1.69275 0.98383 v 0.98383"
         id="path1802-6" />
      <path
         style="fill:none;stroke:#000000;stroke-width:0.247874;stroke-linecap:butt;stroke-linejoin:miter;stroke-miterlimit:4;stroke-dasharray:none;stroke-opacity:1"
         d="m 77.370749,105.30901 h 3.66041"
         id="path1891" />
      <g
         id="g1961"
         transform="matrix(0.11245218,0,0,0.11245218,48.02284,56.629452)"
         style="fill:#000000;stroke-width:2.20427;stroke-miterlimit:4;stroke-dasharray:none">
        <path
           style="overflow:hidden;fill:none;stroke:#000000;stroke-width:2.20427;stroke-linecap:butt;stroke-linejoin:miter;stroke-miterlimit:4;stroke-dasharray:none;stroke-opacity:1"
           d="m 290.16195,432.89124 h -25.8106 -15.00119 v 15.00119"
           id="path1802-1" />
        <path
           style="overflow:hidden;fill:none;stroke:#000000;stroke-width:2.20427;stroke-linecap:butt;stroke-linejoin:miter;stroke-miterlimit:4;stroke-dasharray:none;stroke-opacity:1"
           d="m 264.35135,432.89124 h 25.8106 15.00119 v 15.00119"
           id="path1802-6-0" />
        <path
           style="overflow:hidden;fill:none;stroke:#000000;stroke-width:2.20427;stroke-linecap:butt;stroke-linejoin:miter;stroke-miterlimit:4;stroke-dasharray:none;stroke-opacity:1"
           d="m 248.23076,447.89243 h 58.03052"
           id="path1891-1"
           sodipodi:nodetypes="cc" />
      </g>
      <path
         style="fill:none;stroke:#000000;stroke-width:0.247874;stroke-linecap:butt;stroke-linejoin:miter;stroke-miterlimit:4;stroke-dasharray:none;stroke-opacity:1"
         d="m 80.047329,95.832044 -1.718488,0.0037 h -3.807808 v -1.179195 h 13.26475 v 1.187381 z"
         id="path1963" />
      <path
         style="fill:none;stroke:#000000;stroke-width:0.247874;stroke-linecap:butt;stroke-linejoin:miter;stroke-miterlimit:4;stroke-dasharray:none;stroke-opacity:1"
         d="M 79.85089,93.672671 H 78.450715 77.63693 v 0.98383"
         id="path1802-9" />
      <path
         style="overflow:hidden;fill:none;stroke:#000000;stroke-width:0.247874;stroke-linecap:butt;stroke-linejoin:miter;stroke-miterlimit:4;stroke-dasharray:none;stroke-opacity:1"
         d="m 78.450715,93.672671 h 1.400175 0.813786 v 0.98383"
         id="path1802-6-2" />
      <path
         style="fill:none;stroke:#000000;stroke-width:0.247874;stroke-linecap:butt;stroke-linejoin:miter;stroke-miterlimit:4;stroke-dasharray:none;stroke-opacity:1"
         d="m 77.63693,94.656501 h 3.027746"
         id="path1891-7" />
      <g
         id="g1956-7-3"
         style="overflow:hidden;fill:currentColor;stroke-width:5.89289;stroke-miterlimit:4;stroke-dasharray:none"
         transform="matrix(0,0.02650804,-0.0667434,0,111.51817,88.510763)">
        <path
           style="fill:none;stroke:#000000;stroke-width:5.89289;stroke-linecap:butt;stroke-linejoin:miter;stroke-miterlimit:4;stroke-dasharray:none;stroke-opacity:1"
           d="m 179.96078,477.45173 h -25.8106 -15.00119 v 15.00119"
           id="path1802-9-5" />
        <path
           style="overflow:hidden;fill:none;stroke:#000000;stroke-width:5.89289;stroke-linecap:butt;stroke-linejoin:miter;stroke-miterlimit:4;stroke-dasharray:none;stroke-opacity:1"
           d="m 154.15018,477.45173 h 25.8106 15.00119 v 15.00119"
           id="path1802-6-2-7" />
        <path
           style="fill:none;stroke:#000000;stroke-width:5.89289;stroke-linecap:butt;stroke-linejoin:miter;stroke-miterlimit:4;stroke-dasharray:none;stroke-opacity:1"
           d="m 136.15131,492.45292 h 58.81066"
           id="path1891-7-2"
           sodipodi:nodetypes="cc" />
      </g>
      <path
         style="fill:none;stroke:#000000;stroke-width:0.1983;stroke-linecap:butt;stroke-linejoin:miter;stroke-miterlimit:4;stroke-dasharray:none;stroke-opacity:1"
         d="m 78.515252,92.205328 -4.068431,2.410888"
         id="path2025"
         sodipodi:nodetypes="cc" />
      <path
         style="fill:none;stroke:#000000;stroke-width:0.1983;stroke-linecap:butt;stroke-linejoin:miter;stroke-miterlimit:4;stroke-dasharray:none;stroke-opacity:1"
         d="m 79.789354,92.208327 4.118009,2.448175"
         id="path2027"
         sodipodi:nodetypes="cc" />
      <path
         style="fill:none;stroke:#000000;stroke-width:0.247874;stroke-linecap:butt;stroke-linejoin:miter;stroke-miterlimit:4;stroke-dasharray:none;stroke-opacity:1"
         d="m 85.240941,95.83999 v 2.46836 H 86.2844 v -2.466764"
         id="path2033" />
      <path
         style="fill:none;stroke:#000000;stroke-width:0.247874;stroke-linecap:butt;stroke-linejoin:miter;stroke-miterlimit:4;stroke-dasharray:none;stroke-opacity:1"
         d="m 85.372828,98.30835 v 0.526254"
         id="path2048" />
      <path
         style="fill:none;stroke:#000000;stroke-width:0.247874;stroke-linecap:butt;stroke-linejoin:miter;stroke-miterlimit:4;stroke-dasharray:none;stroke-opacity:1"
         d="M 86.126974,98.834604 V 98.30835"
         id="path2052" />
      <path
         style="opacity:0.999;fill:none;stroke:#000000;stroke-width:0.247874;stroke-linecap:round;stroke-miterlimit:4;stroke-dasharray:none;stroke-opacity:1"
         id="path2054"
         sodipodi:type="arc"
         sodipodi:cx="85.749878"
         sodipodi:cy="98.830658"
         sodipodi:rx="0.37709621"
         sodipodi:ry="0.25262761"
         sodipodi:start="0.035147202"
         sodipodi:end="3.1259797"
         sodipodi:arc-type="arc"
         sodipodi:open="true"
         d="m 86.126741,98.839535 a 0.37709621,0.25262761 0 0 1 -0.380546,0.243739 0.37709621,0.25262761 0 0 1 -0.373367,-0.248672" />
      <path
         style="opacity:0.999;fill:none;stroke:#000000;stroke-width:0.247874;stroke-linecap:round;stroke-miterlimit:4;stroke-dasharray:none;stroke-opacity:1"
         id="path2060"
         sodipodi:type="arc"
         sodipodi:cx="86.106499"
         sodipodi:cy="98.867989"
         sodipodi:rx="0.00044294822"
         sodipodi:ry="0.0089553315"
         sodipodi:start="6.1460373"
         sodipodi:end="3.125972"
         sodipodi:open="true"
         sodipodi:arc-type="arc"
         d="m 86.106938,98.866764 a 4.4294822e-4,0.00895533 0 0 1 -1.82e-4,0.0085 4.4294822e-4,0.00895533 0 0 1 -4.57e-4,7.07e-4 4.4294822e-4,0.00895533 0 0 1 -2.43e-4,-0.0079" />
      <path
         style="fill:none;stroke:#000000;stroke-width:0.247874;stroke-linecap:butt;stroke-linejoin:miter;stroke-miterlimit:4;stroke-dasharray:none;stroke-opacity:1"
         d="m 85.749877,99.083288 v 0.580426"
         id="path2062" />
      <path
         style="opacity:0.999;fill:none;stroke:#000000;stroke-width:0.247874;stroke-linecap:round;stroke-miterlimit:4;stroke-dasharray:none;stroke-opacity:1"
         id="path2064"
         sodipodi:type="arc"
         sodipodi:cx="99.925163"
         sodipodi:cy="-85.754997"
         sodipodi:rx="0.26148084"
         sodipodi:ry="0.32806659"
         sodipodi:start="4.89742"
         sodipodi:end="3.125972"
         sodipodi:open="true"
         sodipodi:arc-type="arc"
         transform="rotate(90)"
         d="m 99.97327,-86.077464 a 0.26148084,0.32806659 0 0 1 0.21155,0.361137 0.26148084,0.32806659 0 0 1 -0.273055,0.288965 0.26148084,0.32806659 0 0 1 -0.248051,-0.322511" />
      <path
         style="opacity:0.999;fill:none;stroke:none;stroke-width:0.0641106;stroke-linecap:round;stroke-miterlimit:4;stroke-dasharray:none;stroke-opacity:1"
         d="m 76.197363,106.15544 v -0.71243 h 3.00238 3.002379 v 0.71243 0.71242 h -3.002379 -3.00238 z"
         id="path2066" />
      <path
         style="opacity:0.999;fill:none;stroke:none;stroke-width:0.0641106;stroke-linecap:round;stroke-miterlimit:4;stroke-dasharray:none;stroke-opacity:1"
         d="m 77.503483,104.81539 v -0.35621 h 1.69626 1.69626 v 0.35621 0.35621 h -1.69626 -1.69626 z"
         id="path2068" />
      <path
         style="opacity:0.999;fill:none;stroke:none;stroke-width:0.0641106;stroke-linecap:round;stroke-miterlimit:4;stroke-dasharray:none;stroke-opacity:1"
         d="m 78.487314,103.53097 v -0.65679 l 0.657069,0.65255 c 0.361387,0.35891 0.660354,0.65447 0.664368,0.6568 0.004,0.002 -0.291666,0.004 -0.657069,0.004 h -0.664368 z"
         id="path2070" />
      <path
         style="opacity:0.999;fill:none;stroke:none;stroke-width:0.0641106;stroke-linecap:round;stroke-miterlimit:4;stroke-dasharray:none;stroke-opacity:1"
         d="m 79.195502,103.38309 c -0.535346,-0.53013 -0.708188,-0.71108 -0.708188,-0.74138 0,-0.0302 0.175723,-0.21578 0.712429,-0.75237 l 0.712429,-0.71228 v 1.45447 c 0,0.79996 -0.0019,1.45411 -0.0042,1.45366 -0.0023,-4.6e-4 -0.322925,-0.31639 -0.712429,-0.7021 z"
         id="path2072" />
      <path
         style="opacity:0.999;fill:none;stroke:none;stroke-width:0.0641106;stroke-linecap:round;stroke-miterlimit:4;stroke-dasharray:none;stroke-opacity:1"
         d="m 78.481586,102.2004 c -0.0061,-0.10578 -0.01111,-0.76477 -0.01116,-1.46444 l -5.9e-5,-1.27212 0.72091,0.72076 c 0.471472,0.47137 0.72091,0.73255 0.72091,0.75484 0,0.0223 -0.245751,0.27977 -0.709752,0.74367 l -0.709752,0.70961 z"
         id="path2074" />
      <path
         style="opacity:0.999;fill:none;stroke:none;stroke-width:0.0641106;stroke-linecap:round;stroke-miterlimit:4;stroke-dasharray:none;stroke-opacity:1"
         d="m 79.186946,99.976736 c -0.394127,-0.39421 -0.716595,-0.724378 -0.716595,-0.733708 0,-0.0093 0.32441,-0.341306 0.72091,-0.737724 l 0.720911,-0.72076 v 1.454467 c 0,0.799959 -0.0019,1.454469 -0.0043,1.454469 -0.0024,0 -0.326783,-0.32254 -0.72091,-0.716744 z"
         id="path2076" />
      <path
         style="opacity:0.999;fill:none;stroke:none;stroke-width:0.0641106;stroke-linecap:round;stroke-miterlimit:4;stroke-dasharray:none;stroke-opacity:1"
         d="m 78.470351,97.910033 c 0,-0.616529 -0.0047,-1.284398 -0.01039,-1.484152 l -0.01039,-0.363191 0.731303,0.729318 c 0.479014,0.477714 0.731302,0.741073 0.731302,0.763392 0,0.02228 -0.249464,0.283485 -0.720911,0.754834 l -0.72091,0.720761 z"
         id="path2078" />
      <path
         style="opacity:0.999;fill:none;stroke:none;stroke-width:0.0641106;stroke-linecap:round;stroke-miterlimit:4;stroke-dasharray:none;stroke-opacity:1"
         d="m 79.233668,96.639418 -0.669862,-0.670022 h 0.674183 0.674183 v 0.670022 c 0,0.368513 -0.0019,0.670023 -0.0043,0.670023 -0.0024,0 -0.30576,-0.30151 -0.674184,-0.670023 z"
         id="path2080" />
      <path
         style="opacity:0.999;fill:none;stroke:none;stroke-width:0.0641106;stroke-linecap:round;stroke-miterlimit:4;stroke-dasharray:none;stroke-opacity:1"
         d="m 79.025876,95.702235 -4.372109,-0.0043 v -0.454154 -0.454154 l 6.496674,-0.0036 6.496675,-0.0036 v 0.466307 0.466308 l -2.124566,-0.0042 c -1.16851,-0.0023 -4.092014,-0.0061 -6.496674,-0.0085 z"
         id="path2082" />
      <path
         style="opacity:0.999;fill:none;stroke:none;stroke-width:0.0641106;stroke-linecap:round;stroke-miterlimit:4;stroke-dasharray:none;stroke-opacity:1"
         d="m 77.757922,94.162879 v -0.347733 h 1.390933 1.390933 v 0.347733 0.347733 h -1.390933 -1.390933 z"
         id="path2084" />
      <path
         style="opacity:0.999;fill:none;stroke:none;stroke-width:0.0641106;stroke-linecap:round;stroke-miterlimit:4;stroke-dasharray:none;stroke-opacity:1"
         d="m 78.860491,92.907647 v -0.619135 h 0.296845 0.296846 v 0.619135 0.619135 h -0.296846 -0.296845 z"
         id="path2086" />
      <path
         style="opacity:0.999;fill:none;stroke:none;stroke-width:0.0641106;stroke-linecap:round;stroke-miterlimit:4;stroke-dasharray:none;stroke-opacity:1"
         d="m 85.374128,97.071965 v -1.102569 h 0.390139 0.39014 v 1.102569 1.102568 h -0.39014 -0.390139 z"
         id="path2088" />
      <path
         style="opacity:0.999;fill:none;stroke:none;stroke-width:0.0641106;stroke-linecap:round;stroke-miterlimit:4;stroke-dasharray:none;stroke-opacity:1"
         d="m 85.624165,98.931581 c -0.113615,-0.04235 -0.114336,-0.04409 -0.114336,-0.275691 v -0.209955 h 0.245957 0.245958 v 0.167095 c 0,0.199124 -0.01955,0.265625 -0.08856,0.301315 -0.07213,0.0373 -0.212692,0.04568 -0.289018,0.01724 z"
         id="path2090" />
      <path
         style="opacity:0.999;fill:none;stroke:none;stroke-width:0.329196;stroke-linecap:round;stroke-miterlimit:4;stroke-dasharray:none;stroke-opacity:1"
         d="m 76.199606,106.14974 v -0.71132 h 3.004947 3.004947 v 0.71132 0.71132 h -3.004947 -3.004947 z"
         id="path2177" />
      <path
         style="opacity:0.999;fill:none;stroke:none;stroke-width:0.329196;stroke-linecap:round;stroke-miterlimit:4;stroke-dasharray:none;stroke-opacity:1"
         d="m 77.506104,104.81421 v -0.36292 h 1.698449 1.698448 v 0.36292 0.36291 h -1.698448 -1.698449 z"
         id="path2179" />
      <path
         style="opacity:0.999;fill:none;stroke:none;stroke-width:0.329196;stroke-linecap:round;stroke-miterlimit:4;stroke-dasharray:none;stroke-opacity:1"
         d="m 78.493237,103.54785 v -0.64214 l 0.544374,0.52349 c 0.299406,0.28793 0.59602,0.57689 0.659142,0.64214 l 0.114767,0.11865 h -0.659141 -0.659142 z"
         id="path2181" />
      <path
         style="opacity:0.999;fill:none;stroke:none;stroke-width:0.329196;stroke-linecap:round;stroke-miterlimit:4;stroke-dasharray:none;stroke-opacity:1"
         d="m 79.197072,103.36958 c -0.387109,-0.38735 -0.703835,-0.71734 -0.703835,-0.73331 0,-0.016 0.320092,-0.34893 0.711316,-0.73991 l 0.711316,-0.71087 v 1.44418 c 0,0.7943 -0.0034,1.44419 -0.0075,1.44419 -0.0041,0 -0.324206,-0.31693 -0.711316,-0.70428 z"
         id="path2183" />
      <path
         style="opacity:0.999;fill:none;stroke:none;stroke-width:0.329196;stroke-linecap:round;stroke-miterlimit:4;stroke-dasharray:none;stroke-opacity:1"
         d="m 78.494315,101.66409 c -6.63e-4,-0.40719 -0.0092,-1.06697 -0.01896,-1.46618 l -0.01775,-0.725831 0.729133,0.725611 c 0.401023,0.39909 0.729133,0.73509 0.729133,0.74667 0,0.0116 -0.319579,0.34483 -0.710175,0.74057 l -0.710176,0.71951 z"
         id="path2185" />
      <path
         style="opacity:0.999;fill:none;stroke:none;stroke-width:0.329196;stroke-linecap:round;stroke-miterlimit:4;stroke-dasharray:none;stroke-opacity:1"
         d="m 79.182558,99.958171 -0.718359,-0.71879 0.725835,-0.725399 0.725835,-0.7254 v 1.44419 c 0,0.794308 -0.0034,1.444188 -0.0075,1.444188 -0.0041,0 -0.330738,-0.32345 -0.725835,-0.718789 z"
         id="path2187" />
      <path
         style="opacity:0.999;fill:none;stroke:none;stroke-width:0.329196;stroke-linecap:round;stroke-miterlimit:4;stroke-dasharray:none;stroke-opacity:1"
         d="m 78.464203,97.555881 v -1.480264 l 0.725833,0.725398 c 0.399208,0.398968 0.725833,0.738658 0.725833,0.754866 0,0.01621 -0.326625,0.355897 -0.725833,0.754866 l -0.725833,0.725397 z"
         id="path2189" />
      <path
         style="opacity:0.999;fill:none;stroke:none;stroke-width:0.329196;stroke-linecap:round;stroke-miterlimit:4;stroke-dasharray:none;stroke-opacity:1"
         d="m 79.233586,96.641331 -0.667293,-0.667766 h 0.674788 0.674788 v 0.667766 c 0,0.367272 -0.0034,0.667766 -0.0075,0.667766 -0.0041,0 -0.307777,-0.300494 -0.674788,-0.667766 z"
         id="path2191" />
      <path
         style="opacity:0.999;fill:none;stroke:none;stroke-width:0.329196;stroke-linecap:round;stroke-miterlimit:4;stroke-dasharray:none;stroke-opacity:1"
         d="m 74.66084,95.249849 v -0.453526 l 6.488944,-0.0063 6.488945,-0.0063 v 0.463357 0.463358 l -6.488945,-0.0035 -6.488944,-0.0035 z"
         id="path2193" />
      <path
         style="opacity:0.999;fill:none;stroke:none;stroke-width:0.329196;stroke-linecap:round;stroke-miterlimit:4;stroke-dasharray:none;stroke-opacity:1"
         d="m 77.767404,94.1735 v -0.348399 h 1.379082 1.379082 v 0.348399 0.3484 h -1.379082 -1.379082 z"
         id="path2195" />
      <path
         style="opacity:0.999;fill:none;stroke:none;stroke-width:0.329196;stroke-linecap:round;stroke-miterlimit:4;stroke-dasharray:none;stroke-opacity:1"
         d="m 78.87067,92.910551 v -0.624216 h 0.290333 0.290333 v 0.624216 0.624216 H 79.161003 78.87067 Z"
         id="path2197" />
      <path
         style="opacity:0.999;fill:none;stroke:none;stroke-width:0.329196;stroke-linecap:round;stroke-miterlimit:4;stroke-dasharray:none;stroke-opacity:1"
         d="m 85.374131,97.076831 v -1.103266 h 0.391949 0.39195 v 1.103266 1.103266 h -0.39195 -0.391949 z"
         id="path2199" />
      <path
         style="opacity:0.999;fill:none;stroke:none;stroke-width:0.329196;stroke-linecap:round;stroke-miterlimit:4;stroke-dasharray:none;stroke-opacity:1"
         d="m 85.570105,98.903604 c -0.04119,-0.02399 -0.05081,-0.07052 -0.05081,-0.2459 v -0.216308 h 0.232267 0.232266 v 0.216729 c 0,0.184558 -0.0083,0.221189 -0.05616,0.246783 -0.07144,0.03824 -0.291056,0.03743 -0.357567,-0.0013 z"
         id="path2201" />
      <path
         style="opacity:0.999;fill:#ffffff;fill-opacity:1;stroke:#000000;stroke-width:0.05;stroke-linecap:round;stroke-miterlimit:4;stroke-dasharray:none;stroke-opacity:1"
         d="m 76.196394,106.15429 v -0.71494 h 3.004947 3.004947 v 0.71494 0.71495 h -3.004947 -3.004947 z"
         id="path2434" />
      <path
         style="opacity:0.999;fill:#ffffff;fill-opacity:1;stroke:#000000;stroke-width:0.05;stroke-linecap:round;stroke-miterlimit:4;stroke-dasharray:none;stroke-opacity:1"
         d="m 77.502893,104.82239 v -0.36292 h 1.698448 1.698449 v 0.36292 0.36291 h -1.698449 -1.698448 z"
         id="path2436" />
      <path
         style="opacity:0.999;fill:#ffffff;fill-opacity:1;stroke:#000000;stroke-width:0.05;stroke-linecap:round;stroke-miterlimit:4;stroke-dasharray:none;stroke-opacity:1"
         d="m 78.483384,103.74453 c -0.0055,-0.24951 -0.0079,-0.55004 -0.0053,-0.66786 l 0.0047,-0.21421 0.667707,0.66785 0.667707,0.66786 h -0.662406 -0.662406 z"
         id="path2438" />
      <path
         style="opacity:0.999;fill:#ffffff;fill-opacity:1;stroke:#000000;stroke-width:0.05;stroke-linecap:round;stroke-miterlimit:4;stroke-dasharray:none;stroke-opacity:1"
         d="m 79.18493,103.37521 c -0.478472,-0.47673 -0.709422,-0.71658 -0.709422,-0.73678 0,-0.0202 0.234617,-0.26452 0.718575,-0.74841 l 0.718574,-0.71846 v 1.45524 c 0,0.80038 -0.0041,1.45524 -0.0092,1.45524 -0.005,0 -0.328392,-0.31808 -0.718574,-0.70683 z"
         id="path2440" />
      <path
         style="opacity:0.999;fill:#ffffff;fill-opacity:1;stroke:#000000;stroke-width:0.05;stroke-linecap:round;stroke-miterlimit:4;stroke-dasharray:none;stroke-opacity:1"
         d="m 78.475508,100.93918 v -1.480585 l 0.718575,0.718465 c 0.629884,0.62979 0.718574,0.72385 0.718574,0.76212 0,0.0383 -0.08869,0.13234 -0.718574,0.76213 l -0.718575,0.71846 z"
         id="path2442" />
      <path
         style="opacity:0.999;fill:#ffffff;fill-opacity:1;stroke:#000000;stroke-width:0.05;stroke-linecap:round;stroke-miterlimit:4;stroke-dasharray:none;stroke-opacity:1"
         d="m 79.190399,99.984659 c -0.39319,-0.39325 -0.714891,-0.724799 -0.714891,-0.736775 0,-0.01198 0.323359,-0.345085 0.718575,-0.74024 l 0.718574,-0.718464 v 1.455239 c 0,0.800381 -0.0017,1.455241 -0.0037,1.455241 -0.002,0 -0.325385,-0.32175 -0.718574,-0.715001 z"
         id="path2444" />
      <path
         style="opacity:0.999;fill:#ffffff;fill-opacity:1;stroke:#000000;stroke-width:0.05;stroke-linecap:round;stroke-miterlimit:4;stroke-dasharray:none;stroke-opacity:1"
         d="m 78.470543,98.969989 c -0.0051,-0.03073 -0.0093,-0.696039 -0.0094,-1.478456 l -1.58e-4,-1.422578 0.725833,0.725724 c 0.572181,0.572095 0.725832,0.733429 0.725832,0.762125 0,0.02869 -0.151788,0.188166 -0.716441,0.752732 l -0.716441,0.716332 z"
         id="path2446" />
      <path
         style="opacity:0.999;fill:#ffffff;fill-opacity:1;stroke:#000000;stroke-width:0.05;stroke-linecap:round;stroke-miterlimit:4;stroke-dasharray:none;stroke-opacity:1"
         d="m 79.230374,96.634996 -0.674907,-0.675025 h 0.678595 0.678595 v 0.675025 c 0,0.371263 -0.0017,0.675024 -0.0037,0.675024 -0.002,0 -0.307397,-0.303761 -0.678596,-0.675024 z"
         id="path2448" />
      <path
         style="opacity:0.999;fill:#ffffff;fill-opacity:1;stroke:#000000;stroke-width:0.05;stroke-linecap:round;stroke-miterlimit:4;stroke-dasharray:none;stroke-opacity:1"
         d="m 78.551721,95.702301 -3.894092,-0.0037 V 95.24137 94.784122 h 6.496202 6.496202 v 0.464533 0.464533 l -2.60211,-0.0036 c -1.43116,-0.002 -4.354451,-0.0053 -6.496202,-0.0073 z"
         id="path2450" />
      <path
         style="opacity:0.999;fill:#ffffff;fill-opacity:1;stroke:#000000;stroke-width:0.05;stroke-linecap:round;stroke-miterlimit:4;stroke-dasharray:none;stroke-opacity:1"
         d="M 77.764192,94.159906 V 93.79699 h 1.386341 1.38634 v 0.362916 0.362917 h -1.38634 -1.386341 z"
         id="path2452" />
      <path
         style="opacity:0.999;fill:#ffffff;fill-opacity:1;stroke:#000000;stroke-width:0.05;stroke-linecap:round;stroke-miterlimit:4;stroke-dasharray:none;stroke-opacity:1"
         d="m 78.852942,92.911474 v -0.624216 h 0.297591 0.297591 v 0.624216 0.624216 h -0.297591 -0.297591 z"
         id="path2454" />
      <path
         style="opacity:0.999;fill:#ffffff;fill-opacity:1;stroke:#000000;stroke-width:0.05;stroke-linecap:round;stroke-miterlimit:4;stroke-dasharray:none;stroke-opacity:1"
         d="m 85.370919,97.077754 v -1.103266 h 0.39195 0.391949 v 1.103266 1.103265 h -0.391949 -0.39195 z"
         id="path2456" />
      <path
         style="opacity:0.999;fill:#ffffff;fill-opacity:1;stroke:#000000;stroke-width:0.05;stroke-linecap:round;stroke-miterlimit:4;stroke-dasharray:none;stroke-opacity:1"
         d="m 85.623652,98.935623 c -0.02467,-0.0076 -0.06223,-0.02999 -0.08347,-0.04967 -0.03827,-0.03547 -0.03861,-0.03757 -0.03861,-0.239712 v -0.203926 h 0.246783 0.246783 l -0.0014,0.185087 c -7.95e-4,0.101798 -0.0059,0.201194 -0.01142,0.220879 -0.01577,0.05657 -0.09173,0.09152 -0.210132,0.09669 -0.05699,0.0025 -0.123808,-0.0017 -0.148481,-0.0094 z"
         id="path2458" />
    </g>
  </g>
</svg>
