<?xml version="1.0" encoding="UTF-8" standalone="no"?>
<svg
   xmlns:dc="http://purl.org/dc/elements/1.1/"
   xmlns:cc="http://creativecommons.org/ns#"
   xmlns:rdf="http://www.w3.org/1999/02/22-rdf-syntax-ns#"
   xmlns:svg="http://www.w3.org/2000/svg"
   xmlns="http://www.w3.org/2000/svg"
   xmlns:sodipodi="http://sodipodi.sourceforge.net/DTD/sodipodi-0.dtd"
   xmlns:inkscape="http://www.inkscape.org/namespaces/inkscape"
   width="21.5mm"
   height="21.5mm"
   viewBox="0 0 21.5 21.5"
   version="1.1"
   id="svg858"
   inkscape:version="1.0.1 (3bc2e813f5, 2020-09-07)"
   sodipodi:docname="21_наука_легенда.svg">
  <defs
     id="defs852" />
  <sodipodi:namedview
     id="base"
     pagecolor="#ffffff"
     bordercolor="#666666"
     borderopacity="1.0"
     inkscape:pageopacity="0.0"
     inkscape:pageshadow="2"
     inkscape:zoom="7.9195959"
     inkscape:cx="35.124976"
     inkscape:cy="45.787901"
     inkscape:document-units="mm"
     inkscape:current-layer="layer1"
     inkscape:document-rotation="0"
     showgrid="false"
     inkscape:window-width="1710"
     inkscape:window-height="1030"
     inkscape:window-x="192"
     inkscape:window-y="0"
     inkscape:window-maximized="0"
     inkscape:snap-center="true" />
  <metadata
     id="metadata855">
    <rdf:RDF>
      <cc:Work
         rdf:about="">
        <dc:format>image/svg+xml</dc:format>
        <dc:type
           rdf:resource="http://purl.org/dc/dcmitype/StillImage" />
        <dc:title></dc:title>
      </cc:Work>
    </rdf:RDF>
  </metadata>
  <g
     inkscape:label="Слой 1"
     inkscape:groupmode="layer"
     id="layer1"
     transform="translate(-70.366302,-88.807899)">
    <circle
       style="opacity:0.999;fill:#ffffff;fill-opacity:1;stroke:#000000;stroke-width:1.5;stroke-linecap:round;stroke-miterlimit:4;stroke-dasharray:none;stroke-opacity:1"
       id="path1421"
       cx="81.116302"
       cy="99.557899"
       r="10" />
    <path
       style="overflow:hidden;fill:#000000;stroke-width:0.00342823"
       d="m 81.081537,107.05534 c -0.115906,-0.007 -0.241187,-0.0315 -0.356846,-0.0689 -0.792294,-0.25566 -1.479114,-1.18558 -1.968202,-2.66487 -0.02609,-0.0789 -0.07538,-0.23706 -0.107643,-0.34539 -0.0049,-0.0165 -0.01029,-0.03 -0.01194,-0.03 -0.0017,0 -0.03897,0.009 -0.08293,0.019 -0.504469,0.1201 -0.961795,0.19289 -1.398073,0.22254 -0.269023,0.0183 -0.592644,0.0156 -0.822774,-0.007 -0.57275,-0.0557 -1.018477,-0.22039 -1.340437,-0.49521 -0.05476,-0.0467 -0.148914,-0.14371 -0.193184,-0.19896 -0.250912,-0.31313 -0.357104,-0.71339 -0.308789,-1.16388 0.01969,-0.18358 0.06845,-0.39262 0.135567,-0.58125 l 0.01713,-0.0481 -0.01789,-0.0196 c -0.09237,-0.10099 -0.178359,-0.25611 -0.217693,-0.39267 -0.03087,-0.10717 -0.04022,-0.17335 -0.04055,-0.28682 -1.57e-4,-0.0528 0.0015,-0.10168 0.0042,-0.12341 0.03581,-0.28838 0.180452,-0.54105 0.407557,-0.71198 0.137926,-0.10381 0.301683,-0.172429 0.472507,-0.197989 0.135011,-0.0202 0.286775,-0.01119 0.42054,0.02496 l 0.03663,0.0099 0.0632,-0.0724 c 0.08248,-0.09449 0.163471,-0.183532 0.258381,-0.284092 l 0.07685,-0.08142 -0.07683,-0.08142 c -0.669551,-0.709537 -1.13247,-1.390494 -1.374434,-2.021799 -0.160637,-0.419117 -0.213124,-0.823848 -0.151381,-1.167311 0.04447,-0.247384 0.144331,-0.470212 0.29498,-0.65822 0.04427,-0.05525 0.138429,-0.152222 0.193184,-0.198959 0.205785,-0.17565 0.457071,-0.303998 0.765048,-0.390759 0.215948,-0.06083 0.436811,-0.09634 0.726231,-0.11675 0.08352,-0.0059 0.396919,-0.008 0.506138,-0.0035 0.483684,0.02022 0.999348,0.09663 1.566836,0.232174 0.04417,0.01055 0.08108,0.01841 0.08202,0.01746 9.45e-4,-9.45e-4 0.01477,-0.04534 0.03073,-0.09866 0.106743,-0.356615 0.226685,-0.690062 0.356212,-0.990291 0.109146,-0.252988 0.246021,-0.52293 0.369194,-0.728113 0.224422,-0.373847 0.472678,-0.674308 0.733076,-0.887229 0.434446,-0.355237 0.912363,-0.48068 1.388432,-0.364434 0.100752,0.0246 0.234489,0.074 0.330825,0.122206 0.242244,0.121207 0.485094,0.317874 0.698704,0.565828 0.02227,0.02585 0.04106,0.04699 0.04177,0.04699 6.75e-4,0 0.01252,-0.0024 0.02624,-0.0053 0.110308,-0.0232 0.240587,-0.02682 0.356032,-0.0099 0.301137,0.04419 0.565991,0.218064 0.730629,0.47965 0.07194,0.114307 0.122476,0.251177 0.143689,0.389176 0.04934,0.32096 -0.05485,0.647181 -0.280447,0.878128 l -0.03907,0.04 0.03478,0.102274 c 0.04034,0.118632 0.08653,0.263637 0.120424,0.378043 0.01309,0.0442 0.02452,0.08107 0.02538,0.08194 8.7e-4,8.7e-4 0.01895,-0.0026 0.0402,-0.0078 0.499293,-0.120606 0.950237,-0.195537 1.372206,-0.228012 0.182912,-0.01408 0.226905,-0.0156 0.450811,-0.01563 0.225743,-4e-5 0.267016,0.0015 0.423386,0.0156 0.632413,0.05706 1.120551,0.251582 1.444918,0.575801 0.34649,0.346334 0.486625,0.819008 0.406023,1.369518 -0.03512,0.239843 -0.111889,0.493185 -0.23115,0.76278 -0.197654,0.446801 -0.521891,0.942156 -0.939097,1.434714 -0.129899,0.15336 -0.290037,0.331078 -0.399009,0.442812 l -0.03734,0.03828 0.05986,0.06285 c 0.700255,0.735304 1.200277,1.482114 1.423629,2.126254 0.167655,0.48352 0.190438,0.91971 0.06752,1.29283 -0.0432,0.13115 -0.112269,0.26885 -0.18872,0.37626 -0.110035,0.15459 -0.251657,0.28995 -0.416329,0.39791 -0.223849,0.14675 -0.4942,0.25099 -0.819509,0.31596 -0.04118,0.008 -0.07524,0.0155 -0.07568,0.0161 -4.5e-4,6e-4 -0.0066,0.0178 -0.01368,0.0381 -0.119271,0.3428 -0.415162,0.60076 -0.771625,0.67269 -0.07447,0.015 -0.124829,0.0199 -0.207458,0.0199 -0.132293,0 -0.236519,-0.0186 -0.363392,-0.0649 -0.05126,-0.0187 -0.158609,-0.0734 -0.206951,-0.10558 -0.209295,-0.1391 -0.359194,-0.34433 -0.427163,-0.58482 -0.0076,-0.0271 -0.01427,-0.0495 -0.01472,-0.0498 -4.5e-4,-3.7e-4 -0.0417,-0.009 -0.09167,-0.0184 -0.105738,-0.0207 -0.290661,-0.0612 -0.401309,-0.0879 -0.04254,-0.0102 -0.07907,-0.0186 -0.08118,-0.0186 -0.0021,0 -0.0063,0.009 -0.0094,0.0197 -0.04192,0.14875 -0.144068,0.46253 -0.203939,0.62651 -0.363768,0.9963 -0.824324,1.71919 -1.345677,2.11216 -0.337989,0.25477 -0.701033,0.37404 -1.067583,0.35074 z m 0.195435,-0.68394 c 0.27102,-0.0371 0.557128,-0.23502 0.824717,-0.57051 0.342263,-0.42911 0.653288,-1.07469 0.895188,-1.8581 0.03324,-0.10763 0.05354,-0.17803 0.05183,-0.17973 -7.95e-4,-8e-4 -0.04154,-0.014 -0.09055,-0.0294 -0.521664,-0.16362 -1.112555,-0.39067 -1.671414,-0.64226 -0.06138,-0.0276 -0.112785,-0.0502 -0.114237,-0.0502 -0.0015,0 -0.05382,0.023 -0.116382,0.0511 -0.580317,0.26066 -1.14298,0.47605 -1.702724,0.65183 -0.03111,0.01 -0.05714,0.0183 -0.05783,0.0189 -0.0033,0.003 0.07863,0.2666 0.129964,0.41803 0.338821,0.99948 0.779815,1.717 1.247747,2.03015 0.146027,0.0977 0.294284,0.1535 0.440234,0.16563 0.04284,0.004 0.115406,0.001 0.163462,-0.005 z m -4.199918,-2.85854 c 0.352516,-0.0235 0.699411,-0.0731 1.083321,-0.15495 0.111357,-0.0237 0.304944,-0.0686 0.307644,-0.0713 8.93e-4,-8.9e-4 -0.007,-0.0407 -0.01749,-0.0884 -0.126738,-0.57538 -0.217426,-1.14868 -0.281587,-1.78012 -0.0067,-0.0659 -0.01252,-0.12 -0.01294,-0.12024 -0.0043,-0.002 -0.08049,-0.0573 -0.156753,-0.11275 -0.488277,-0.35499 -0.964658,-0.74307 -1.359162,-1.10723 l -0.04786,-0.0442 -0.03441,0.0356 c -0.07324,0.0758 -0.266366,0.28828 -0.292807,0.32214 l -0.0069,0.009 0.01181,0.0175 c 0.07742,0.11497 0.13699,0.27138 0.159544,0.41893 0.009,0.0587 0.01244,0.17946 0.0069,0.23999 -0.01883,0.20545 -0.09595,0.39858 -0.223126,0.5588 -0.03661,0.0461 -0.114967,0.12449 -0.161167,0.16119 -0.201027,0.15969 -0.454321,0.24099 -0.704501,0.22613 -0.03205,-0.002 -0.06644,-0.005 -0.07642,-0.006 -0.01514,-0.002 -0.01861,-0.002 -0.02099,0.003 -0.0052,0.0101 -0.03106,0.10008 -0.0448,0.15598 -0.05619,0.2287 -0.06199,0.43004 -0.01739,0.60304 0.04375,0.16967 0.142795,0.31562 0.289866,0.42713 0.237977,0.18043 0.605261,0.28595 1.086748,0.3122 0.08514,0.005 0.41841,0.002 0.51252,-0.005 z m 9.264887,-0.0739 c 0.133844,-0.0333 0.247707,-0.0747 0.354725,-0.12893 0.291912,-0.14798 0.446504,-0.3587 0.483963,-0.65967 0.0057,-0.0458 0.0057,-0.19483 0,-0.24512 -0.03567,-0.31493 -0.163271,-0.65565 -0.39222,-1.04732 -0.190304,-0.32556 -0.463934,-0.69309 -0.782327,-1.05079 -0.08593,-0.0965 -0.247975,-0.27142 -0.252203,-0.27218 -9.45e-4,-1.5e-4 -0.02717,0.023 -0.05828,0.0516 -0.442528,0.40581 -0.930525,0.7993 -1.478155,1.19189 l -0.02973,0.0213 -0.0021,0.0214 c -0.0679,0.69017 -0.162953,1.3018 -0.293087,1.88598 -0.0096,0.0432 -0.01695,0.079 -0.01629,0.0797 0.0041,0.004 0.273612,0.0647 0.407981,0.0917 l 0.07475,0.015 0.01399,-0.0278 c 0.0765,-0.15226 0.202265,-0.29247 0.351206,-0.39154 0.04831,-0.0321 0.155019,-0.0865 0.208071,-0.10592 0.120006,-0.044 0.235161,-0.0644 0.363985,-0.0644 0.08088,0 0.132338,0.005 0.205744,0.0198 0.329177,0.0664 0.612402,0.29575 0.744142,0.60254 0.01038,0.0242 0.01429,0.03 0.02012,0.03 0.004,0 0.03805,-0.008 0.0757,-0.017 z m -7.126826,-0.3633 c 0.3188,-0.10193 0.626233,-0.21283 0.950774,-0.34297 0.150012,-0.0602 0.206033,-0.0832 0.2048,-0.0843 -4.5e-4,-3.7e-4 -0.04402,-0.0235 -0.09681,-0.0513 -0.445959,-0.23494 -0.845253,-0.46528 -1.272494,-0.73407 -0.05502,-0.0346 -0.101094,-0.0629 -0.102385,-0.0629 -0.003,0 -0.0016,0.0112 0.02113,0.17313 0.05109,0.36376 0.112864,0.71098 0.185261,1.04132 0.01064,0.0485 0.02052,0.0883 0.02196,0.0883 0.0014,0 0.04093,-0.0122 0.08776,-0.0272 z m 4.005326,0.026 c 0,-6.7e-4 0.0078,-0.0365 0.0173,-0.0797 0.07461,-0.33862 0.149862,-0.76635 0.196853,-1.11896 0.0067,-0.05 0.01267,-0.0944 0.01337,-0.0987 0.0012,-0.007 6.75e-4,-0.007 -0.006,-0.003 -0.004,0.003 -0.04274,0.0271 -0.08611,0.0545 -0.392965,0.24789 -0.821004,0.49595 -1.220449,0.70729 -0.05279,0.0279 -0.111032,0.0588 -0.129414,0.0685 l -0.03342,0.0177 0.02143,0.009 c 0.447222,0.18156 0.684485,0.26978 1.032753,0.38397 0.20004,0.0656 0.193694,0.0636 0.193694,0.0598 z m -1.888954,-0.88918 c 0.561473,-0.27575 1.166702,-0.61625 1.715302,-0.96503 0.129251,-0.0822 0.33761,-0.21869 0.429056,-0.28113 l 0.06171,-0.0421 0.0024,-0.0265 c 0.004,-0.0445 0.01956,-0.28977 0.02489,-0.39339 0.03326,-0.646237 0.03209,-1.319088 -0.0034,-1.954088 -0.0057,-0.101422 -0.01813,-0.293039 -0.02163,-0.33253 l -0.0023,-0.0257 -0.07199,-0.04904 c -0.527974,-0.359613 -1.178035,-0.746109 -1.79982,-1.070088 -0.106022,-0.05524 -0.438684,-0.221696 -0.475225,-0.237788 l -0.01927,-0.0085 -0.133286,0.06566 c -0.656113,0.323237 -1.257731,0.664072 -1.864699,1.056408 -0.137748,0.08904 -0.365276,0.241811 -0.36669,0.246212 -0.0019,0.0061 -0.01818,0.259629 -0.0256,0.399913 -0.0065,0.122102 -0.01038,0.212682 -0.01753,0.404531 -0.0057,0.152448 -0.0079,0.771939 -0.0035,0.958191 0.0075,0.315529 0.02077,0.602379 0.04081,0.884479 l 0.0058,0.0823 0.156554,0.10456 c 0.540181,0.36078 1.083444,0.6829 1.672406,0.99161 0.09088,0.0476 0.440657,0.22343 0.514164,0.25842 l 0.02221,0.0106 0.02064,-0.009 c 0.01135,-0.005 0.07386,-0.0356 0.138914,-0.0675 z m -0.234834,-0.95957 c -0.387972,-0.0213 -0.742388,-0.16218 -1.030691,-0.40959 -0.04866,-0.0418 -0.140588,-0.1337 -0.181321,-0.18135 -0.37578,-0.4396 -0.502243,-1.039376 -0.335763,-1.592416 0.122703,-0.407611 0.391296,-0.751309 0.757569,-0.969402 0.05181,-0.03085 0.154626,-0.08259 0.212463,-0.106916 0.370809,-0.155966 0.792178,-0.173034 1.177182,-0.04769 0.258156,0.08405 0.483249,0.221815 0.674196,0.412634 0.217481,0.217335 0.372867,0.491057 0.446645,0.786791 0.03591,0.143936 0.05042,0.263268 0.05038,0.414456 -5.9e-5,0.269202 -0.05877,0.516223 -0.180564,0.759713 -0.123743,0.24738 -0.2954,0.44917 -0.522772,0.61456 -0.239,0.17384 -0.532312,0.28428 -0.830779,0.31279 -0.05468,0.005 -0.190976,0.009 -0.236548,0.006 z m -3.004558,-0.93258 c -0.01072,-0.25144 -0.01228,-0.349081 -0.01227,-0.765681 0,-0.417635 0.0013,-0.498122 0.01232,-0.757058 0.002,-0.04776 0.003,-0.08754 0.0021,-0.08841 -0.0037,-0.0037 -0.319823,0.246366 -0.485832,0.384425 -0.202343,0.168276 -0.527947,0.454693 -0.527947,0.464407 0,0.0063 0.224273,0.206859 0.383961,0.343289 0.20013,0.170978 0.624069,0.511408 0.629766,0.505718 8.33e-4,-8.4e-4 -1.5e-4,-0.0398 -0.0021,-0.0867 z m 6.252191,0.017 c 0.302616,-0.23484 0.61371,-0.495997 0.865235,-0.726344 l 0.05727,-0.05245 -0.02813,-0.02647 c -0.09892,-0.09306 -0.315541,-0.282332 -0.484087,-0.422972 -0.173972,-0.145169 -0.500211,-0.40436 -0.504085,-0.400486 -7.8e-4,7.8e-4 4e-5,0.03527 0.0018,0.07663 0.01169,0.270918 0.01854,0.672784 0.01563,0.916845 -0.0031,0.258497 -0.01134,0.573177 -0.01766,0.672787 -0.0012,0.0184 -0.0011,0.0334 2.25e-4,0.0334 0.0013,0 0.04349,-0.0319 0.09379,-0.071 z m -7.678613,-1.322598 c 0.419643,-0.3847 0.908211,-0.779229 1.421961,-1.148262 0.03636,-0.02612 0.06689,-0.04875 0.06785,-0.05031 9.6e-4,-0.0016 0.0071,-0.05571 0.01367,-0.120342 0.06316,-0.622636 0.163546,-1.255319 0.284519,-1.793143 0.0084,-0.03728 0.01525,-0.06916 0.01525,-0.07085 0,-0.0054 -0.238786,-0.06038 -0.41653,-0.09591 -0.389492,-0.07785 -0.743686,-0.12296 -1.081607,-0.137763 -0.102065,-0.0045 -0.383497,-0.0023 -0.461096,0.0036 -0.27044,0.02044 -0.469171,0.05636 -0.654791,0.118362 -0.515694,0.172239 -0.743185,0.503394 -0.688861,1.002759 0.0477,0.43849 0.304316,0.975819 0.750955,1.572434 0.176222,0.235394 0.394354,0.492016 0.621076,0.730664 0.04597,0.04839 0.05373,0.05521 0.05852,0.05142 0.003,-0.0024 0.03413,-0.03059 0.06909,-0.06265 z m 9.119866,0.03343 c 0.04739,-0.04862 0.131142,-0.139333 0.206529,-0.223693 0.667767,-0.747249 1.076958,-1.447541 1.17387,-2.008976 0.01461,-0.08465 0.01894,-0.13605 0.01907,-0.226229 2.25e-4,-0.124142 -0.01117,-0.203264 -0.04294,-0.299704 -0.113362,-0.344153 -0.447589,-0.562039 -1.002489,-0.653539 -0.256261,-0.04226 -0.590907,-0.05267 -0.925621,-0.0288 -0.380036,0.0271 -0.789543,0.09242 -1.23405,0.196837 -0.05625,0.01321 -0.102913,0.02466 -0.103692,0.02544 -7.8e-4,7.8e-4 0.0063,0.0359 0.01576,0.07805 0.11997,0.5352 0.220322,1.163673 0.279647,1.751322 0.0068,0.06694 0.01341,0.130049 0.01479,0.14025 l 0.0025,0.01855 0.111418,0.08048 c 0.501856,0.362522 0.987087,0.756065 1.39514,1.131524 0.03103,0.02855 0.05666,0.05191 0.05695,0.05191 3e-4,0 0.01519,-0.01504 0.03311,-0.03342 z m -2.337583,-1.736399 c -6.75e-4,-0.0042 -0.0082,-0.05939 -0.01678,-0.122559 -0.03861,-0.284934 -0.08967,-0.588503 -0.147335,-0.875912 -0.02632,-0.131163 -0.06209,-0.296381 -0.06475,-0.29904 -0.0022,-0.0022 -0.04445,0.01099 -0.202625,0.06323 -0.348439,0.115067 -0.616336,0.214885 -1.031099,0.384186 l -0.01291,0.0053 0.03348,0.01774 c 0.01842,0.0098 0.07668,0.04059 0.129475,0.06853 0.407558,0.215626 0.84487,0.469548 1.241019,0.720587 0.0396,0.02509 0.07216,0.04564 0.07237,0.04565 2.25e-4,4e-5 -1.5e-4,-0.0034 -8.47e-4,-0.0077 z m -4.46874,-0.04494 c 0.385909,-0.244654 0.835396,-0.505123 1.243239,-0.720433 0.05657,-0.02986 0.113333,-0.05998 0.126151,-0.06693 l 0.0233,-0.01264 -0.114233,-0.0466 c -0.334355,-0.13638 -0.680635,-0.263182 -0.996839,-0.365027 -0.06505,-0.02095 -0.122261,-0.03905 -0.127133,-0.04022 l -0.0089,-0.0021 -0.01791,0.08165 c -0.07413,0.337896 -0.146581,0.74903 -0.195783,1.111016 -0.01448,0.106519 -0.0149,0.11052 -0.01164,0.11052 0.0011,0 0.037,-0.02215 0.07971,-0.04922 z m 2.307526,-1.242035 c 0.580146,-0.261165 1.199271,-0.497508 1.732291,-0.661281 0.0165,-0.0051 0.03,-0.01105 0.03,-0.01329 0,-0.01185 -0.102839,-0.340599 -0.134125,-0.428756 l -0.01368,-0.03855 -0.0778,-3.9e-5 c -0.08424,-4e-5 -0.140148,-0.0052 -0.211254,-0.01962 -0.277899,-0.05627 -0.520659,-0.225404 -0.67428,-0.469784 -0.07892,-0.125549 -0.130365,-0.272875 -0.149139,-0.427109 -0.0067,-0.05512 -0.0076,-0.1737 -0.0017,-0.225968 0.02157,-0.19104 0.09173,-0.37005 0.201845,-0.514971 l 0.01749,-0.02302 -0.04564,-0.04897 c -0.120105,-0.12887 -0.264041,-0.242691 -0.392713,-0.310542 -0.137384,-0.07245 -0.258754,-0.104496 -0.39596,-0.10456 -0.168616,-8.3e-5 -0.326853,0.05264 -0.496442,0.165413 -0.279718,0.186001 -0.548346,0.513637 -0.798983,0.974496 -0.168848,0.310468 -0.324605,0.678699 -0.465181,1.099752 -0.04336,0.129886 -0.11635,0.36392 -0.11635,0.373086 0,0.0016 0.02892,0.01178 0.06428,0.0227 0.101765,0.03142 0.35903,0.117367 0.480809,0.160631 0.406854,0.14454 0.828494,0.314496 1.227306,0.494708 0.05562,0.02514 0.102596,0.04575 0.104383,0.04581 0.0018,5.9e-5 0.05347,-0.0225 0.114846,-0.05013 z"
       id="path887" />
  </g>
</svg>
