<?xml version="1.0" encoding="UTF-8" standalone="no"?>
<svg
   xmlns:dc="http://purl.org/dc/elements/1.1/"
   xmlns:cc="http://creativecommons.org/ns#"
   xmlns:rdf="http://www.w3.org/1999/02/22-rdf-syntax-ns#"
   xmlns:svg="http://www.w3.org/2000/svg"
   xmlns="http://www.w3.org/2000/svg"
   xmlns:sodipodi="http://sodipodi.sourceforge.net/DTD/sodipodi-0.dtd"
   xmlns:inkscape="http://www.inkscape.org/namespaces/inkscape"
   width="21.5mm"
   height="21.5mm"
   viewBox="0 0 21.5 21.5"
   version="1.1"
   id="svg858"
   inkscape:version="1.0.1 (3bc2e813f5, 2020-09-07)"
   sodipodi:docname="22_фарма_легенда.svg">
  <defs
     id="defs852" />
  <sodipodi:namedview
     id="base"
     pagecolor="#ffffff"
     bordercolor="#666666"
     borderopacity="1.0"
     inkscape:pageopacity="0.0"
     inkscape:pageshadow="2"
     inkscape:zoom="5.6"
     inkscape:cx="53.879912"
     inkscape:cy="29.979274"
     inkscape:document-units="mm"
     inkscape:current-layer="layer1"
     inkscape:document-rotation="0"
     showgrid="false"
     inkscape:window-width="1710"
     inkscape:window-height="1030"
     inkscape:window-x="192"
     inkscape:window-y="0"
     inkscape:window-maximized="0"
     inkscape:snap-center="true" />
  <metadata
     id="metadata855">
    <rdf:RDF>
      <cc:Work
         rdf:about="">
        <dc:format>image/svg+xml</dc:format>
        <dc:type
           rdf:resource="http://purl.org/dc/dcmitype/StillImage" />
        <dc:title></dc:title>
      </cc:Work>
    </rdf:RDF>
  </metadata>
  <g
     inkscape:label="Слой 1"
     inkscape:groupmode="layer"
     id="layer1"
     transform="translate(-70.366302,-88.807899)">
    <circle
       style="opacity:0.999;fill:#ffffff;fill-opacity:1;stroke:#000000;stroke-width:1.5;stroke-linecap:round;stroke-miterlimit:4;stroke-dasharray:none;stroke-opacity:1"
       id="path1421"
       cx="81.116302"
       cy="99.557899"
       r="10" />
    <path
       style="overflow:hidden;fill:#000000;stroke-width:0.0130561"
       d="m 78.722312,107.04659 c 0,-0.0246 0.05601,-0.0591 0.114302,-0.0703 0.03408,-0.007 0.123646,-0.0198 0.199045,-0.0294 0.141105,-0.018 0.356854,-0.0477 0.574469,-0.079 0.156572,-0.0225 0.319479,-0.053 0.378542,-0.0707 0.02509,-0.008 0.06733,-0.0137 0.09389,-0.0137 0.02655,0 0.05149,-0.005 0.05541,-0.0115 0.0039,-0.006 0.03512,-0.0156 0.06931,-0.0206 0.0342,-0.005 0.08862,-0.0171 0.12093,-0.027 0.130816,-0.0401 0.199977,-0.0584 0.221277,-0.0584 0.01234,0 0.02622,-0.004 0.03084,-0.008 0.01068,-0.0107 0.155232,-0.0698 0.170861,-0.0699 0.0064,0 0.03729,-0.021 0.06855,-0.0466 l 0.05683,-0.0466 v -0.26475 c 0,-0.23991 0.0022,-0.26678 0.02388,-0.28636 0.01313,-0.0119 0.03663,-0.0216 0.05222,-0.0216 0.01559,0 0.02835,-0.005 0.02835,-0.0116 0,-0.006 0.02129,-0.0156 0.0473,-0.0205 0.02602,-0.005 0.05686,-0.0139 0.06855,-0.02 0.07858,-0.0411 0.136147,-0.0655 0.155467,-0.0658 0.01235,-2.3e-4 0.03372,-0.009 0.04749,-0.0194 0.05518,-0.0417 0.05981,-0.0141 0.06002,0.35757 1.5e-4,0.19121 0.0045,0.35381 0.0098,0.36134 0.02765,0.0395 0.112732,0.0853 0.23481,0.12651 0.02334,0.008 0.04243,0.0192 0.04243,0.0252 0,0.006 0.0127,0.0109 0.02823,0.0109 0.01553,0 0.06106,0.009 0.101185,0.0205 0.178171,0.0501 0.207194,0.0578 0.268799,0.0714 0.0359,0.008 0.09172,0.019 0.124032,0.0246 0.115,0.0199 0.281312,0.0539 0.319876,0.0654 0.02154,0.006 0.08029,0.0153 0.130561,0.0199 0.05027,0.005 0.117832,0.0136 0.150145,0.0201 0.03231,0.007 0.114568,0.0189 0.182786,0.0274 0.5094,0.0636 0.521499,0.0661 0.548747,0.11707 0.01343,0.0251 -0.01334,0.0254 -2.382673,0.0254 -1.317942,0 -2.396258,-0.005 -2.396258,-0.011 z m 0.918984,-0.7836 c 0.02073,-0.014 0.06186,-0.0358 0.09139,-0.0483 0.02953,-0.0125 0.08307,-0.0359 0.118977,-0.0519 0.0359,-0.016 0.09466,-0.042 0.130562,-0.0577 0.0359,-0.0157 0.09466,-0.0423 0.130561,-0.0592 0.0359,-0.0168 0.124033,-0.0582 0.195842,-0.0919 0.07181,-0.0337 0.174626,-0.082 0.228482,-0.10723 0.135926,-0.0638 0.563224,-0.27817 0.665862,-0.33411 0.04668,-0.0254 0.111304,-0.0598 0.143618,-0.0764 0.03231,-0.0166 0.06169,-0.0332 0.06528,-0.0369 0.0036,-0.004 0.02122,-0.0141 0.03917,-0.023 0.01795,-0.009 0.05027,-0.0278 0.07181,-0.042 0.02154,-0.0142 0.04798,-0.0299 0.05875,-0.0348 0.01077,-0.005 0.02252,-0.0124 0.02611,-0.0165 0.01011,-0.0116 0.08959,-0.0662 0.09633,-0.0662 0.01216,0 0.122817,-0.10168 0.256174,-0.23538 0.152665,-0.15306 0.190371,-0.1968 0.202443,-0.23483 0.0045,-0.0143 0.01371,-0.0259 0.0204,-0.0259 0.0067,0 0.01218,-0.0104 0.01218,-0.0232 0,-0.0128 0.0096,-0.0369 0.02123,-0.0535 0.01377,-0.0197 0.02147,-0.0585 0.02191,-0.11062 9e-4,-0.10475 -0.03927,-0.17051 -0.148343,-0.24297 -0.04369,-0.029 -0.08254,-0.0528 -0.08633,-0.0528 -0.0038,0 -0.02541,-0.008 -0.04804,-0.0181 -0.0738,-0.0325 -0.28239,-0.0899 -0.393657,-0.10819 l -0.06528,-0.0108 -0.0036,-0.17953 -0.0036,-0.17952 h 0.05835 c 0.03209,0 0.06198,0.006 0.06642,0.0131 0.0044,0.007 0.02232,0.0131 0.03974,0.0131 0.01742,0 0.08317,0.0153 0.146111,0.034 0.06294,0.0187 0.13794,0.0396 0.166663,0.0464 0.212051,0.0504 0.353771,0.12276 0.472334,0.24107 0.07026,0.0701 0.105375,0.11843 0.140353,0.19314 0.04345,0.0928 0.04665,0.10833 0.04665,0.22639 0,0.10115 -0.0059,0.14132 -0.02925,0.19882 -0.01609,0.0396 -0.03225,0.075 -0.0359,0.0786 -0.0037,0.004 -0.01822,0.0292 -0.03237,0.057 -0.01415,0.0278 -0.03324,0.0534 -0.04243,0.0569 -0.0092,0.004 -0.01677,0.0131 -0.01684,0.0213 -1.5e-4,0.015 -0.16141,0.17813 -0.176089,0.17813 -0.0043,0 -0.02076,0.0132 -0.03657,0.0294 -0.02973,0.0304 -0.107689,0.0881 -0.118962,0.0881 -0.0035,0 -0.03252,0.0176 -0.06444,0.0392 -0.03192,0.0215 -0.06404,0.0392 -0.07138,0.0392 -0.0073,0 -0.0153,0.005 -0.01769,0.0105 -0.0057,0.0139 -0.348381,0.1853 -0.370355,0.1853 -0.0093,0 -0.01893,0.005 -0.02133,0.0102 -0.0024,0.006 -0.04254,0.0269 -0.08922,0.0474 -0.134592,0.0591 -0.225703,0.10069 -0.263137,0.12022 -0.01906,0.01 -0.04403,0.0181 -0.05549,0.0181 -0.01146,0 -0.02083,0.006 -0.02083,0.0131 0,0.007 -0.0059,0.0131 -0.0132,0.0131 -0.0073,0 -0.04104,0.0124 -0.07507,0.0276 -0.03403,0.0152 -0.08244,0.0362 -0.10757,0.0467 -0.02513,0.0105 -0.06332,0.0268 -0.08487,0.0362 -0.106905,0.0469 -0.139461,0.0592 -0.156029,0.0592 -0.0099,0 -0.02001,0.004 -0.0224,0.01 -0.006,0.0135 -0.143325,0.0685 -0.171071,0.0685 -0.01243,0 -0.0226,0.006 -0.0226,0.0131 0,0.007 -0.0092,0.0131 -0.02043,0.0131 -0.01867,0 -0.09095,0.0269 -0.196971,0.0734 -0.02263,0.01 -0.05347,0.018 -0.06854,0.018 -0.01507,0 -0.0274,0.004 -0.0274,0.0101 0,0.006 -0.04259,0.0242 -0.09466,0.0415 -0.05206,0.0173 -0.100533,0.0356 -0.107714,0.0406 -0.0072,0.005 -0.03362,0.0135 -0.05875,0.0187 -0.02513,0.005 -0.05157,0.0142 -0.05875,0.02 -0.01981,0.0158 -0.162932,0.0615 -0.221954,0.0709 l -0.05222,0.008 z m 1.232329,-1.98958 c -0.002,-0.69116 -0.0019,-1.26289 1.5e-4,-1.27052 0.0053,-0.0198 0.0752,-0.0417 0.166012,-0.052 0.04308,-0.005 0.110416,-0.017 0.149624,-0.027 0.03921,-0.01 0.09576,-0.0181 0.125672,-0.0181 h 0.05438 l -0.0062,1.17832 -0.0062,1.17831 -0.04118,0.0353 c -0.02265,0.0194 -0.06174,0.0459 -0.08687,0.0588 -0.02513,0.0129 -0.04863,0.0265 -0.05222,0.0302 -0.0036,0.004 -0.02122,0.0142 -0.03917,0.0234 -0.01795,0.009 -0.04451,0.0237 -0.05902,0.0324 -0.119704,0.0717 -0.151408,0.0876 -0.174736,0.0876 -0.02673,0 -0.02674,-1.5e-4 -0.03032,-1.25665 z m -0.185514,-0.25648 c -0.004,-0.006 -0.02929,-0.0144 -0.05626,-0.0177 -0.06786,-0.008 -0.230884,-0.0534 -0.23618,-0.0653 -0.0024,-0.005 -0.01667,-0.01 -0.03172,-0.01 -0.03211,0 -0.193288,-0.0514 -0.21134,-0.0674 -0.0068,-0.006 -0.02151,-0.011 -0.03264,-0.0111 -0.01113,-4e-5 -0.03706,-0.009 -0.05763,-0.0196 -0.02057,-0.0107 -0.04292,-0.0195 -0.04966,-0.0195 -0.02096,0 -0.351875,-0.16669 -0.363376,-0.18305 -0.0036,-0.005 -0.01828,-0.013 -0.03264,-0.0174 -0.01436,-0.004 -0.04201,-0.0229 -0.06145,-0.0409 -0.01943,-0.018 -0.03868,-0.0328 -0.04278,-0.0328 -0.0041,0 -0.02638,-0.0172 -0.04953,-0.0382 -0.02315,-0.021 -0.05738,-0.0519 -0.07608,-0.0685 -0.05238,-0.0468 -0.138136,-0.16196 -0.174628,-0.23462 -0.0448,-0.0892 -0.04658,-0.23218 -0.0039,-0.31403 0.03204,-0.0615 0.164398,-0.20631 0.188528,-0.20631 0.0084,0 0.01727,-0.004 0.01967,-0.01 0.009,-0.0203 0.100955,-0.075 0.18061,-0.10741 0.01795,-0.007 0.04145,-0.0186 0.05222,-0.0251 0.01077,-0.007 0.04602,-0.0219 0.07834,-0.0342 0.03231,-0.0124 0.0705,-0.027 0.08486,-0.0326 0.02618,-0.0102 0.142898,-0.0484 0.228483,-0.0749 0.02513,-0.008 0.06626,-0.0181 0.09139,-0.023 0.02513,-0.005 0.07213,-0.0165 0.104449,-0.0257 0.08033,-0.023 0.18092,-0.0457 0.26372,-0.0595 0.03807,-0.006 0.122089,-0.0208 0.186716,-0.0322 0.06463,-0.0114 0.167445,-0.0287 0.228483,-0.0384 0.206379,-0.033 0.280568,-0.0484 0.321848,-0.067 0.02263,-0.0102 0.05275,-0.0185 0.06695,-0.0185 0.01419,0 0.0469,-0.009 0.07268,-0.0196 0.02578,-0.0108 0.06175,-0.0196 0.07993,-0.0196 0.01818,0 0.03306,-0.006 0.03306,-0.0131 0,-0.007 0.0092,-0.0131 0.02043,-0.0131 0.03412,0 0.300446,-0.11646 0.342506,-0.14978 0.07355,-0.0583 0.08601,-0.0977 0.03854,-0.12194 -0.03527,-0.018 -0.177886,-0.0414 -0.253527,-0.0415 -0.100952,-1.5e-4 -0.09573,0.0155 -0.09573,-0.28713 0,-0.32245 -0.0046,-0.31202 0.127784,-0.28978 0.0482,0.008 0.134191,0.0182 0.191086,0.0223 0.05689,0.004 0.11379,0.0132 0.126438,0.0199 0.01265,0.007 0.03974,0.0123 0.06021,0.0123 0.02047,0 0.07065,0.0118 0.11151,0.0261 0.04086,0.0144 0.08325,0.0261 0.0942,0.0261 0.01095,0 0.01991,0.006 0.01991,0.0131 0,0.007 0.011,0.0131 0.02445,0.0131 0.05342,0 0.255772,0.1078 0.31112,0.16574 0.01581,0.0165 0.03225,0.0301 0.03653,0.0301 0.0081,0 0.04637,0.0396 0.09139,0.0944 0.106727,0.13003 0.152961,0.35478 0.10316,0.50146 -0.02006,0.0591 -0.0664,0.13707 -0.08684,0.14615 -0.0054,0.002 -0.0098,0.01 -0.0098,0.0169 0,0.0229 -0.140736,0.14242 -0.227059,0.19281 -0.02951,0.0172 -0.06246,0.0381 -0.07323,0.0465 -0.01077,0.008 -0.04602,0.0259 -0.07834,0.039 -0.03231,0.0131 -0.07932,0.0321 -0.10445,0.0423 -0.02513,0.0102 -0.06129,0.027 -0.08035,0.0374 -0.01906,0.0104 -0.04662,0.0189 -0.06125,0.0189 -0.01463,0 -0.02991,0.005 -0.03396,0.0119 -0.004,0.007 -0.03231,0.016 -0.06279,0.0211 -0.03048,0.005 -0.0613,0.0135 -0.06848,0.0189 -0.0072,0.005 -0.07181,0.0226 -0.143617,0.0384 -0.07181,0.0157 -0.151125,0.0337 -0.176258,0.04 -0.05889,0.0148 -0.330352,0.063 -0.398212,0.0707 -0.08903,0.0101 -0.296754,0.0433 -0.372099,0.0595 -0.03949,0.009 -0.110838,0.0238 -0.158542,0.0341 -0.0477,0.0103 -0.10464,0.0188 -0.126526,0.0188 -0.02189,0 -0.04295,0.005 -0.0468,0.0113 -0.0039,0.006 -0.02917,0.015 -0.05626,0.0195 -0.06592,0.0109 -0.286037,0.0813 -0.342656,0.10969 -0.05194,0.026 -0.06701,0.0367 -0.113349,0.0802 -0.05387,0.0506 -0.03084,0.12554 0.05539,0.18036 0.05657,0.036 0.213269,0.10737 0.292616,0.13335 0.04668,0.0153 0.09661,0.033 0.110977,0.0393 0.02761,0.0122 0.111157,0.0349 0.19234,0.0521 0.08683,0.0184 0.08837,0.0224 0.08837,0.2299 0,0.10265 -0.0036,0.19594 -0.0079,0.2073 -0.0085,0.0222 -0.05113,0.0282 -0.06303,0.009 z m 0.18333,-1.95434 c -0.0044,-0.0114 -0.0079,-0.38033 -0.0079,-0.81993 0,-0.82223 5.29e-4,-0.8306 0.05014,-0.8306 0.01034,0 0.04295,-0.0112 0.07246,-0.0249 0.09376,-0.0435 0.148685,-0.0665 0.159219,-0.0665 0.01008,0 0.10795,-0.0426 0.152117,-0.0662 0.01247,-0.007 0.0345,-0.0121 0.04896,-0.0121 0.02608,0 0.02629,0.007 0.02629,0.85949 v 0.8595 l -0.02938,0.0146 c -0.04295,0.0213 -0.17387,0.0542 -0.3721,0.0935 -0.08562,0.0169 -0.0908,0.0166 -0.09979,-0.007 z m -0.575866,-0.33234 c -0.122075,-0.005 -0.245456,-0.0154 -0.274178,-0.0228 -0.02872,-0.007 -0.09629,-0.0173 -0.150146,-0.0219 -0.05386,-0.005 -0.115547,-0.0135 -0.137089,-0.0195 -0.02154,-0.006 -0.09498,-0.0242 -0.163202,-0.0403 -0.06822,-0.0161 -0.129908,-0.0326 -0.137089,-0.0367 -0.03099,-0.0177 -0.176294,-0.0638 -0.176655,-0.056 -2.25e-4,0.005 -0.0064,-0.002 -0.01371,-0.0143 -0.0073,-0.0126 -0.02239,-0.0228 -0.03349,-0.0228 -0.0247,0 -0.08654,-0.0336 -0.150126,-0.0816 -0.02617,-0.0197 -0.05185,-0.0359 -0.05707,-0.0359 -0.01718,0 -0.176064,-0.16133 -0.176064,-0.17878 0,-0.009 -0.0055,-0.0171 -0.01214,-0.0171 -0.0067,0 -0.025,-0.0279 -0.04072,-0.062 -0.01572,-0.0341 -0.03395,-0.0725 -0.0405,-0.0854 -0.03617,-0.0708 -0.03474,-0.36948 0.0019,-0.40616 0.0072,-0.007 0.01309,-0.0239 0.01309,-0.0371 0,-0.0277 0.07806,-0.17754 0.127582,-0.2449 0.05953,-0.081 0.170642,-0.18052 0.287346,-0.25745 0.102712,-0.0677 0.466766,-0.26059 0.531642,-0.28167 0.01436,-0.005 0.03493,-0.014 0.0457,-0.0208 0.01077,-0.007 0.04308,-0.0222 0.07181,-0.0343 0.08788,-0.037 0.168569,-0.0729 0.192402,-0.0856 0.01247,-0.007 0.03401,-0.0121 0.04787,-0.0121 0.01386,0 0.02716,-0.004 0.02955,-0.01 0.0024,-0.005 0.05429,-0.0298 0.115329,-0.0543 0.06104,-0.0245 0.134478,-0.0545 0.163201,-0.0668 0.02872,-0.0123 0.0816,-0.0331 0.117506,-0.0464 0.0359,-0.0133 0.07997,-0.0316 0.09792,-0.0408 0.01795,-0.009 0.04257,-0.0168 0.05472,-0.0168 0.01214,-4e-5 0.02528,-0.005 0.0292,-0.0116 0.0039,-0.006 0.0498,-0.0253 0.101955,-0.0421 0.05216,-0.0168 0.09777,-0.0343 0.101358,-0.0388 0.0036,-0.004 0.03003,-0.0157 0.05875,-0.0247 0.02872,-0.009 0.05781,-0.0217 0.06463,-0.028 0.0068,-0.006 0.02592,-0.0115 0.04243,-0.0115 0.01652,0 0.03003,-0.005 0.03003,-0.012 0,-0.007 0.01907,-0.0162 0.04238,-0.0213 0.02331,-0.005 0.06297,-0.0182 0.08813,-0.029 0.05381,-0.0231 0.07402,-0.0313 0.169782,-0.069 0.07356,-0.0289 0.145628,-0.0598 0.185873,-0.0795 0.01247,-0.006 0.0289,-0.0111 0.03651,-0.0111 0.0076,0 0.05776,-0.0206 0.11144,-0.0457 0.05368,-0.0251 0.102874,-0.0457 0.109316,-0.0457 0.0064,0 0.02834,-0.008 0.04867,-0.0185 0.02033,-0.0102 0.05753,-0.0274 0.08266,-0.0383 0.02513,-0.0109 0.102041,-0.0466 0.170907,-0.0795 0.06887,-0.0328 0.134962,-0.0597 0.146881,-0.0597 0.01192,0 0.02167,-0.005 0.02167,-0.0104 0,-0.008 0.129244,-0.0813 0.247939,-0.13958 0.01443,-0.007 0.02624,-0.0174 0.02624,-0.0229 0,-0.005 0.0069,-0.01 0.01525,-0.01 0.01772,0 0.28944,-0.18183 0.295917,-0.19802 0.0024,-0.006 0.01268,-0.0109 0.02285,-0.0109 0.01017,0 0.0185,-0.005 0.0185,-0.0108 0,-0.006 0.02562,-0.0292 0.05694,-0.0517 0.03132,-0.0225 0.079,-0.0602 0.105969,-0.0838 0.09087,-0.0795 0.307111,-0.29868 0.307111,-0.31121 0,-0.007 0.0047,-0.0124 0.01037,-0.0124 0.0057,0 0.03361,-0.0307 0.06202,-0.0682 0.0284,-0.0375 0.06046,-0.0774 0.07123,-0.0886 0.01077,-0.0112 0.03427,-0.0391 0.05222,-0.062 0.01802,-0.023 0.05019,-0.0454 0.07181,-0.05 0.02154,-0.005 0.04504,-0.0129 0.05222,-0.0184 0.0072,-0.006 0.03362,-0.0143 0.05875,-0.0196 0.02513,-0.005 0.05157,-0.0142 0.05875,-0.01998 0.0072,-0.0057 0.05125,-0.02321 0.09792,-0.03881 0.04668,-0.01561 0.103379,-0.03667 0.126007,-0.04681 0.02263,-0.01014 0.04907,-0.01862 0.05875,-0.01885 0.0097,-2.25e-4 0.02902,-0.009 0.04295,-0.01958 0.01394,-0.01054 0.0353,-0.01917 0.04747,-0.01917 0.01217,0 0.03895,-0.0088 0.05952,-0.0195 0.02057,-0.01073 0.0467,-0.01954 0.05807,-0.01958 0.01137,-4.1e-5 0.02445,-0.0039 0.02908,-0.0085 0.01179,-0.01179 0.156035,-0.0698 0.173745,-0.06987 0.02224,-7.4e-5 0.189396,-0.08815 0.223316,-0.117648 0.01647,-0.01432 0.0391,-0.02603 0.0503,-0.02603 0.0269,0 0.01962,0.02602 -0.06027,0.215427 -0.05812,0.137811 -0.07046,0.163201 -0.07928,0.163201 -0.0052,0 -0.01338,0.01763 -0.01811,0.03917 -0.0047,0.0215 -0.01272,0.0392 -0.01776,0.0392 -0.005,0 -0.01596,0.0162 -0.02428,0.0359 -0.0083,0.0198 -0.03303,0.0653 -0.05492,0.10119 -0.02189,0.0359 -0.04669,0.0785 -0.05512,0.0947 -0.0084,0.0162 -0.02025,0.0294 -0.02628,0.0294 -0.006,0 -0.01096,0.006 -0.01096,0.0132 0,0.0161 -0.09122,0.14829 -0.106527,0.15436 -0.006,0.002 -0.01098,0.0102 -0.01098,0.0174 0,0.0104 -0.07574,0.11293 -0.104502,0.14146 -0.0036,0.004 -0.04177,0.0506 -0.08478,0.10445 -0.137889,0.17267 -0.579109,0.60058 -0.61926,0.60058 -0.0065,0 -0.01378,0.005 -0.01617,0.0116 -0.0059,0.0157 -0.1256,0.10595 -0.140467,0.10595 -0.0065,0 -0.01381,0.004 -0.01621,0.01 -0.0064,0.0143 -0.08601,0.0686 -0.100656,0.0686 -0.0069,0 -0.01446,0.004 -0.01685,0.01 -0.0064,0.0143 -0.08601,0.0686 -0.100656,0.0686 -0.0069,0 -0.01446,0.005 -0.01685,0.011 -0.0024,0.006 -0.01998,0.0193 -0.03908,0.0294 -0.0191,0.0101 -0.09926,0.058 -0.178139,0.10647 -0.07888,0.0485 -0.149909,0.0881 -0.15785,0.0881 -0.0079,0 -0.01444,0.005 -0.01444,0.0115 0,0.006 -0.01028,0.0149 -0.02285,0.0191 -0.01257,0.004 -0.0581,0.0284 -0.101186,0.0539 -0.04308,0.0255 -0.11065,0.0624 -0.150146,0.0819 -0.03949,0.0196 -0.07475,0.0387 -0.07834,0.0426 -0.01203,0.013 -0.202889,0.1043 -0.217955,0.1043 -0.0082,0 -0.01684,0.005 -0.01923,0.0104 -0.0062,0.0147 -0.112253,0.068 -0.135316,0.068 -0.01055,0 -0.01918,0.006 -0.01918,0.0131 0,0.007 -0.0063,0.0131 -0.01408,0.0131 -0.0077,0 -0.05621,0.0199 -0.107714,0.0441 -0.203404,0.0958 -0.270509,0.12561 -0.283163,0.12561 -0.0073,0 -0.0234,0.005 -0.03587,0.0121 -0.05595,0.0299 -0.143548,0.0662 -0.160618,0.0666 -0.0103,2.3e-4 -0.03013,0.009 -0.04407,0.0196 -0.01394,0.0105 -0.0355,0.0192 -0.0479,0.0192 -0.01241,0 -0.03919,0.008 -0.05952,0.0183 -0.07469,0.037 -0.136398,0.06 -0.160668,0.06 -0.01369,0 -0.02812,0.005 -0.03205,0.0116 -0.0039,0.006 -0.02754,0.0154 -0.05244,0.0201 -0.02491,0.005 -0.06169,0.0171 -0.08174,0.0275 -0.02005,0.0105 -0.04933,0.0191 -0.06506,0.0191 -0.01573,4e-5 -0.03182,0.005 -0.03574,0.0116 -0.0039,0.006 -0.03451,0.0156 -0.06797,0.0207 -0.03346,0.005 -0.07025,0.0141 -0.08176,0.0202 -0.01151,0.006 -0.06499,0.0239 -0.11885,0.0397 -0.05386,0.0158 -0.109672,0.0335 -0.124033,0.0395 -0.01436,0.006 -0.04668,0.0165 -0.07181,0.0234 -0.05463,0.0151 -0.121956,0.0387 -0.17823,0.0626 -0.02263,0.01 -0.05298,0.0174 -0.06746,0.0174 -0.01447,0 -0.02827,0.004 -0.03067,0.01 -0.0024,0.005 -0.0396,0.0236 -0.08269,0.0405 -0.04308,0.0169 -0.09685,0.0389 -0.119478,0.049 -0.02263,0.01 -0.04711,0.0182 -0.0544,0.0182 -0.0073,0 -0.01522,0.004 -0.01761,0.01 -0.0024,0.005 -0.0276,0.0215 -0.05601,0.0359 -0.09292,0.047 -0.176828,0.12146 -0.176828,0.15698 0,0.0188 0.0075,0.0323 0.01798,0.0323 0.0099,0 0.02499,0.008 0.03354,0.0187 0.0086,0.0103 0.03424,0.0228 0.05709,0.0277 0.02284,0.005 0.0474,0.0126 0.05459,0.0171 0.03307,0.0207 0.257353,0.0753 0.385155,0.0937 0.04668,0.007 0.09368,0.0157 0.104449,0.0199 0.02795,0.0109 0.277734,0.046 0.381158,0.0536 0.05152,0.004 0.09356,0.0138 0.102402,0.0245 0.01781,0.0215 0.02627,0.56083 0.0094,0.59674 -0.012,0.0255 -0.004,0.0253 -0.381939,0.009 z m 0.559344,-2.58786 c -0.0056,-0.009 -0.01734,-0.1045 -0.02606,-0.21221 -0.02952,-0.36454 -0.06957,-0.4911 -0.189317,-0.59837 -0.08481,-0.076 -0.09945,-0.0871 -0.114744,-0.0871 -0.0074,0 -0.05022,-0.0182 -0.09521,-0.0404 -0.04499,-0.0222 -0.09942,-0.0478 -0.120961,-0.0569 -0.07379,-0.031 -0.169727,-0.074 -0.192401,-0.0863 -0.01247,-0.007 -0.0285,-0.0122 -0.03562,-0.0122 -0.0071,0 -0.05567,-0.0196 -0.107891,-0.0436 -0.05222,-0.024 -0.115506,-0.0512 -0.140639,-0.0605 -0.02513,-0.009 -0.07213,-0.0284 -0.104449,-0.0425 -0.07503,-0.0327 -0.09411,-0.0405 -0.189315,-0.0776 -0.04308,-0.0168 -0.08029,-0.0349 -0.08269,-0.0403 -0.0024,-0.005 -0.01326,-0.01 -0.02414,-0.01 -0.01894,0 -0.05222,-0.013 -0.167351,-0.0653 -0.02872,-0.0131 -0.07866,-0.0326 -0.110977,-0.0435 -0.03231,-0.0108 -0.08493,-0.0315 -0.116928,-0.046 -0.032,-0.0144 -0.06284,-0.0234 -0.06854,-0.0199 -0.0057,0.003 -0.01037,2.3e-4 -0.01037,-0.007 0,-0.008 -0.0065,-0.0138 -0.01435,-0.0138 -0.01377,0 -0.06534,-0.02053 -0.148854,-0.05927 -0.02154,-0.01 -0.05538,-0.02196 -0.0752,-0.02659 -0.01982,-0.0046 -0.03926,-0.01365 -0.0432,-0.02004 -0.0039,-0.0064 -0.01563,-0.01161 -0.02595,-0.01161 -0.01033,0 -0.05608,-0.01763 -0.101678,-0.03917 -0.04559,-0.02154 -0.08732,-0.03917 -0.09272,-0.03917 -0.0097,0 -0.06904,-0.02435 -0.144326,-0.05927 -0.02154,-0.01 -0.05533,-0.02194 -0.07507,-0.02656 -0.01975,-0.0046 -0.0359,-0.01363 -0.0359,-0.02004 0,-0.0064 -0.01085,-0.01164 -0.02411,-0.01164 -0.01326,0 -0.04117,-0.0083 -0.06202,-0.01833 -0.07018,-0.03393 -0.160448,-0.07306 -0.168564,-0.07306 -0.0044,0 -0.03853,-0.01414 -0.07579,-0.03143 -0.03726,-0.01729 -0.09711,-0.04408 -0.133018,-0.05955 -0.08337,-0.0359 -0.15484,-0.07039 -0.163201,-0.07875 -0.0036,-0.0036 -0.03003,-0.01816 -0.05875,-0.03238 -0.0614,-0.03039 -0.128743,-0.07451 -0.134913,-0.08839 -0.0024,-0.0054 -0.01,-0.0098 -0.01685,-0.0098 -0.01464,0 -0.0943,-0.05424 -0.100657,-0.06855 -0.0024,-0.0054 -0.0099,-0.0098 -0.01666,-0.0098 -0.01689,0 -0.14219,-0.0945 -0.14219,-0.107236 0,-0.0056 -0.0061,-0.01027 -0.0136,-0.01027 -0.0075,0 -0.02658,-0.01235 -0.04243,-0.02744 -0.01586,-0.01509 -0.04939,-0.04281 -0.07453,-0.0616 -0.06316,-0.04721 -0.315056,-0.300503 -0.346419,-0.348336 -0.04364,-0.06655 -0.07047,-0.129019 -0.07093,-0.165113 -5.32e-4,-0.04176 -0.06878,-0.213468 -0.09743,-0.245121 -0.01129,-0.01247 -0.02052,-0.02687 -0.02052,-0.03199 0,-0.01005 -0.0033,-0.01436 -0.07104,-0.09308 -0.02472,-0.02872 -0.04024,-0.05698 -0.03448,-0.0628 0.01421,-0.01435 9.51579,-0.01443 9.553184,-7.5e-5 0.02627,0.01008 0.02241,0.02547 -0.01787,0.07134 -0.01975,0.02248 -0.04178,0.04765 -0.04896,0.05593 -0.02241,0.02584 -0.04402,0.06361 -0.0789,0.137983 -0.01853,0.03949 -0.0392,0.08201 -0.04594,0.09448 -0.0067,0.01247 -0.01225,0.04333 -0.01225,0.06859 0,0.05936 -0.05834,0.168212 -0.130362,0.243234 -0.01806,0.01881 -0.04519,0.04819 -0.06028,0.06528 -0.04351,0.04929 -0.175109,0.169974 -0.246567,0.226133 -0.036,0.02829 -0.06741,0.0562 -0.06981,0.06202 -0.0024,0.0058 -0.01219,0.01058 -0.02176,0.01058 -0.0096,0 -0.01937,0.0044 -0.02176,0.0098 -0.0073,0.01641 -0.125361,0.107711 -0.139287,0.107711 -0.0072,0 -0.01499,0.0044 -0.01739,0.0098 -0.0064,0.0143 -0.08601,0.06855 -0.100656,0.06855 -0.0069,0 -0.01445,0.0044 -0.01685,0.0098 -0.0066,0.01487 -0.08629,0.06855 -0.101745,0.06855 -0.0075,0 -0.01358,0.0052 -0.01358,0.01164 0,0.0064 -0.0161,0.01568 -0.03577,0.02062 -0.01967,0.0049 -0.03877,0.01292 -0.04243,0.01773 -0.0078,0.0102 -0.07091,0.04135 -0.163332,0.08057 -0.0359,0.01523 -0.08291,0.03553 -0.104448,0.04511 -0.04363,0.0194 -0.07413,0.03231 -0.169731,0.07185 -0.0359,0.01485 -0.08191,0.03573 -0.102243,0.04641 -0.02033,0.01068 -0.04824,0.01941 -0.06202,0.01941 -0.01378,0 -0.02505,0.0052 -0.02505,0.01164 0,0.0064 -0.01616,0.01542 -0.0359,0.02003 -0.01975,0.0046 -0.05353,0.01657 -0.07507,0.02656 -0.07528,0.03491 -0.134586,0.05927 -0.144326,0.05927 -0.0054,0 -0.04712,0.01763 -0.09272,0.03917 -0.04559,0.02154 -0.09052,0.03917 -0.09984,0.03917 -0.0093,0 -0.02252,0.0047 -0.02934,0.01045 -0.0068,0.0057 -0.04765,0.02365 -0.09074,0.03979 -0.04308,0.01614 -0.09497,0.03787 -0.115299,0.04831 -0.02033,0.01043 -0.04538,0.01897 -0.05567,0.01897 -0.01029,0 -0.02891,0.005 -0.04137,0.0122 -0.01247,0.007 -0.05205,0.0251 -0.08795,0.0407 -0.0359,0.0157 -0.07548,0.0337 -0.08795,0.04 -0.01247,0.006 -0.02945,0.0115 -0.03774,0.0115 -0.0083,0 -0.03921,0.0112 -0.06872,0.0249 -0.108053,0.0502 -0.149423,0.0665 -0.168781,0.0665 -0.01088,0 -0.02175,0.004 -0.02414,0.01 -0.006,0.0135 -0.143324,0.0686 -0.17107,0.0686 -0.01243,0 -0.0226,0.006 -0.0226,0.0131 0,0.007 -0.007,0.0131 -0.01546,0.0131 -0.0085,0 -0.03935,0.011 -0.06855,0.0244 -0.0292,0.0134 -0.07365,0.032 -0.09878,0.0413 -0.02513,0.009 -0.08842,0.0365 -0.14064,0.0605 -0.05222,0.024 -0.106565,0.0436 -0.120769,0.0436 -0.0142,0 -0.02583,0.006 -0.02583,0.0131 0,0.007 -0.0067,0.0131 -0.01489,0.0131 -0.0082,0 -0.04197,0.0126 -0.07507,0.028 -0.0331,0.0154 -0.07781,0.0354 -0.09935,0.0444 -0.02154,0.009 -0.07597,0.0347 -0.12096,0.0569 -0.04498,0.0222 -0.09052,0.0404 -0.101185,0.0404 -0.01067,0 -0.01955,0.004 -0.01974,0.01 -2.25e-4,0.005 -0.02406,0.0244 -0.05304,0.0423 -0.0534,0.033 -0.131502,0.13631 -0.148078,0.19597 -0.005,0.0179 -0.01386,0.0444 -0.01972,0.0587 -0.01669,0.0409 -0.03916,0.15948 -0.05321,0.2807 -0.0071,0.061 -0.01526,0.11741 -0.01819,0.12526 -0.0029,0.008 -0.04258,0.0274 -0.08812,0.0435 -0.04554,0.0161 -0.09299,0.0346 -0.105464,0.0412 -0.01247,0.007 -0.03018,0.012 -0.03936,0.012 -0.0092,0 -0.03861,0.0118 -0.06541,0.0261 -0.0268,0.0144 -0.05665,0.0261 -0.06634,0.0261 -0.0097,0 -0.03468,0.008 -0.05554,0.0181 -0.06109,0.0291 -0.106995,0.0361 -0.118316,0.0179 z m 3.365493,-3.897129 c -0.02136,-0.247048 -0.03948,-0.390372 -0.05427,-0.429269 -0.0069,-0.01806 -0.01248,-0.05203 -0.01248,-0.0755 0,-0.02347 -0.0043,-0.04698 -0.0096,-0.05226 -0.0053,-0.0053 -0.01629,-0.04004 -0.02449,-0.07725 -0.01483,-0.06737 -0.03281,-0.121899 -0.06599,-0.200194 -0.0096,-0.02263 -0.01748,-0.04613 -0.01754,-0.05222 -2.25e-4,-0.02384 -0.128298,-0.264287 -0.189678,-0.356087 -0.03565,-0.05331 -0.07069,-0.105777 -0.07787,-0.11658 -0.04461,-0.06712 -0.260759,-0.289427 -0.353016,-0.363075 -0.12587,-0.10048 -0.292714,-0.199671 -0.456464,-0.271374 -0.02872,-0.01258 -0.06985,-0.03107 -0.09139,-0.0411 -0.02154,-0.01003 -0.05839,-0.02195 -0.08187,-0.0265 -0.02349,-0.0045 -0.04587,-0.01338 -0.04973,-0.01963 -0.0039,-0.0063 -0.02284,-0.01163 -0.04216,-0.01194 -0.01932,-2.99e-4 -0.05863,-0.0091 -0.08736,-0.01941 -0.02872,-0.01036 -0.128603,-0.02577 -0.221954,-0.03425 l -0.16973,-0.01541 -0.07834,0.03657 c -0.04308,0.02011 -0.0989,0.04546 -0.124033,0.05632 -0.02513,0.01086 -0.05451,0.0248 -0.06528,0.03097 -0.01077,0.0062 -0.0284,0.01499 -0.03917,0.0196 -0.103603,0.04427 -0.13564,0.06327 -0.174927,0.103721 -0.02502,0.02576 -0.04951,0.06519 -0.05444,0.08763 -0.0049,0.02244 -0.01344,0.0498 -0.01892,0.06081 -0.0055,0.01101 -0.02288,0.06408 -0.03866,0.117934 -0.01578,0.05386 -0.03368,0.109671 -0.03978,0.124032 -0.0061,0.01436 -0.01511,0.0408 -0.02002,0.05875 -0.01143,0.04174 -0.109227,0.188675 -0.165117,0.24809 -0.02365,0.02515 -0.07233,0.06921 -0.108174,0.09792 -0.03584,0.02871 -0.07991,0.06549 -0.09792,0.08172 -0.01802,0.01624 -0.04451,0.03318 -0.05887,0.03766 -0.01436,0.0045 -0.02905,0.01176 -0.03264,0.01618 -0.01206,0.01484 -0.08441,0.06056 -0.137089,0.08663 -0.02872,0.01421 -0.05516,0.02909 -0.05875,0.03306 -0.0036,0.004 -0.0546,0.03158 -0.113361,0.06136 -0.05876,0.02978 -0.11751,0.05974 -0.130561,0.06658 -0.301631,0.158119 -0.465197,0.199871 -0.521905,0.210836 -0.05671,0.01096 0,0 -0.05671,0.01096 -0.08487,-0.03722 0,0 -0.08487,-0.03722 l -0.03264,-0.0302 c -0.01795,-0.01661 -0.03998,-0.04293 -0.04896,-0.0585 -0.02459,-0.04264 -0.01964,-0.144324 0.01092,-0.224688 0.01498,-0.03939 0.03169,-0.08939 0.03713,-0.1111 0.0054,-0.02171 0.0161,-0.05109 0.0237,-0.06528 0.0076,-0.01419 0.01801,-0.05378 0.02313,-0.08798 0.0051,-0.0342 0.01452,-0.06539 0.02087,-0.06932 0.0064,-0.0039 0.01155,-0.02008 0.01155,-0.03589 0,-0.01581 0.02387,-0.09625 0.05304,-0.178751 0.02917,-0.0825 0.05646,-0.161748 0.06064,-0.17611 0.0042,-0.01436 0.01183,-0.03199 0.01699,-0.03917 0.0052,-0.0072 0.03432,-0.06006 0.0648,-0.117505 0.03048,-0.05745 0.05919,-0.107387 0.0638,-0.110977 0.0046,-0.0036 0.01996,-0.02924 0.0341,-0.057 0.01414,-0.02776 0.03324,-0.05336 0.04243,-0.05688 0.0092,-0.0035 0.01672,-0.01228 0.01672,-0.01946 0,-0.01293 0.05362,-0.08594 0.117132,-0.159472 0.06346,-0.07347 0.322015,-0.333879 0.331506,-0.333879 0.0053,0 0.02251,-0.01363 0.03833,-0.03028 0.04282,-0.0451 0.304649,-0.243896 0.321228,-0.243896 0.0079,0 0.01434,-0.005 0.01434,-0.01116 0,-0.0061 0.05472,-0.0468 0.121603,-0.09036 0.165816,-0.107986 0.322191,-0.185855 0.465923,-0.232012 0.0395,-0.01268 0.08356,-0.02776 0.09792,-0.0335 0.01436,-0.0057 0.06136,-0.01625 0.104449,-0.02334 0.04308,-0.0071 0.104775,-0.01885 0.137089,-0.02612 0.07499,-0.01687 0.510073,-0.01726 0.587526,-5.25e-4 0.03231,0.007 0.09988,0.01919 0.150145,0.02713 0.05027,0.0079 0.09697,0.0196 0.103796,0.02591 0.0068,0.0063 0.02486,0.01147 0.04009,0.01147 0.01523,0 0.09484,0.02414 0.176911,0.05365 0.08207,0.02951 0.162259,0.0566 0.178197,0.0602 0.01594,0.0036 0.03575,0.01471 0.04403,0.02469 0.0083,0.01 0.02196,0.01814 0.0304,0.01814 0.01343,0 0.117917,0.05121 0.21647,0.106092 0.08017,0.04464 0.287235,0.186007 0.287235,0.196092 0,0.0061 0.0067,0.01116 0.01491,0.01116 0.01517,0 0.127802,0.09046 0.202481,0.162622 0.02262,0.02186 0.06375,0.06093 0.09139,0.08681 0.112584,0.105432 0.278738,0.298547 0.278738,0.32397 0,0.0078 0.0049,0.01412 0.01093,0.01412 0.01364,0 0.145746,0.199354 0.145746,0.219937 0,0.0083 0.0052,0.01507 0.01157,0.01507 0.0144,0 0.184269,0.339704 0.184269,0.368506 0,0.01155 0.0045,0.02296 0.01,0.02535 0.01541,0.0067 0.10753,0.2934 0.10753,0.33464 0,0.02012 0.0052,0.04217 0.01147,0.04899 0.01741,0.01883 0.05393,0.252115 0.07041,0.449784 0.0081,0.09694 0.015,0.308451 0.01537,0.47002 l 6.88e-4,0.293763 -0.438668,0.0034 -0.438667,0.0034 -0.01554,-0.179694 z m -3.595087,-1.328013 c 0.01777,-0.01655 0.166258,-0.195888 0.09465,-0.228234 l -0.05781,-0.0853 -0.08364,-0.0085 c -0.02418,-0.0024 -0.07175,0.06565 -0.0915,0.07832 -0.01975,0.01267 -0.02826,0.13919 -0.02826,0.147144 0,0.02253 0.134937,0.125979 0.166549,0.09653 z"
       id="path1732"
       sodipodi:nodetypes="ssssssssssscscsssssscscssssssssssssssssssssssssssssssssssssssscccsssssssssssssssssssssssssssssssssssssssssscsccssscccssssssccssssscsssssssssssssssssssssssssssssscsssssssssssssssssssssssssssssssssssssssssssssssssscssssssssscsssssssssssssssssssssscsssssssssssssssssssssssssssssssssssssscssscccssssssssssssssssssssssssssssssssssssssscssssssscsssssssssssssssssssssssssscsssssssssssssssssssssssssssssssssssssssssssssssssssssssssssssssssssssssssssssssssssssssssssssssssssssssscsssssssssssccsssssscssssssscsscsssssssssssssssssscsccsssssssssssssssssssssssssssssssssssssssssssssssssccccssccssss" />
  </g>
</svg>
