<?xml version="1.0" encoding="UTF-8" standalone="no"?>
<svg
   xmlns:dc="http://purl.org/dc/elements/1.1/"
   xmlns:cc="http://creativecommons.org/ns#"
   xmlns:rdf="http://www.w3.org/1999/02/22-rdf-syntax-ns#"
   xmlns:svg="http://www.w3.org/2000/svg"
   xmlns="http://www.w3.org/2000/svg"
   xmlns:sodipodi="http://sodipodi.sourceforge.net/DTD/sodipodi-0.dtd"
   xmlns:inkscape="http://www.inkscape.org/namespaces/inkscape"
   width="21.5mm"
   height="21.5mm"
   viewBox="0 0 21.5 21.5"
   version="1.1"
   id="svg858"
   inkscape:version="1.0.1 (3bc2e813f5, 2020-09-07)"
   sodipodi:docname="24_авиапром_легенда.svg">
  <defs
     id="defs852" />
  <sodipodi:namedview
     id="base"
     pagecolor="#ffffff"
     bordercolor="#666666"
     borderopacity="1.0"
     inkscape:pageopacity="0.0"
     inkscape:pageshadow="2"
     inkscape:zoom="3.959798"
     inkscape:cx="-7.3215299"
     inkscape:cy="55.445093"
     inkscape:document-units="mm"
     inkscape:current-layer="layer1"
     inkscape:document-rotation="0"
     showgrid="false"
     inkscape:window-width="1710"
     inkscape:window-height="1030"
     inkscape:window-x="192"
     inkscape:window-y="0"
     inkscape:window-maximized="0"
     inkscape:snap-center="true" />
  <metadata
     id="metadata855">
    <rdf:RDF>
      <cc:Work
         rdf:about="">
        <dc:format>image/svg+xml</dc:format>
        <dc:type
           rdf:resource="http://purl.org/dc/dcmitype/StillImage" />
        <dc:title></dc:title>
      </cc:Work>
    </rdf:RDF>
  </metadata>
  <g
     inkscape:label="Слой 1"
     inkscape:groupmode="layer"
     id="layer1"
     transform="translate(-70.366302,-88.807899)">
    <circle
       style="opacity:0.999;fill:#ffffff;fill-opacity:1;stroke:#000000;stroke-width:1.5;stroke-linecap:round;stroke-miterlimit:4;stroke-dasharray:none;stroke-opacity:1"
       id="path1421"
       cx="81.116302"
       cy="99.557899"
       r="10" />
    <path
       style="overflow:hidden;fill:#000000;stroke-width:0.169094;stroke-miterlimit:4;stroke-dasharray:none"
       d="m 83.641336,106.75928 c -1.50242,-0.4026 -2.05011,-0.54607 -2.08798,-0.54694 -0.0241,-5.2e-4 -0.0838,0.10639 -0.1326,0.23764 -0.0537,0.14426 -0.12976,0.27244 -0.19245,0.32412 -0.10068,0.083 -0.10744,0.0816 -0.23181,-0.0469 -0.0704,-0.0728 -0.15754,-0.21849 -0.19354,-0.32377 -0.036,-0.10528 -0.0687,-0.19472 -0.0728,-0.19876 -0.009,-0.009 -0.6145,0.14867 -1.62995,0.42474 -0.42549,0.11568 -0.79735,0.21088 -0.82637,0.21155 -0.0658,0.002 -0.0578,-0.67752 0.009,-0.78951 0.0579,-0.0968 0.11739,-0.13385 1.15467,-0.72007 0.45271,-0.25585 0.84806,-0.49843 0.87856,-0.53906 0.0386,-0.0514 0.0239,-0.26394 -0.0481,-0.69876 -0.15211,-0.91779 -0.16113,-1.04279 -0.17737,-2.45814 -0.008,-0.71172 -0.0234,-1.30199 -0.0338,-1.31171 -0.0104,-0.01 -0.23797,0.0427 -0.50569,0.11651 -0.72269,0.19923 -2.261,0.61372 -3.0424,0.81976 -0.37786,0.0996 -0.77817,0.20722 -0.88957,0.23906 -0.50789,0.14518 -1.89827,0.50925 -1.94669,0.50974 -0.0672,6.7e-4 -0.0772,-0.81457 -0.0119,-0.97216 0.0511,-0.12338 -0.0826,-0.0436 2.873,-1.714787 0.66933,-0.37847 1.23678,-0.6928 1.26099,-0.69851 0.0242,-0.006 0.0446,-0.23989 0.0452,-0.52039 0.001,-0.48556 0.007,-0.51605 0.12784,-0.63663 0.34276,-0.34276 0.95696,-0.16123 0.99619,0.29443 0.008,0.0914 0.0236,0.16578 0.035,0.16524 0.0114,-5.2e-4 0.25109,-0.13212 0.53266,-0.29242 l 0.51195,-0.29145 -0.008,-1.540137 c -0.004,-0.847071 0.009,-1.659014 0.0292,-1.804307 0.0714,-0.511562 0.41229,-1.221109 0.74785,-1.556664 0.14137,-0.141377 0.19307,-0.169499 0.31156,-0.169499 0.11719,-10e-7 0.1706,0.02853 0.30496,0.162893 0.31549,0.315483 0.68825,1.070347 0.75504,1.528976 0.0142,0.09725 0.0254,0.898171 0.0249,1.779813 l -8.7e-4,1.602985 0.51161,0.28824 c 0.28139,0.15853 0.52039,0.28921 0.53113,0.29039 0.0107,0.001 0.026,-0.0727 0.0338,-0.16406 0.0112,-0.13011 0.0452,-0.19714 0.1567,-0.3086 0.1229,-0.1229 0.17251,-0.14392 0.36237,-0.15356 0.234,-0.0119 0.47485,0.0916 0.5543,0.23814 0.0246,0.0454 0.047,0.30174 0.0498,0.56958 l 0.005,0.48699 0.70415,0.39554 c 1.83298,1.029607 3.2314,1.821587 3.33639,1.889517 0.0809,0.0523 0.1229,0.10977 0.13985,0.19109 0.0422,0.20282 0.0221,0.9399 -0.0257,0.93959 -0.0252,-1.5e-4 -0.37387,-0.089 -0.77475,-0.19748 -0.8144,-0.22031 -1.20211,-0.32442 -3.39921,-0.91275 -0.84117,-0.22525 -1.67672,-0.45104 -1.85677,-0.50176 -0.18006,-0.0507 -0.33691,-0.0827 -0.34855,-0.0711 -0.0116,0.0116 -0.0276,0.6338 -0.0354,1.3826 -0.0133,1.27014 -0.0569,1.79309 -0.22251,2.67066 -0.05,0.26473 -0.0499,0.36833 2.2e-4,0.41984 0.0366,0.0376 0.49684,0.31366 1.02275,0.61344 0.56185,0.32026 0.97584,0.57864 1.00383,0.62652 0.0395,0.0675 0.0814,0.77121 0.0479,0.80469 -0.006,0.006 -0.16954,-0.0323 -0.36411,-0.0845 z"
       id="path2552" />
  </g>
</svg>
