<?xml version="1.0" encoding="UTF-8" standalone="no"?>
<svg
   xmlns:dc="http://purl.org/dc/elements/1.1/"
   xmlns:cc="http://creativecommons.org/ns#"
   xmlns:rdf="http://www.w3.org/1999/02/22-rdf-syntax-ns#"
   xmlns:svg="http://www.w3.org/2000/svg"
   xmlns="http://www.w3.org/2000/svg"
   xmlns:sodipodi="http://sodipodi.sourceforge.net/DTD/sodipodi-0.dtd"
   xmlns:inkscape="http://www.inkscape.org/namespaces/inkscape"
   width="21.5mm"
   height="21.5mm"
   viewBox="0 0 21.5 21.5"
   version="1.1"
   id="svg858"
   inkscape:version="1.0.1 (3bc2e813f5, 2020-09-07)"
   sodipodi:docname="26_неметаллы_легенда.svg">
  <defs
     id="defs852" />
  <sodipodi:namedview
     id="base"
     pagecolor="#ffffff"
     bordercolor="#666666"
     borderopacity="1.0"
     inkscape:pageopacity="0.0"
     inkscape:pageshadow="2"
     inkscape:zoom="11.2"
     inkscape:cx="43.92793"
     inkscape:cy="40.40952"
     inkscape:document-units="mm"
     inkscape:current-layer="layer1"
     inkscape:document-rotation="0"
     showgrid="false"
     inkscape:window-width="1710"
     inkscape:window-height="1030"
     inkscape:window-x="192"
     inkscape:window-y="0"
     inkscape:window-maximized="0"
     inkscape:snap-center="true"
     inkscape:snap-object-midpoints="true" />
  <metadata
     id="metadata855">
    <rdf:RDF>
      <cc:Work
         rdf:about="">
        <dc:format>image/svg+xml</dc:format>
        <dc:type
           rdf:resource="http://purl.org/dc/dcmitype/StillImage" />
        <dc:title />
      </cc:Work>
    </rdf:RDF>
  </metadata>
  <g
     inkscape:label="Слой 1"
     inkscape:groupmode="layer"
     id="layer1"
     transform="translate(-70.366302,-88.807899)">
    <circle
       style="opacity:0.999;fill:#ffffff;fill-opacity:1;stroke:#000000;stroke-width:1.5;stroke-linecap:round;stroke-miterlimit:4;stroke-dasharray:none;stroke-opacity:1"
       id="path1421"
       cx="81.116302"
       cy="99.557899"
       r="10" />
    <g
       id="g971"
       transform="translate(-22.533372,0.38802369)">
      <path
         style="fill:none;stroke:#000000;stroke-width:0.3;stroke-linecap:butt;stroke-linejoin:miter;stroke-miterlimit:4;stroke-dasharray:none;stroke-opacity:1"
         d="m 95.828089,102.42228 c 5.004241,0.48675 10.283571,0.30874 15.643171,-0.0633 l -3.21879,-3.060619 -3.33743,-2.49911 -0.84622,-0.925304 -0.39542,-0.253074 -0.52197,0.189806 -1.02811,0.569417 -1.3761,1.376092 -2.609825,2.182768 z"
         id="path847"
         sodipodi:nodetypes="cccccccccccc" />
      <path
         style="fill:none;stroke:#000000;stroke-width:0.3;stroke-linecap:butt;stroke-linejoin:miter;stroke-miterlimit:4;stroke-dasharray:none;stroke-opacity:1"
         d="m 107.01722,98.373423 -0.81043,0.62953 c 0,0 -0.72698,1.420417 -0.76054,1.487527 -0.0336,0.0671 -0.85002,0.6487 -0.91712,0.70462 -0.0671,0.0559 -0.67107,0.77172 -0.67107,0.81646 0,0.0447 -0.0893,0.69788 -0.0893,0.69788"
         id="path849" />
      <path
         style="fill:none;stroke:#000000;stroke-width:0.3;stroke-linecap:butt;stroke-linejoin:miter;stroke-miterlimit:4;stroke-dasharray:none;stroke-opacity:1"
         d="m 100.34903,98.089257 0.82477,0.466318 c 0,0 0.24606,0.0671 0.20133,0.458561 -0.0447,0.391455 -0.49212,0.738172 -0.49212,0.738172 l 0.46974,0.246058 0.0336,0.492114 c 0,0 0.53686,0.0224 0.8612,0.1454 0.32435,0.12303 0.38027,0.33553 0.68225,0.48093 0.30199,0.14539 0.45856,0.0895 0.61514,0.0671 0.15659,-0.0224 0.53687,0.52868 0.53687,0.52868"
         id="path851" />
      <path
         style="fill:none;stroke:#000000;stroke-width:0.3;stroke-linecap:butt;stroke-linejoin:miter;stroke-miterlimit:4;stroke-dasharray:none;stroke-opacity:1"
         d="m 100.12302,102.68604 0.48038,-0.48434 c 0,0 -0.21251,0.20132 0.0559,0 0.26843,-0.20132 0.25725,-0.32435 0.26843,-0.45857 0.0112,-0.13421 -0.17895,-0.31316 -0.36909,-0.32434 -0.19013,-0.0112 -0.24605,0.19013 -0.24605,-0.0447 0,-0.23488 -0.14541,-0.23488 0.0671,-0.55922 0.21251,-0.32435 0.73817,-0.939495 0.73817,-0.939495 0,0 0.46975,-0.369086 0.61515,-0.369086 0.14539,0 0.76053,0.0671 0.88356,-0.01118 0.12303,-0.07829 0.15659,-0.08948 0.31317,-0.290794 0.15658,-0.201319 0.20131,-0.492115 0.12303,-0.682251 -0.0783,-0.190134 -0.34672,-0.581589 -0.52567,-0.83883 -0.17895,-0.257242 -0.54804,-0.313164 -0.41382,-0.436193 0.13421,-0.123028 0.54803,-0.301979 0.55921,-0.492115 0.0112,-0.190134 -0.0351,-0.659468 -0.0351,-0.659468"
         id="path853" />
      <path
         style="fill:none;stroke:#000000;stroke-width:0.3;stroke-linecap:butt;stroke-linejoin:miter;stroke-miterlimit:4;stroke-dasharray:none;stroke-opacity:1"
         d="m 100.88301,99.752308 -0.53685,-0.212504 -1.47635,1.118446 c 0,0 0.100662,0.20132 0.05591,0.20132 -0.04473,0 -0.492111,-0.0336 -0.492111,-0.0336 l -0.8612,0.7158 -1.031339,0.94521"
         id="path855" />
      <path
         style="fill:none;stroke:#000000;stroke-width:0.3;stroke-linecap:butt;stroke-linejoin:miter;stroke-miterlimit:4;stroke-dasharray:none;stroke-opacity:1"
         d="m 97.725836,102.57513 0.148565,-0.55238 0.324348,-0.25725 0.637514,-0.34671 0.08946,-0.55922 -0.05591,-0.20132 -0.03355,-0.715806 -0.390939,-0.261"
         id="path857" />
      <path
         style="fill:none;stroke:#000000;stroke-width:0.3;stroke-linecap:butt;stroke-linejoin:miter;stroke-miterlimit:4;stroke-dasharray:none;stroke-opacity:1"
         d="m 103.19746,102.71582 -0.0552,-0.34636 -0.69344,-0.36908 -0.0336,-0.31317 0.51448,-0.5704"
         id="path859" />
      <path
         style="fill:none;stroke:#000000;stroke-width:0.3;stroke-linecap:butt;stroke-linejoin:miter;stroke-miterlimit:4;stroke-dasharray:none;stroke-opacity:1"
         d="m 103.5449,101.18391 0.0224,-0.58159 0.68225,0.0336 0.5033,-0.27961 c 0,0 0.39145,-0.12303 0.33553,-0.2908 -0.0559,-0.167761 0.22369,-0.760535 0.20132,-0.872381 -0.0224,-0.111842 0.0447,-0.928306 -0.0224,-1.062518 -0.0671,-0.134214 -0.20132,-0.324349 -0.35791,-0.380272 -0.15657,-0.05592 -0.31316,-0.369085 -0.33552,-0.45856 -0.0224,-0.08948 -0.44738,0.111844 -0.57042,0.0671 -0.12302,-0.04474 -0.24605,-0.145398 -0.2796,-0.402639 -0.0335,-0.257243 0.14726,-1.208765 0.14726,-1.208765"
         id="path861" />
      <path
         style="fill:none;stroke:#000000;stroke-width:0.3;stroke-linecap:butt;stroke-linejoin:miter;stroke-miterlimit:4;stroke-dasharray:none;stroke-opacity:1"
         d="m 102.92976,99.204272 0.62633,-0.268427 c 0,0 0.32435,-0.134213 0.46974,-0.514483 0.1454,-0.38027 0.15658,-0.570405 0.0895,-0.682249 -0.0671,-0.111845 -0.11184,-0.38027 -0.11184,-0.38027"
         id="path863" />
      <path
         style="fill:none;stroke:#000000;stroke-width:0.3;stroke-linecap:butt;stroke-linejoin:miter;stroke-miterlimit:4;stroke-dasharray:none;stroke-opacity:1"
         d="m 107.98414,99.09747 c 0,0 0.22467,0.71076 0.0122,0.94563 -0.21251,0.23488 -0.24606,0.38027 -0.57041,0.44738 -0.32435,0.0671 -0.24605,-0.41382 -0.59278,0.0447 -0.34671,0.45856 -0.52566,0.33553 -0.6375,0.7158 -0.11185,0.38027 -0.22369,0.16777 -0.31316,0.49212 -0.0895,0.32435 -0.20841,0.92184 -0.20841,0.92184"
         id="path865" />
      <path
         style="fill:none;stroke:#000000;stroke-width:0.3;stroke-linecap:butt;stroke-linejoin:miter;stroke-miterlimit:4;stroke-dasharray:none;stroke-opacity:1"
         d="m 102.61659,99.495066 0.34673,0.480931 c 0,0 0.60395,0.626323 0.60395,0.626323 l 0.68225,0.0336 c 0,0 0.0112,-0.0224 0.1454,0.26843 0.13421,0.29079 0.45856,0.41382 0.54803,0.425 0.0895,0.0112 0.9395,0.41383 0.9395,0.41383 0,0 1.06251,0.19013 1.33094,0.0559 0.26843,-0.13421 0.98422,0.12303 1.09607,0.15658 0.11185,0.0336 0.8612,0.31317 1.17436,0.15658 0.31316,-0.15658 1.58723,0.27421 1.58723,0.27421"
         id="path867" />
      <path
         style="fill:#ffffff;fill-opacity:1;stroke:#000000;stroke-width:0.3;stroke-miterlimit:4;stroke-dasharray:none;stroke-opacity:1;stop-color:#000000"
         d="m 99.379723,102.59258 c -0.06767,-0.004 -0.455205,-0.0229 -0.861204,-0.0431 -0.405994,-0.0202 -0.740364,-0.0386 -0.743045,-0.0409 -0.0027,-0.002 0.02312,-0.10837 0.05733,-0.23565 l 0.0622,-0.23141 0.160798,-0.12881 c 0.08844,-0.0708 0.30553,-0.20711 0.482425,-0.30284 l 0.321627,-0.17403 0.04907,-0.31462 c 0.03789,-0.24307 0.04357,-0.32903 0.02487,-0.37801 -0.0133,-0.0349 -0.0189,-0.0719 -0.01253,-0.0823 0.0087,-0.0136 1.165656,-0.896054 1.409066,-1.074454 0.0226,-0.01651 0.4764,0.152917 0.65592,0.244866 l 0.0967,0.04952 -0.0986,0.116155 c -0.38871,0.458073 -0.69344,0.880413 -0.72952,1.011073 -0.0162,0.0587 -0.0136,0.12162 0.01,0.23042 0.0174,0.0823 0.0319,0.17265 0.0321,0.20072 5.2e-4,0.0682 0.0487,0.0829 0.13148,0.0401 0.0904,-0.0468 0.16587,-0.0443 0.26963,0.009 0.19725,0.10063 0.25256,0.26526 0.15607,0.46456 -0.0455,0.0941 -0.19775,0.24004 -0.25114,0.24083 -0.0143,1.8e-4 -0.11593,0.0934 -0.22581,0.20721 l -0.19977,0.20682 -0.337093,-0.004 c -0.185389,-0.002 -0.392439,-0.007 -0.460103,-0.0106 z"
         id="path869" />
      <path
         style="fill:#ffffff;fill-opacity:1;stroke:#000000;stroke-width:0.2;stroke-miterlimit:4;stroke-dasharray:none;stroke-opacity:1;stop-color:#000000"
         d="m 97.5305,102.49993 c -0.520926,-0.0385 -0.80159,-0.06 -0.846929,-0.0649 l -0.05212,-0.005 0.494998,-0.45259 c 0.403612,-0.36903 0.570844,-0.51548 0.905817,-0.79327 0.398704,-0.33063 0.411647,-0.34056 0.438927,-0.33655 0.01546,0.002 0.119255,0.0102 0.230662,0.0176 0.176125,0.0117 0.202182,0.0151 0.199753,0.026 -0.0019,0.007 -0.02053,0.12431 -0.04222,0.261 -0.02169,0.13668 -0.04232,0.25141 -0.04579,0.25495 -0.0039,0.004 -0.145903,0.0824 -0.316372,0.17515 l -0.30994,0.16873 -0.164797,0.13089 -0.164797,0.13089 -0.0496,0.18489 c -0.09219,0.34363 -0.08103,0.31128 -0.107767,0.31249 -0.01293,5.9e-4 -0.08934,-0.004 -0.169807,-0.01 z"
         id="path871" />
      <path
         style="fill:#ffffff;fill-opacity:1;stroke:#000000;stroke-width:0.2;stroke-miterlimit:4;stroke-dasharray:none;stroke-opacity:1;stop-color:#000000"
         d="m 96.502385,102.42077 c -0.01087,-0.001 -0.126537,-0.0116 -0.257029,-0.0228 -0.130492,-0.0112 -0.246869,-0.0229 -0.258617,-0.026 -0.02037,-0.005 0.02957,-0.0604 1.081508,-1.19195 1.095765,-1.17864 1.103874,-1.187133 1.259053,-1.318023 0.15494,-0.13069 0.156341,-0.131638 0.175955,-0.119219 0.01087,0.0068 0.0865,0.05694 0.168056,0.111248 0.139164,0.09265 0.148284,0.100233 0.148294,0.123174 0,0.01345 0.0067,0.17333 0.01591,0.3553 0.01533,0.3173 0.01687,0.33429 0.03933,0.41477 0.01282,0.0461 0.02159,0.0857 0.01947,0.0878 -0.0019,0.002 -0.100787,-0.003 -0.219235,-0.0106 -0.118457,-0.008 -0.22293,-0.0148 -0.232169,-0.0153 -0.01123,-5.7e-4 -0.162022,0.11981 -0.454638,0.36295 -0.365046,0.30331 -0.518504,0.43775 -0.923009,0.80865 -0.465037,0.4264 -0.486372,0.44481 -0.514163,0.44367 -0.01595,-6.5e-4 -0.0379,-0.002 -0.04877,-0.004 z"
         id="path873" />
      <path
         style="fill:#ffffff;fill-opacity:1;stroke:#000000;stroke-width:0.2;stroke-miterlimit:4;stroke-dasharray:none;stroke-opacity:1;stop-color:#000000"
         d="m 98.872056,100.28856 c -0.0077,-0.17958 -0.01533,-0.333923 -0.01716,-0.342991 -0.0019,-0.01113 -0.05736,-0.05226 -0.169396,-0.126537 -0.09133,-0.06053 -0.165257,-0.11252 -0.164281,-0.115542 0.0026,-0.0082 1.864711,-1.56436 1.871831,-1.56436 0.003,0 0.17505,0.09549 0.38152,0.212192 0.20647,0.116705 0.3928,0.220616 0.41408,0.230912 0.0782,0.03787 0.14118,0.126499 0.16237,0.228584 0.006,0.02663 0.008,0.08455 0.006,0.146822 -0.003,0.08835 -0.008,0.113133 -0.0284,0.175892 -0.0403,0.119085 -0.10367,0.228868 -0.20197,0.350056 -0.0509,0.06275 -0.19983,0.213981 -0.23049,0.234078 -0.0171,0.01121 -0.0335,0.0059 -0.27904,-0.09131 -0.14349,-0.05677 -0.26509,-0.103222 -0.27022,-0.103222 -0.005,0 -0.33135,0.243961 -0.724912,0.542136 -0.393548,0.29817 -0.720039,0.54386 -0.725534,0.54596 -0.0077,0.003 -0.01301,-0.0673 -0.02381,-0.32267 z"
         id="path875" />
      <path
         style="fill:#ffffff;fill-opacity:1;stroke:#000000;stroke-width:0.2;stroke-miterlimit:4;stroke-dasharray:none;stroke-opacity:1;stop-color:#000000"
         d="m 101.39779,102.64972 c -0.6473,-0.0106 -1.12478,-0.0212 -1.14999,-0.0254 l -0.031,-0.005 0.14851,-0.15218 c 0.0997,-0.1021 0.15927,-0.15706 0.1812,-0.16701 0.0534,-0.0242 0.1862,-0.12862 0.2557,-0.20103 0.10363,-0.10796 0.13887,-0.19488 0.14014,-0.34557 6.1e-4,-0.071 -8.3e-4,-0.0778 -0.0262,-0.12472 -0.0577,-0.10644 -0.19832,-0.20445 -0.32145,-0.22407 -0.0702,-0.0112 -0.12689,-6.1e-4 -0.19943,0.0372 -0.0285,0.0149 -0.0535,0.0253 -0.0555,0.0233 -0.002,-0.002 -0.007,-0.0475 -0.0104,-0.1009 -0.004,-0.0614 -0.014,-0.12334 -0.0266,-0.16829 -0.011,-0.0391 -0.02,-0.0838 -0.02,-0.0994 0,-0.0648 0.0433,-0.16506 0.12432,-0.28817 0.0954,-0.14488 0.33605,-0.45447 0.58687,-0.75496 0.0634,-0.07595 0.1179,-0.141787 0.12112,-0.146309 0.004,-0.0052 0.0448,0.01203 0.11184,0.04688 l 0.10598,0.0551 0.005,0.0517 c 0.003,0.0284 0.0102,0.13708 0.0171,0.24148 0.007,0.10439 0.0136,0.1937 0.0152,0.19846 0.002,0.005 0.0392,0.0108 0.0925,0.0141 0.29272,0.0177 0.61623,0.0766 0.786,0.14328 0.13044,0.0512 0.20848,0.10496 0.3674,0.25307 0.0942,0.0878 0.17262,0.14865 0.23982,0.18614 l 0.0461,0.0257 -0.0311,0.0325 c -0.0171,0.0179 -0.13101,0.14343 -0.25313,0.27898 l -0.22203,0.24645 0.0153,0.14897 c 0.009,0.0819 0.018,0.15729 0.0212,0.16745 0.005,0.0144 0.0808,0.0584 0.3497,0.20167 l 0.34385,0.1832 0.0174,0.11072 c 0.01,0.0609 0.0197,0.12229 0.0223,0.13642 l 0.005,0.0257 -0.83273,-0.002 c -0.45801,-9.5e-4 -0.88079,-0.003 -0.9395,-0.003 z"
         id="path877" />
      <path
         style="fill:#ffffff;fill-opacity:1;stroke:#000000;stroke-width:0.2;stroke-miterlimit:4;stroke-dasharray:none;stroke-opacity:1;stop-color:#000000"
         d="m 103.16452,101.17965 c -0.12402,-0.0272 -0.27286,-0.0945 -0.37139,-0.16782 -0.0345,-0.0257 -0.11204,-0.0919 -0.17229,-0.14706 -0.15185,-0.13909 -0.22932,-0.19182 -0.35489,-0.24156 -0.16488,-0.0653 -0.45791,-0.11937 -0.79857,-0.14733 l -0.0609,-0.005 -0.004,-0.033 c -0.002,-0.0181 -0.0105,-0.12728 -0.0182,-0.24255 l -0.014,-0.209577 -0.10208,-0.05332 c -0.0561,-0.02933 -0.10415,-0.05537 -0.10665,-0.05788 -0.006,-0.0056 0.005,-0.01384 0.14942,-0.116807 0.17421,-0.124198 0.29245,-0.194303 0.37455,-0.222056 0.0357,-0.01205 0.0532,-0.01205 0.24121,-3.2e-5 0.11153,0.0071 0.28285,0.01316 0.38072,0.01341 0.15873,4.07e-4 0.21325,-0.0038 0.28561,-0.02194 0.0191,-0.0048 0.0303,0.0088 0.18727,0.227027 l 0.16701,0.232117 0.25841,0.268638 c 0.14213,0.14775 0.27742,0.28821 0.30065,0.31214 l 0.0422,0.0435 -0.0112,0.27569 c -0.006,0.15163 -0.0127,0.27729 -0.0147,0.27924 -0.002,0.002 -0.0351,0.009 -0.0737,0.0149 -0.0856,0.0139 -0.21931,0.0135 -0.28442,-7.5e-4 z"
         id="path879" />
      <path
         style="fill:#ffffff;fill-opacity:1;stroke:#000000;stroke-width:0.2;stroke-miterlimit:4;stroke-dasharray:none;stroke-opacity:1;stop-color:#000000"
         d="m 101.01778,99.801903 -0.0984,-0.05157 0.11141,-0.111621 c 0.25714,-0.257638 0.36705,-0.472066 0.36705,-0.716057 0,-0.08416 -0.0184,-0.173031 -0.0478,-0.230675 -0.0256,-0.05022 -0.0926,-0.116668 -0.14351,-0.142369 -0.0248,-0.0125 -0.20448,-0.112914 -0.39937,-0.223133 -0.1949,-0.110219 -0.36099,-0.204058 -0.36911,-0.208531 -0.0128,-0.007 0.008,-0.02693 0.15818,-0.152762 0.15008,-0.125528 0.26536,-0.236798 0.87282,-0.84243 l 0.69991,-0.697799 0.22473,-0.123578 c 0.12361,-0.06796 0.22658,-0.121733 0.22883,-0.119479 0.007,0.007 0.0241,0.245057 0.0298,0.415655 l 0.006,0.162716 -0.021,0.04595 c -0.0332,0.07252 -0.10289,0.13263 -0.32229,0.277962 -0.18653,0.123563 -0.24327,0.169631 -0.24524,0.199131 -0.004,0.05603 0.01,0.07049 0.16426,0.172669 0.21561,0.142792 0.22274,0.150643 0.46514,0.512471 0.204,0.304515 0.31253,0.489479 0.34706,0.591508 0.0527,0.155784 0.0194,0.386867 -0.0802,0.555889 -0.0357,0.06054 -0.12815,0.176425 -0.1883,0.235994 -0.0654,0.06473 -0.16993,0.13195 -0.22841,0.146838 -0.059,0.01503 -0.37413,0.01613 -0.57746,0.002 -0.22415,-0.01556 -0.26956,-0.01408 -0.3287,0.01068 -0.0987,0.04133 -0.27767,0.154561 -0.4507,0.28512 l -0.0756,0.05699 z"
         id="path881" />
      <path
         style="fill:#ffffff;fill-opacity:1;stroke:#000000;stroke-width:0.2;stroke-miterlimit:4;stroke-dasharray:none;stroke-opacity:1;stop-color:#000000"
         d="m 103.00057,99.140838 c 0,-0.0024 0.0149,-0.03636 0.0332,-0.07549 0.10011,-0.215075 0.101,-0.426801 0.003,-0.621735 -0.10642,-0.210826 -0.47503,-0.765418 -0.57249,-0.861354 -0.0345,-0.03398 -0.12793,-0.105154 -0.20758,-0.158165 -0.0811,-0.05393 -0.14645,-0.10524 -0.14853,-0.116492 -0.006,-0.03167 0.0141,-0.04845 0.21623,-0.181621 0.28034,-0.184721 0.35191,-0.257506 0.36802,-0.374267 0.007,-0.04607 -0.006,-0.329653 -0.0223,-0.520075 l -0.007,-0.07829 0.2593,-0.143134 c 0.22687,-0.125229 0.28955,-0.154085 0.50108,-0.230689 l 0.24178,-0.08756 0.0649,0.04056 c 0.12274,0.07672 0.11494,0.03649 0.0654,0.336942 -0.0841,0.509202 -0.10857,0.803113 -0.0793,0.953287 0.0282,0.145395 0.11964,0.280164 0.22088,0.325815 l 0.0443,0.02 0.034,0.137264 c 0.0187,0.07549 0.0523,0.177661 0.0745,0.227037 0.0351,0.07773 0.0406,0.101115 0.0406,0.174313 0,0.106649 -0.022,0.21215 -0.0797,0.382043 -0.0778,0.228962 -0.14589,0.343298 -0.281,0.471604 -0.10514,0.09985 -0.16262,0.131801 -0.48896,0.271769 -0.24803,0.106381 -0.27995,0.118723 -0.27995,0.108246 z"
         id="path883" />
      <path
         style="fill:#ffffff;fill-opacity:1;stroke:#000000;stroke-width:0.2;stroke-miterlimit:4;stroke-dasharray:none;stroke-opacity:1;stop-color:#000000"
         d="m 103.81392,100.59565 -0.23239,-0.0108 -0.2988,-0.30727 c -0.27347,-0.281225 -0.31278,-0.326709 -0.46384,-0.53671 -0.0908,-0.126195 -0.16504,-0.233316 -0.16504,-0.238046 0,-0.0047 0.0245,-0.02431 0.0544,-0.04351 0.0516,-0.03309 0.13488,-0.114412 0.20857,-0.203585 0.0287,-0.03476 0.0765,-0.0588 0.34098,-0.171279 0.16917,-0.07196 0.33993,-0.148886 0.37948,-0.170936 0.0843,-0.04698 0.24108,-0.193445 0.29642,-0.276817 0.0631,-0.09519 0.11291,-0.204228 0.16086,-0.352724 0.0949,-0.293754 0.10139,-0.409748 0.0319,-0.567609 -0.0224,-0.05075 -0.0502,-0.131278 -0.062,-0.178951 -0.0399,-0.161548 -0.0419,-0.144654 0.0182,-0.153339 0.0291,-0.0042 0.13318,-0.02743 0.23115,-0.05159 0.2272,-0.05603 0.23571,-0.05609 0.25282,-0.002 0.0354,0.112019 0.18172,0.336936 0.25383,0.390227 0.0178,0.01317 0.0639,0.03987 0.10254,0.05935 0.11239,0.05673 0.2192,0.168392 0.30239,0.316117 0.0328,0.05823 0.0369,0.07651 0.0464,0.206911 0.006,0.07867 0.008,0.210984 0.004,0.294028 -0.003,0.08304 -0.008,0.271781 -0.0101,0.419416 l -0.004,0.268426 -0.0845,0.259804 c -0.0991,0.304646 -0.12279,0.413759 -0.11249,0.518997 l 0.008,0.0742 -0.0439,0.0439 c -0.0491,0.0491 -0.11271,0.0874 -0.21124,0.12713 -0.0364,0.0147 -0.17786,0.0885 -0.31425,0.16405 l -0.248,0.13731 -0.10431,-0.002 c -0.0574,-0.001 -0.20889,-0.007 -0.33671,-0.0127 z"
         id="path885" />
      <path
         style="fill:#ffffff;fill-opacity:1;stroke:#000000;stroke-width:0.2;stroke-miterlimit:4;stroke-dasharray:none;stroke-opacity:1;stop-color:#000000"
         d="m 104.51578,101.04932 c -0.0394,-0.0478 -0.0927,-0.13676 -0.14538,-0.24259 -0.0457,-0.0919 -0.082,-0.1681 -0.0806,-0.16934 0.0224,-0.0198 0.48424,-0.26643 0.54596,-0.29152 0.11065,-0.045 0.20101,-0.10348 0.24098,-0.156 0.0305,-0.04 0.0319,-0.0471 0.0289,-0.14121 -0.004,-0.121818 0.013,-0.195592 0.12075,-0.528808 l 0.0795,-0.246057 0.002,-0.548151 0.002,-0.548152 -0.0361,-0.07326 c -0.0767,-0.156088 -0.21866,-0.308129 -0.34213,-0.366466 -0.1178,-0.05566 -0.24239,-0.210792 -0.316,-0.393467 -0.0161,-0.03988 -0.0336,-0.07715 -0.0391,-0.08282 -0.0188,-0.01958 -0.11967,-0.0077 -0.27452,0.03242 -0.22031,0.05703 -0.26553,0.06035 -0.33607,0.02459 -0.16087,-0.08152 -0.23986,-0.270124 -0.22303,-0.532526 0.0101,-0.157385 0.0428,-0.410597 0.0921,-0.712397 l 0.0404,-0.247538 0.0731,0.04622 c 0.0589,0.03725 0.15558,0.136319 0.49819,0.510371 l 0.42514,0.464154 1.02991,0.770232 c 0.56645,0.423629 1.03362,0.773603 1.03815,0.777722 0.005,0.0041 -0.16233,0.139725 -0.37078,0.301349 l -0.37902,0.293863 -0.38189,0.747852 c -0.30328,0.593899 -0.39042,0.755549 -0.42331,0.785209 -0.0776,0.07 -0.78599,0.60182 -0.8016,0.60182 -0.003,0 -0.0335,-0.034 -0.0678,-0.0755 z"
         id="path887" />
      <path
         style="fill:#ffffff;fill-opacity:1;stroke:#000000;stroke-width:0.2;stroke-miterlimit:4;stroke-dasharray:none;stroke-opacity:1;stop-color:#000000"
         d="m 103.9792,101.54176 c -0.13567,-0.17623 -0.27535,-0.31593 -0.35049,-0.35057 l -0.0591,-0.0272 0.008,-0.26842 c 0.004,-0.14764 0.008,-0.26925 0.009,-0.27025 9e-4,-9.6e-4 0.14759,0.006 0.32598,0.0148 0.21328,0.0109 0.32885,0.0211 0.33749,0.0298 0.008,0.007 0.0512,0.0887 0.0977,0.18093 0.0583,0.11559 0.10313,0.18843 0.1442,0.23421 l 0.0596,0.0664 -0.0389,0.0342 c -0.0375,0.0329 -0.34547,0.38674 -0.39538,0.45426 -0.0134,0.0181 -0.0272,0.0329 -0.0307,0.0328 -0.004,-9e-5 -0.0516,-0.059 -0.10694,-0.13091 z"
         id="path889" />
      <path
         style="fill:#ffffff;fill-opacity:1;stroke:#000000;stroke-width:0.2;stroke-miterlimit:4;stroke-dasharray:none;stroke-opacity:1;stop-color:#000000"
         d="m 103.20788,102.6459 c -0.002,-0.003 -0.0121,-0.066 -0.023,-0.13981 -0.011,-0.0738 -0.0255,-0.14023 -0.0322,-0.14758 -0.007,-0.007 -0.16319,-0.0937 -0.34773,-0.19194 l -0.33553,-0.17857 -0.013,-0.10445 c -0.0255,-0.20371 -0.0475,-0.15849 0.2267,-0.46272 0.1329,-0.14743 0.24336,-0.26988 0.24547,-0.27212 0.002,-0.002 0.0461,0.0112 0.0976,0.0299 0.14988,0.0542 0.25091,0.0645 0.4112,0.0417 l 0.13406,-0.0191 0.0509,0.0299 c 0.0667,0.0391 0.1884,0.16284 0.30633,0.31151 0.14392,0.18144 0.1384,0.15813 0.0603,0.25479 -0.0366,0.0453 -0.0846,0.10757 -0.10679,0.13833 l -0.0402,0.0559 -0.0361,0.27961 c -0.0199,0.15379 -0.0387,0.30083 -0.0418,0.32677 l -0.006,0.0472 -0.27369,0.003 c -0.15052,0.002 -0.27505,6.6e-4 -0.27672,-0.002 z"
         id="path891" />
      <path
         style="fill:#ffffff;fill-opacity:1;stroke:#000000;stroke-width:0.2;stroke-miterlimit:4;stroke-dasharray:none;stroke-opacity:1;stop-color:#000000"
         d="m 103.79953,102.62222 c 0.01,-0.0433 0.0735,-0.54177 0.0735,-0.57541 0,-0.0208 0.0254,-0.0647 0.0784,-0.13509 0.16392,-0.21808 0.57441,-0.69802 0.61609,-0.72033 0.0173,-0.009 0.0314,-0.005 0.0706,0.0221 0.0773,0.0532 0.19597,0.10896 0.27513,0.12931 0.04,0.0103 0.13565,0.0454 0.2126,0.0781 0.18405,0.0781 0.70746,0.31813 0.71964,0.32995 0.005,0.005 -0.0114,0.0966 -0.0369,0.20327 -0.0255,0.10672 -0.0679,0.29469 -0.0941,0.41772 l -0.0477,0.22368 -0.11674,0.007 c -0.0642,0.004 -0.35832,0.0129 -0.65358,0.0195 -0.29528,0.007 -0.6642,0.0154 -0.81985,0.0193 l -0.28299,0.007 z"
         id="path893" />
      <path
         style="fill:#ffffff;fill-opacity:1;stroke:#000000;stroke-width:0.2;stroke-miterlimit:4;stroke-dasharray:none;stroke-opacity:1;stop-color:#000000"
         d="m 105.67888,101.62548 c -0.36704,-0.17115 -0.59372,-0.26859 -0.72403,-0.31121 -0.12605,-0.0412 -0.25224,-0.0998 -0.30874,-0.14323 l -0.0265,-0.0204 0.0377,-0.0263 c 0.16008,-0.11174 0.6995,-0.52229 0.75008,-0.57087 0.0596,-0.0572 0.0838,-0.10121 0.43916,-0.798716 l 0.37612,-0.738171 0.30945,-0.240465 c 0.1702,-0.132256 0.34111,-0.264975 0.37978,-0.29493 l 0.0704,-0.05447 0.50254,0.376792 0.50255,0.376791 0.024,0.10204 c 0.0688,0.293256 0.0724,0.559089 0.01,0.683015 -0.0389,0.07633 -0.28142,0.357504 -0.34763,0.403104 -0.1143,0.0787 -0.28744,0.12437 -0.3693,0.0973 -0.0218,-0.007 -0.0735,-0.043 -0.115,-0.0797 -0.0666,-0.0588 -0.0809,-0.0666 -0.1225,-0.0666 -0.0659,0 -0.12486,0.0482 -0.24894,0.20345 -0.12213,0.15284 -0.21937,0.24787 -0.36056,0.35239 -0.17859,0.13221 -0.21616,0.18296 -0.2867,0.38737 -0.0481,0.13951 -0.0765,0.18415 -0.15214,0.24039 -0.0785,0.0583 -0.0953,0.0786 -0.12438,0.15016 l -0.0247,0.0607 z"
         id="path895" />
      <path
         style="fill:#ffffff;fill-opacity:1;stroke:#000000;stroke-width:0.2;stroke-miterlimit:4;stroke-dasharray:none;stroke-opacity:1;stop-color:#000000"
         d="m 110.81847,102.28651 c -0.42558,-0.1308 -0.88502,-0.22392 -1.11285,-0.22554 -0.12508,-9e-4 -0.14144,0.002 -0.24046,0.0366 -0.0983,0.0348 -0.11627,0.0376 -0.24047,0.0373 -0.21818,-4.9e-4 -0.45613,-0.0508 -0.85561,-0.1808 -0.64568,-0.21016 -0.9463,-0.25582 -1.15727,-0.17575 -0.11862,0.045 -0.26733,0.0568 -0.51902,0.0412 -0.19349,-0.012 -0.55114,-0.0525 -0.71474,-0.081 -0.0643,-0.0112 -0.0697,-0.0143 -0.063,-0.0362 0.0177,-0.0592 0.0601,-0.11622 0.1205,-0.16209 0.0842,-0.0639 0.12108,-0.11587 0.15825,-0.22279 0.0849,-0.24433 0.10341,-0.27035 0.29523,-0.41616 0.14497,-0.1102 0.24516,-0.20938 0.3787,-0.37491 0.15846,-0.19641 0.19059,-0.20695 0.30576,-0.10029 0.0949,0.0879 0.15679,0.10482 0.28047,0.0768 0.10253,-0.0232 0.18549,-0.0594 0.25788,-0.11259 0.0723,-0.053 0.31594,-0.34609 0.35043,-0.421428 0.0561,-0.122575 0.0577,-0.341914 0.004,-0.616857 -0.0119,-0.06151 -0.0217,-0.115845 -0.0217,-0.120735 0,-0.03359 0.3602,0.30016 1.72677,1.5994 l 1.55041,1.47402 -0.10914,0.008 c -0.0601,0.004 -0.14184,0.01 -0.18183,0.0124 -0.0612,0.004 -0.0948,-0.002 -0.21251,-0.0381 z"
         id="path897" />
      <path
         style="fill:#ffffff;fill-opacity:1;stroke:#000000;stroke-width:0.2;stroke-miterlimit:4;stroke-dasharray:none;stroke-opacity:1;stop-color:#000000"
         d="m 105.71217,102.57675 c 0.003,-0.0143 0.0337,-0.15426 0.068,-0.31112 0.0562,-0.25784 0.0734,-0.33199 0.10659,-0.4594 l 0.0104,-0.04 0.12479,0.0202 c 0.32968,0.0532 0.52423,0.0702 0.8093,0.0706 l 0.27961,3.9e-4 0.10625,-0.0375 c 0.10514,-0.0371 0.10783,-0.0375 0.25724,-0.0319 0.22289,0.008 0.41889,0.0543 0.91713,0.21501 0.38024,0.12264 0.62525,0.17338 0.83467,0.17286 0.12377,-3.1e-4 0.18518,-0.0112 0.26699,-0.0474 0.0494,-0.0218 0.0743,-0.0247 0.2125,-0.024 0.22723,9.7e-4 0.48376,0.0485 0.93949,0.17404 0.17805,0.049 0.21516,0.0654 0.14799,0.0654 -0.0226,0 -0.31927,0.0175 -0.65933,0.0389 -1.36817,0.0861 -2.72906,0.15561 -3.82821,0.19544 -0.17224,0.006 -0.37752,0.0143 -0.45617,0.0179 l -0.143,0.007 z"
         id="path899" />
    </g>
  </g>
</svg>
