<?xml version="1.0" encoding="UTF-8" standalone="no"?>
<svg
   xmlns:dc="http://purl.org/dc/elements/1.1/"
   xmlns:cc="http://creativecommons.org/ns#"
   xmlns:rdf="http://www.w3.org/1999/02/22-rdf-syntax-ns#"
   xmlns:svg="http://www.w3.org/2000/svg"
   xmlns="http://www.w3.org/2000/svg"
   xmlns:sodipodi="http://sodipodi.sourceforge.net/DTD/sodipodi-0.dtd"
   xmlns:inkscape="http://www.inkscape.org/namespaces/inkscape"
   width="21.5mm"
   height="21.5mm"
   viewBox="0 0 21.5 21.5"
   version="1.1"
   id="svg858"
   inkscape:version="1.0.1 (3bc2e813f5, 2020-09-07)"
   sodipodi:docname="2_пищепром_легенда.svg">
  <defs
     id="defs852" />
  <sodipodi:namedview
     id="base"
     pagecolor="#ffffff"
     bordercolor="#666666"
     borderopacity="1.0"
     inkscape:pageopacity="0.0"
     inkscape:pageshadow="2"
     inkscape:zoom="5.6"
     inkscape:cx="39.411602"
     inkscape:cy="51.372764"
     inkscape:document-units="mm"
     inkscape:current-layer="layer1"
     inkscape:document-rotation="0"
     showgrid="false"
     inkscape:window-width="1710"
     inkscape:window-height="1030"
     inkscape:window-x="192"
     inkscape:window-y="0"
     inkscape:window-maximized="0"
     inkscape:snap-center="true" />
  <metadata
     id="metadata855">
    <rdf:RDF>
      <cc:Work
         rdf:about="">
        <dc:format>image/svg+xml</dc:format>
        <dc:type
           rdf:resource="http://purl.org/dc/dcmitype/StillImage" />
        <dc:title></dc:title>
      </cc:Work>
    </rdf:RDF>
  </metadata>
  <g
     inkscape:label="Слой 1"
     inkscape:groupmode="layer"
     id="layer1"
     transform="translate(-70.366302,-88.807899)">
    <circle
       style="opacity:0.999;fill:#ffffff;fill-opacity:1;stroke:#000000;stroke-width:1.5;stroke-linecap:round;stroke-miterlimit:4;stroke-dasharray:none;stroke-opacity:1"
       id="path1421"
       cx="81.116302"
       cy="99.557899"
       r="10" />
    <g
       id="g905"
       transform="matrix(0.07831539,0,0,0.07831539,73.616302,96.345827)"
       style="stroke-width:0.999803;stroke-miterlimit:4;stroke-dasharray:none">
      <path
         style="fill:#000000;stroke-width:0.999803;stroke-miterlimit:4;stroke-dasharray:none"
         d="M 37.847025,81.866781 C 24.317754,80.884169 13.107358,76.71025 6.7475582,70.287654 0.83032233,64.311986 -1.2992185,56.482037 0.77254728,48.318574 2.4342945,41.77072 5.781519,36.250202 11.662524,30.357932 19.699036,22.306034 31.879043,14.622258 44.483649,9.6526678 c 4.929431,-1.9435149 4.393276,-1.9539012 6.145422,0.1190218 8.86815,10.4916734 11.683834,25.0223424 7.393471,38.1548744 -0.921865,2.821756 1.760254,4.441208 3.861678,0.867819 2.218818,-3.773001 2.836506,-7.135208 4.101511,-12.262449 0.52189,-2.115294 0.972168,-6.326258 0.97664,-11.022424 0.0043,-4.75077 -0.496206,-6.18548 -1.542041,-8.138722 C 63.211832,13.24611 61.444829,9.8832752 59.429773,6.5661383 58.945579,5.7690668 58.611479,5.0548648 58.687327,4.9790172 59.132976,4.533375 69.911883,2.3106711 75.419315,1.5287434 l 3.665158,-0.5203684 1.40281,0.8958277 c 15.372201,9.8166163 22.182047,29.2223353 16.256214,46.3246163 -0.983527,3.493998 1.967799,4.376736 3.229941,2.196042 1.456262,-2.91309 5.071152,-12.331774 5.787732,-15.679727 0.48947,-2.286894 1.16174,-5.38787 1.94488,-9.004991 1.23613,-5.709289 -1.21491,-9.938113 -2.15474,-11.889236 C 103.20645,9.6251685 100.97466,5.126204 96.220213,4.5727872e-6 L 99.02464,0.156893 c 3.0493,0.17058746 6.85383,0.2690026 8.44662,0.40603264 3.75736,0.32323458 10.64569,1.17214506 11.62278,1.43238276 1.69708,0.4519856 6.80042,4.8051803 9.49255,8.0972226 8.70656,10.646747 11.35026,24.636604 7.12579,37.708097 -2.06692,2.940563 2.08642,4.331544 2.91481,2.876666 1.51317,-3.015389 4.26654,-10.508302 5.12326,-14.181761 0.61735,-2.647116 0.20888,-6.127437 0.22184,-10.790437 0.011,-3.969242 -1.0761,-6.649942 -1.42871,-8.54006 -0.62798,-3.36649 -1.48202,-4.610508 -3.05574,-7.7568339 -0.73388,-1.467235 -2.42625,-3.1639483 -2.38587,-3.2043222 0.0404,-0.04036 1.4844,0.3989964 3.20896,0.9763755 15.73933,5.2695096 30.11002,13.6872736 39.55987,23.1725406 5.88711,5.909186 9.22967,11.423575 10.88998,17.965778 2.07176,8.163484 -0.0584,15.995612 -5.97501,21.96853 -5.76426,5.819151 -14.87246,9.554614 -27.51795,11.285694 -2.71764,0.372031 -7.95032,0.41154 -59.811836,0.451622 C 66.197486,82.04856 39.37345,81.97763 37.847025,81.866781 Z"
         id="path845"
         sodipodi:nodetypes="csssssssscsssscsccssccssssccscsssssssssc" />
      <path
         style="opacity:0.999;fill:#ffffff;fill-opacity:1;stroke:none;stroke-width:0.999803;stroke-miterlimit:4;stroke-dasharray:none"
         d="m 58.398446,50.325195 c -0.403051,-0.40305 -0.44998,-0.526169 -0.44998,-1.180539 0,-0.437085 0.182063,-1.363097 0.453218,-2.305163 0.592193,-2.057435 1.075338,-4.368246 1.353916,-6.475582 0.314415,-2.378416 0.311167,-7.428635 -0.0063,-9.771651 C 58.853708,23.982078 56.638712,18.110468 53.084148,12.923937 52.03816,11.397715 49.837001,8.6512139 49.458283,8.399755 49.208379,8.2338262 49.611526,8.0801989 53.895281,6.7089453 c 2.591531,-0.8295637 4.732777,-1.4827967 4.758323,-1.4516286 0.02555,0.031168 0.224264,0.3842279 0.441598,0.7845776 0.217331,0.4003497 0.961402,1.7105848 1.653488,2.9116338 3.140907,5.4507479 5.326379,9.7074699 5.666251,11.0363659 0.679443,2.656592 0.64589,9.064628 -0.07457,14.241907 -0.270118,1.941095 -1.98495,8.78804 -2.635155,10.521587 -0.670998,1.788984 -1.77404,3.96217 -2.436387,4.8001 -0.995704,1.259664 -2.088599,1.553489 -2.87038,0.771707 z"
         id="path846" />
      <path
         style="opacity:0.999;fill:#ffffff;fill-opacity:1;stroke:none;stroke-width:0.999803;stroke-miterlimit:4;stroke-dasharray:none"
         d="m 97.440974,51.325633 c -0.47307,-0.297061 -0.847189,-1.113469 -0.847189,-1.848745 0,-0.274367 0.237789,-1.289349 0.528419,-2.255514 1.077745,-3.582819 1.523343,-6.083134 1.713507,-9.614723 C 99.31825,28.645206 96.70112,19.693752 91.425768,12.262203 90.095651,10.388428 88.618254,8.6848899 86.715985,6.8315122 84.700854,4.8681744 83.339346,3.7581898 81.150922,2.2945291 80.263992,1.7013324 79.549517,1.2047952 79.563197,1.1911133 79.57688,1.1774314 83.346933,0.94581796 87.941094,0.67641692 l 8.353021,-0.48982007 0.579962,0.62820807 c 2.744373,2.97266878 5.986033,7.93425668 8.776213,13.43260208 1.79028,3.527935 2.26328,5.294367 2.25037,8.404034 l -0.009,2.117551 -1.15823,5.282765 c -1.51087,6.891191 -2.1137,8.852496 -4.80065,15.619083 -1.52583,3.842508 -2.148314,5.114054 -2.693697,5.502401 -0.577134,0.410956 -1.290305,0.471393 -1.798309,0.152392 z"
         id="path848" />
      <path
         style="opacity:0.999;fill:#ffffff;fill-opacity:1;stroke:none;stroke-width:0.999803;stroke-miterlimit:4;stroke-dasharray:none"
         d="m 136.27673,50.904633 c -1.08023,-0.570668 -1.33129,-1.543953 -0.71299,-2.764107 0.59494,-1.174055 1.44652,-4.761703 1.87208,-7.886938 0.32168,-2.362303 0.32557,-7.414132 0.007,-9.727501 -1.12213,-8.161548 -4.25656,-15.16108 -9.53642,-21.2959494 -1.33478,-1.5509271 -4.21171,-4.2152416 -5.99464,-5.5516224 -0.7422,-0.5563079 -1.2782,-1.0278079 -1.19112,-1.0477775 0.0871,-0.019969 3.72572,0.798927 8.08586,1.8197708 4.36015,1.0208439 8.00978,1.8560798 8.1103,1.8560798 0.10052,0 0.3745,0.2166866 0.60884,0.4815261 1.81687,2.0532808 4.10297,6.5614916 4.72216,9.3121506 0.0901,0.40035 0.39375,1.680807 0.67474,2.84546 0.95957,3.977347 0.96999,4.092228 0.97779,10.786279 l 0.007,6.021787 -0.37237,1.389643 c -0.86689,3.235198 -3.30339,9.992274 -4.59394,12.740232 -0.23123,0.492348 -0.54678,0.983684 -0.70122,1.091863 -0.38837,0.272022 -1.3824,0.236133 -1.96358,-0.0709 z"
         id="path850" />
    </g>
  </g>
</svg>
