<?xml version="1.0" encoding="UTF-8" standalone="no"?>
<svg
   xmlns:dc="http://purl.org/dc/elements/1.1/"
   xmlns:cc="http://creativecommons.org/ns#"
   xmlns:rdf="http://www.w3.org/1999/02/22-rdf-syntax-ns#"
   xmlns:svg="http://www.w3.org/2000/svg"
   xmlns="http://www.w3.org/2000/svg"
   xmlns:sodipodi="http://sodipodi.sourceforge.net/DTD/sodipodi-0.dtd"
   xmlns:inkscape="http://www.inkscape.org/namespaces/inkscape"
   width="21.5mm"
   height="21.5mm"
   viewBox="0 0 21.5 21.5"
   version="1.1"
   id="svg858"
   inkscape:version="1.0.1 (3bc2e813f5, 2020-09-07)"
   sodipodi:docname="3_легкая_легенда.svg">
  <defs
     id="defs852" />
  <sodipodi:namedview
     id="base"
     pagecolor="#ffffff"
     bordercolor="#666666"
     borderopacity="1.0"
     inkscape:pageopacity="0.0"
     inkscape:pageshadow="2"
     inkscape:zoom="5.6"
     inkscape:cx="18.14913"
     inkscape:cy="33.918315"
     inkscape:document-units="mm"
     inkscape:current-layer="layer1"
     inkscape:document-rotation="0"
     showgrid="false"
     inkscape:window-width="1710"
     inkscape:window-height="1030"
     inkscape:window-x="192"
     inkscape:window-y="0"
     inkscape:window-maximized="0"
     inkscape:snap-center="true" />
  <metadata
     id="metadata855">
    <rdf:RDF>
      <cc:Work
         rdf:about="">
        <dc:format>image/svg+xml</dc:format>
        <dc:type
           rdf:resource="http://purl.org/dc/dcmitype/StillImage" />
        <dc:title></dc:title>
      </cc:Work>
    </rdf:RDF>
  </metadata>
  <g
     inkscape:label="Слой 1"
     inkscape:groupmode="layer"
     id="layer1"
     transform="translate(-70.366302,-88.807899)">
    <circle
       style="opacity:0.999;fill:#ffffff;fill-opacity:1;stroke:#000000;stroke-width:1.5;stroke-linecap:round;stroke-miterlimit:4;stroke-dasharray:none;stroke-opacity:1"
       id="path1421"
       cx="81.116302"
       cy="99.557899"
       r="10" />
    <g
       id="g1047"
       transform="matrix(0.02086609,0,0,0.02086609,73.032759,95.859593)"
       style="overflow:hidden;fill:currentColor">
      <circle
         style="overflow:hidden;opacity:0.999;fill:#ffffff;stroke:#000000;stroke-width:18.8976;stroke-miterlimit:4;stroke-dasharray:none"
         id="path835"
         cx="-272.17499"
         cy="272.04645"
         r="51.673756"
         transform="rotate(-90)" />
      <path
         style="overflow:hidden;opacity:0.999;fill:#ffffff;stroke:#000000;stroke-width:18.8976;stroke-miterlimit:4;stroke-dasharray:none"
         id="path835-6"
         transform="rotate(-90)"
         sodipodi:type="arc"
         sodipodi:cx="-61.121452"
         sodipodi:cy="61.120533"
         sodipodi:rx="51.673756"
         sodipodi:ry="51.673756"
         sodipodi:start="3.9048182"
         sodipodi:end="0.85176942"
         sodipodi:arc-type="arc"
         sodipodi:open="true"
         d="M -98.46143,25.400747 A 51.673756,51.673756 0 0 1 -47.381202,11.307055 51.673756,51.673756 0 0 1 -10.74952,49.594673 51.673756,51.673756 0 0 1 -27.086389,100.0023" />
      <path
         style="overflow:hidden;fill:none;stroke:#000000;stroke-width:18.8976;stroke-linecap:butt;stroke-linejoin:miter;stroke-miterlimit:4;stroke-dasharray:none;stroke-opacity:1"
         d="M 238.28084,311.38953 23.233001,96.341682"
         id="path854"
         sodipodi:nodetypes="cc" />
      <path
         style="overflow:hidden;fill:none;stroke:#000000;stroke-width:18.8976;stroke-linecap:butt;stroke-linejoin:miter;stroke-miterlimit:4;stroke-dasharray:none;stroke-opacity:1"
         d="M 314.06158,242.09331 98.628139,25.577665"
         id="path854-2" />
      <path
         style="overflow:hidden;fill:none;stroke:#000000;stroke-width:11.3386;stroke-linecap:butt;stroke-linejoin:miter;stroke-miterlimit:4;stroke-dasharray:none;stroke-opacity:1"
         d="m 292.51551,319.6217 c 0,0 160.65709,-55.5268 216.18384,0 55.52679,55.52677 256.65577,2.74408 256.65577,2.74408"
         id="path871"
         sodipodi:nodetypes="csc" />
      <path
         style="overflow:hidden;fill:none;stroke:#000000;stroke-width:11.3386;stroke-linecap:butt;stroke-linejoin:miter;stroke-miterlimit:4;stroke-dasharray:none;stroke-opacity:1"
         d="m 158.08099,84.256921 c 51.2087,-10.15482 119.54734,-15.625845 151.99231,16.819139 55.52674,55.5268 251.14899,-0.27455 251.14899,-0.27455"
         id="path871-4"
         sodipodi:nodetypes="csc" />
      <path
         style="overflow:hidden;fill:none;stroke:#000000;stroke-width:11.3386;stroke-linecap:butt;stroke-linejoin:miter;stroke-miterlimit:4;stroke-dasharray:none;stroke-opacity:1"
         d="M 759.74777,320.7032 555.53976,99.157264"
         id="path894"
         sodipodi:nodetypes="cc" />
      <path
         sodipodi:type="spiral"
         style="fill:none;fill-rule:evenodd;stroke:#000000;stroke-width:3.97548;stroke-miterlimit:4;stroke-dasharray:none"
         id="path875"
         sodipodi:cx="230.6479"
         sodipodi:cy="-383.97495"
         sodipodi:expansion="1"
         sodipodi:revolution="3"
         sodipodi:radius="100.52428"
         sodipodi:argument="-21.368872"
         sodipodi:t0="0"
         transform="matrix(0.46400913,0,0,0.48697889,163.06361,455.23497)"
         d="m 230.6479,-383.97495 c -4.09537,-2.93782 1.93962,-6.96989 4.88286,-6.80677 7.976,0.44204 10.83514,10.09455 8.7307,16.57249 -3.76435,11.58751 -17.89761,15.19851 -28.26212,10.65462 -15.21034,-6.66833 -19.66926,-25.79859 -12.57855,-39.95176 9.4508,-18.86394 33.7333,-24.18443 51.64139,-14.50247 22.53551,12.18377 28.72233,41.68383 16.42639,63.33103 -14.89202,26.21766 -49.6432,33.27333 -75.02066,18.35031 -29.90645,-17.58626 -37.83255,-57.6081 -20.27423,-86.71029 20.27177,-33.59964 65.57668,-42.39726 98.39993,-22.19816 37.29586,22.9515 46.9658,73.54785 24.12208,110.08956 -25.62721,40.99429 -81.52091,51.53714 -121.7792,26.04601 -44.69434,-28.29999 -56.11056,-89.49539 -27.96993,-133.46884" />
      <path
         style="opacity:0.999;fill:#ffffff;stroke:#000000;stroke-width:1.88976;stroke-miterlimit:4;stroke-dasharray:none"
         d="M 119.07813,178.28832 C 68.868666,128.04433 27.150764,85.978281 26.371675,84.808223 24.051459,81.323656 22.080402,77.074386 20.735193,72.656911 19.598775,68.925077 19.467553,67.746343 19.456484,61.170676 19.4453,54.526551 19.563426,53.455126 20.722858,49.684442 26.137693,32.07441 40.625181,20.455111 58.6695,19.250361 c 9.510217,-0.634961 19.80798,2.406177 27.381195,8.086221 1.560078,1.170086 43.424845,42.927203 93.032825,92.793598 81.20292,81.62592 90.06479,90.67851 88.87718,90.78989 -0.72553,0.068 -3.43637,0.46067 -6.02408,0.8725 -14.77471,2.35131 -29.40152,11.07813 -38.43614,22.93223 -6.60001,8.65969 -11.3815,20.35187 -12.24615,29.94548 -0.16502,1.83092 -0.43193,3.69834 -0.59315,4.14985 -0.22543,0.63134 -21.37492,-20.27538 -91.58305,-90.53181 z"
         id="path1030" />
      <path
         style="opacity:0.999;fill:#ffffff;stroke:none;stroke-width:0.891968;stroke-miterlimit:4;stroke-dasharray:none"
         d="m 264.75055,313.60841 c -1.30007,-0.23974 -3.32108,-0.74694 -4.49113,-1.12713 l -2.12738,-0.69125 2.60013,0.32389 c 1.43007,0.17813 4.94024,0.28777 7.80039,0.24363 6.58211,-0.10157 11.18488,-1.25613 17.58538,-4.4111 10.09442,-4.97581 17.87033,-14.68561 21.01178,-26.23746 0.83498,-3.07043 1.02849,-5.07175 1.02849,-10.6369 0,-8.33473 -0.85466,-12.0355 -4.47626,-19.38279 -2.12855,-4.31828 -3.00554,-5.51972 -6.74294,-9.23758 -6.13976,-6.10767 -12.1503,-9.07529 -20.58706,-10.16457 -6.52694,-0.8427 -14.89474,0.9175 -20.72189,4.35894 -3.88062,2.29184 -9.55273,8.07161 -11.67004,11.89155 -7.32596,13.21708 -5.39293,29.76838 4.64101,39.73788 5.43395,5.39907 11.2636,7.83633 18.76851,7.84676 7.34063,0.0102 13.24324,-2.36199 18.19267,-7.31141 4.89168,-4.89169 7.32189,-10.86009 7.31141,-17.95629 -0.0138,-9.30901 -4.60545,-17.14491 -12.13697,-20.71216 -2.99391,-1.41805 -3.57298,-1.526 -8.18571,-1.526 -4.52783,0 -5.21079,0.12123 -7.77464,1.38006 -3.39063,1.66478 -6.41876,4.58383 -7.96596,7.67903 -1.50351,3.00781 -1.81858,4.44234 -1.80662,8.22579 0.0257,8.13577 5.38265,14.16871 12.55797,14.14268 4.6626,-0.0169 7.8714,-1.97524 9.45782,-5.77209 1.99487,-4.77439 -0.45988,-10.29106 -4.5792,-10.29106 -2.97553,0 -5.33348,3.15191 -3.49773,4.67545 0.69982,0.5808 1.29937,0.10374 1.86551,-1.48438 0.46115,-1.29361 2.88764,-1.07872 3.81586,0.33793 1.12178,1.71205 0.97806,4.99505 -0.3018,6.89424 -3.44115,5.10631 -11.38592,4.43107 -15.00479,-1.2753 -4.864,-7.66974 -1.25893,-18.17146 7.35214,-21.41708 3.94493,-1.4869 9.75098,-1.22424 13.30981,0.60211 6.82679,3.50343 10.60485,10.08482 10.63256,18.52192 0.0306,9.31992 -4.6957,16.89574 -12.98832,20.8191 -12.14635,5.7466 -26.44022,0.39543 -32.673,-12.23175 -2.52871,-5.12299 -3.27254,-8.96888 -2.98663,-15.44224 0.3848,-8.71251 2.90861,-14.44724 9.05496,-20.57514 6.18545,-6.16688 12.95507,-8.93343 21.76844,-8.89615 9.15077,0.0387 16.52101,3.22247 22.98773,9.93011 3.54436,3.67641 5.79834,7.17113 7.55226,11.70956 5.74027,14.85345 2.49245,31.58715 -8.24593,42.48529 -4.84386,4.91593 -11.05746,8.54441 -17.7388,10.35873 -4.73007,1.28444 -14.51505,1.42941 -18.73779,0.27761 -6.48499,-1.76887 -11.16603,-4.11062 -16.34949,-8.17906 -4.49211,-3.52581 -8.83843,-10.87243 -10.90765,-18.43729 -1.39684,-5.10667 -1.50074,-15.41397 -0.20452,-20.28836 3.41919,-12.85774 11.52919,-22.74966 23.09522,-28.16968 11.49462,-5.38656 24.75915,-5.27054 36.26996,0.31724 4.0237,1.95325 5.10749,2.78879 10.55814,8.13971 5.632,5.52894 6.24382,6.30716 8.40473,10.69053 8.00159,16.2311 5.35939,34.4373 -6.87976,47.40532 -5.56738,5.89893 -11.69023,9.67129 -19.42057,11.96525 -3.76266,1.11656 -14.41066,1.63329 -18.4203,0.89391 z"
         id="path1032" />
      <path
         style="opacity:0.999;fill:#ffffff;stroke:#000000;stroke-width:1.88976;stroke-miterlimit:4;stroke-dasharray:none;stroke-opacity:1"
         d="m 584.80294,338.63024 c -23.89243,-1.48027 -42.99653,-5.72482 -56.72291,-12.60269 -5.85935,-2.93594 -10.25951,-5.99884 -15.19306,-10.57573 -13.01749,-12.0764 -27.59416,-19.09686 -47.9264,-23.08246 -33.17806,-6.50368 -80.60365,-2.97874 -132.60382,9.85589 -4.15866,1.02644 -7.60787,1.81958 -7.6649,1.76255 -0.057,-0.057 0.84295,-1.9272 1.99996,-4.15592 7.50493,-14.45651 8.65386,-32.77681 3.03022,-48.3185 -3.2869,-9.08378 -7.96082,-16.28794 -14.81716,-22.83846 -2.36362,-2.25819 -35.08805,-34.96697 -72.72096,-72.68618 l -68.42348,-68.580387 5.06919,-0.816607 c 8.79125,-1.416201 19.39742,-2.657736 29.66357,-3.472353 13.25723,-1.051958 35.96157,-0.726167 46.09321,0.661404 16.22909,2.222643 28.73493,6.116183 39.03055,12.151687 4.9818,2.92043 7.84739,5.116946 13.38433,10.259256 16.28131,15.12091 40.61147,22.90626 78.06438,24.97962 40.47841,2.24085 101.22314,-5.51204 162.08581,-20.68711 l 8.67812,-2.16374 2.48946,2.54457 c 9.66423,9.87816 192.18262,208.61487 191.8697,208.91896 -0.45507,0.44224 -20.81886,4.82492 -33.72468,7.25819 -50.08356,9.44281 -98.08936,13.66798 -131.66113,11.58801 z"
         id="path1034" />
    </g>
  </g>
</svg>
