<?xml version="1.0" encoding="UTF-8" standalone="no"?>
<svg
   xmlns:dc="http://purl.org/dc/elements/1.1/"
   xmlns:cc="http://creativecommons.org/ns#"
   xmlns:rdf="http://www.w3.org/1999/02/22-rdf-syntax-ns#"
   xmlns:svg="http://www.w3.org/2000/svg"
   xmlns="http://www.w3.org/2000/svg"
   xmlns:sodipodi="http://sodipodi.sourceforge.net/DTD/sodipodi-0.dtd"
   xmlns:inkscape="http://www.inkscape.org/namespaces/inkscape"
   width="21.5mm"
   height="21.5mm"
   viewBox="0 0 21.5 21.5"
   version="1.1"
   id="svg858"
   inkscape:version="1.0.1 (3bc2e813f5, 2020-09-07)"
   sodipodi:docname="4_дерево_легенда.svg">
  <defs
     id="defs852" />
  <sodipodi:namedview
     id="base"
     pagecolor="#ffffff"
     bordercolor="#666666"
     borderopacity="1.0"
     inkscape:pageopacity="0.0"
     inkscape:pageshadow="2"
     inkscape:zoom="7.919596"
     inkscape:cx="54.937658"
     inkscape:cy="49.964391"
     inkscape:document-units="mm"
     inkscape:current-layer="layer1"
     inkscape:document-rotation="0"
     showgrid="false"
     inkscape:window-width="1710"
     inkscape:window-height="1030"
     inkscape:window-x="192"
     inkscape:window-y="0"
     inkscape:window-maximized="0"
     inkscape:snap-center="true" />
  <metadata
     id="metadata855">
    <rdf:RDF>
      <cc:Work
         rdf:about="">
        <dc:format>image/svg+xml</dc:format>
        <dc:type
           rdf:resource="http://purl.org/dc/dcmitype/StillImage" />
        <dc:title></dc:title>
      </cc:Work>
    </rdf:RDF>
  </metadata>
  <g
     inkscape:label="Слой 1"
     inkscape:groupmode="layer"
     id="layer1"
     transform="translate(-70.366302,-88.807899)">
    <circle
       style="opacity:0.999;fill:#ffffff;fill-opacity:1;stroke:#000000;stroke-width:1.5;stroke-linecap:round;stroke-miterlimit:4;stroke-dasharray:none;stroke-opacity:1"
       id="path1421"
       cx="81.116302"
       cy="99.557899"
       r="10" />
    <g
       id="g908"
       style="overflow:hidden;fill:currentColor"
       transform="matrix(0.01984375,0,0,0.01984375,73.616302,93.291106)">
      <path
         style="fill:#000000;stroke-width:7.31116"
         d="M 61.664462,543.57224 C 26.274908,495.14936 -1.4476757,454.51973 0.05859869,453.28418 1.5645573,452.04816 41.455097,422.17446 88.703523,386.89698 135.95195,351.6195 174.52659,320.69115 174.42509,318.16717 174.33037,315.64319 136.13049,287.41752 89.551848,255.44337 42.973211,223.46937 3.3374527,193.33204 1.4722108,188.47162 -1.6961431,180.21473 100.37233,26.268378 119.58909,10.319819 128.04835,3.29921 160.1832,23.520099 302.69977,125.54228 379.1256,180.25262 363.03331,183.53463 493.09572,86.712775 556.56415,39.465186 612.38785,0.4457814 617.14804,0.00297589 625.85955,-0.80730563 752.32062,163.86214 752.04342,175.65487 c -0.0789,3.47728 -30.51461,28.45156 -67.62828,55.49868 -37.11383,27.04711 -76.72149,56.66698 -88.01697,65.82191 l -20.53723,16.64542 88.38698,61.35219 c 48.61279,33.74358 89.80628,63.6487 91.54114,66.45571 4.31282,6.97824 -112.49322,175.72565 -124.94311,180.5032 -5.48317,2.10408 -25.66128,-7.55979 -44.84031,-21.47554 -19.17887,-13.9156 -73.53483,-51.95873 -120.79099,-84.54032 l -85.92031,-59.23927 -117.00588,87.46857 c -64.35321,48.10765 -121.34238,87.46842 -126.6426,87.46842 -5.30021,0 -38.591843,-39.61871 -73.981398,-88.0416 z m 148.517358,13.67502 c 38.36674,-28.83816 82.04412,-65.34897 97.06124,-81.13518 15.01697,-15.78604 30.57081,-26.68277 34.56396,-24.21483 3.99332,2.46794 9.16425,1.40651 11.49107,-2.35823 4.44984,-7.19987 -139.74033,-112.69259 -154.13187,-112.76615 -8.35665,-0.0474 -170.779813,118.39944 -170.779813,124.53599 0,1.79231 15.246174,23.07242 33.880439,47.28915 l 33.880596,44.03019 17.034698,-20.82438 c 9.36915,-11.45317 17.15309,-22.73681 17.29769,-25.07452 0.14207,-2.33771 25.40018,-26.83716 56.12332,-54.44356 60.50039,-54.36259 61.23837,-43.93816 1.67234,23.62729 -20.54829,23.30778 -45.69211,54.81452 -55.87517,70.01508 -16.50177,24.63252 -17.46407,29.60061 -8.85074,45.69479 5.31521,9.93159 11.28648,18.05746 13.26932,18.05746 1.98301,0 34.99633,-23.59494 73.36292,-52.4331 z m 425.35707,29.89139 c 10.50256,-19.62435 -0.42621,-32.0021 -74.11526,-83.94125 -53.10446,-37.43018 -80.21772,-61.6739 -68.97417,-61.6739 2.88752,0 13.983,6.15043 24.65652,13.6676 10.67368,7.51716 32.89351,20.4913 49.37745,28.83137 16.48409,8.33992 45.0632,26.68373 63.5093,40.76412 l 33.53852,25.60035 15.04143,-23.35925 15.04144,-23.35925 -31.02828,-27.77372 -31.02811,-27.77358 38.19657,18.663 38.19642,18.66299 12.14428,-18.53434 c 6.67925,-10.19395 10.87605,-19.49822 9.32605,-20.6763 -1.55016,-1.17762 -30.78328,-21.17672 -64.96302,-44.44173 l -62.14494,-42.29991 38.34306,37.83855 c 27.86071,27.49416 33.85692,36.56922 21.93348,33.1955 -18.19984,-5.14963 -72.29533,-61.81108 -67.07546,-70.25708 1.82025,-2.9453 -102.2628,-78.39304 -231.29599,-167.6615 C 189.58049,71.791519 127.49695,32.419493 121.33642,38.580048 c -6.16054,6.160555 -3.73696,11.45531 9.48169,20.713988 9.76679,6.840904 31.01786,26.900636 47.22491,44.577114 16.20689,17.67655 40.9234,40.0143 54.9255,49.63918 14.0021,9.62503 23.2639,17.50006 20.58159,17.50006 -16.44967,0 -46.59237,-18.57318 -81.61285,-50.28797 -63.69605,-57.683394 -64.91866,-57.892286 -95.445577,-16.30634 -14.394534,19.60919 -26.171794,38.92555 -26.171794,42.9255 0,3.99979 9.940748,11.39004 22.090393,16.42253 12.149803,5.03265 23.85287,12.00189 26.006832,15.48722 3.936176,6.36875 -23.490271,-2.38286 -47.15087,-15.0457 -9.429764,-5.04669 -14.91199,-3.23686 -21.331099,7.04186 -7.579518,12.13654 -4.718039,16.5324 23.318207,35.82177 0,0 103.557708,70.00384 229.901948,157.68697 69.75288,48.25382 131.00878,86.8665 136.1243,85.80618 5.11536,-1.0608 22.36364,11.13525 38.32949,27.1011 21.754,21.75384 157.69376,122.2821 168.20816,124.39076 0.86348,0.17364 5.23849,-6.53877 9.72164,-14.91562 z M 325.55625,357.79425 c -10.6399,-9.86087 -19.3672,-25.48859 -19.39356,-34.72813 -0.0789,-25.88465 -25.29553,-58.28092 -59.94647,-77.00043 l -31.39497,-16.9605 25.58898,4.57044 c 14.07408,2.51388 33.26748,9.43908 42.65194,15.38951 16.75055,10.62111 44.60558,61.66601 44.92161,82.31958 0.0947,5.77269 7.314,18.11018 16.05724,27.41698 21.20276,22.56917 6.06472,21.74421 -18.48477,-1.00713 z M 580.3796,280.6778 c 12.94525,-14.3044 12.77129,-14.61979 -8.00589,-14.5104 -11.68128,0.0631 -26.17384,3.35163 -32.20557,7.31116 -9.74816,6.39938 -9.74816,7.99926 0,14.39848 16.28835,10.69262 25.51448,9.0408 40.21146,-7.19924 z m -47.52262,-18.27782 c 5.00597,-6.03173 19.94116,-10.96682 33.18934,-10.96682 40.30365,0 156.901,-60.12927 156.901,-80.91387 0,-9.17656 -74.73849,-109.176488 -81.59707,-109.176488 -2.86464,0 -31.94637,23.030181 -64.62631,51.178138 -32.67977,28.14801 -62.51354,51.17813 -66.29706,51.17813 -3.78368,0 21.19929,-28.52434 55.51746,-63.3876 C 606.8608,58.74504 625.86476,34.447376 621.14767,29.730347 616.43074,25.013302 605.6584,28.81367 589.85578,40.769608 576.6016,50.797556 526.81231,87.897952 479.21296,123.21499 l -86.54431,64.21272 20.74371,13.49032 c 11.40914,7.41977 28.62284,19.35347 38.25293,26.5194 37.87154,28.18131 63.12271,45.22848 67.50199,45.57072 2.52351,0.19732 8.68389,-4.57644 13.6897,-10.60817 z"
         id="path870"
         sodipodi:nodetypes="ssscsssssscsscssssscssssssscsscscsssssssssssscccccccssscssssssssssssssssccssssscscsscsssscssssssssssssscssss" />
      <path
         style="opacity:0.999;fill:#ffffff;stroke:#000000;stroke-width:11.9325;stroke-miterlimit:4;stroke-dasharray:none"
         d="m 133.03459,605.35205 c -4.98356,-5.82214 -11.97474,-18.58468 -13.5339,-24.70645 -1.19182,-4.68112 -1.1713,-6.07694 0.15786,-10.60329 4.11187,-14.01048 26.99786,-45.06842 70.18572,-95.24729 29.44134,-34.20719 40.68472,-48.70016 42.65905,-54.98885 0.57933,-1.84557 0.32676,-2.2465 -1.41441,-2.2465 -4.62348,0 -21.8214,13.64545 -53.42901,42.39267 -29.56067,26.88552 -45.69653,43.15053 -49.25432,49.64859 -4.20421,7.6789 -29.588613,40.5763 -32.037769,41.52014 C 95.714282,551.3727 87.010662,540.2988 59.399526,504.08825 42.736267,482.23526 29.38959,463.3044 29.403955,461.54265 c 0.03157,-3.62821 41.181181,-35.55402 103.825275,-80.5484 41.06642,-29.49617 62.34226,-43.30988 66.70544,-43.30988 11.00281,0 114.90386,73.49274 145.21372,102.71468 4.25583,4.10309 7.73801,8.04038 7.73801,8.74954 0,2.37162 -3.996,3.58634 -9.52511,2.89553 -4.22395,-0.52772 -6.07356,-0.26078 -9.18367,1.326 -6.01436,3.06827 -13.72143,9.38331 -25.7219,21.07619 -27.58698,26.87964 -65.96035,58.421 -117.11354,96.26241 -24.48335,18.11204 -53.32656,38.55175 -54.40157,38.55175 -0.30782,0 -2.06588,-1.75878 -3.90586,-3.90839 z"
         id="path872" />
      <path
         style="opacity:0.999;fill:#ffffff;stroke:#000000;stroke-width:11.9325;stroke-miterlimit:4;stroke-dasharray:none"
         d="M 622.06577,599.96613 C 601.1481,586.85391 571.93771,566.09693 528.77258,533.67199 489.99825,504.54526 471.15356,489.5336 458.03941,477.32585 440.02,460.55187 426.12003,450.50825 420.9251,450.50825 c -8.32255,0 -69.03494,-38.69061 -166.88468,-106.35172 C 199.52156,306.45776 133.72237,261.30085 85.303909,228.35515 34.420029,193.73204 29.544448,189.94038 27.347548,183.28378 c -1.002394,-3.0395 -0.827172,-4.08742 1.480701,-8.80378 3.313109,-6.77195 9.496064,-12.52134 13.465386,-12.52134 1.60162,0 8.151593,2.49977 14.55539,5.55502 21.903648,10.45028 39.229434,16.05591 41.71758,13.49749 2.146705,-2.20729 -5.719801,-7.74232 -23.051585,-16.2196 -11.280957,-5.51771 -17.660128,-9.28586 -20.778283,-12.2736 l -4.499565,-4.31138 1.598937,-3.85721 c 5.752004,-13.87611 36.351379,-57.137634 45.17355,-63.866632 4.765081,-3.634523 10.435941,-5.492993 14.466521,-4.740945 5.16824,0.964351 15.58272,6.84725 23.74978,13.415645 4.1185,3.312399 16.69894,14.227852 27.95637,24.256562 38.29634,34.11634 59.32294,48.97492 78.78358,55.67273 5.71317,1.96635 12.07451,2.46811 12.07451,0.95251 0,-1.24013 -7.45102,-7.32354 -19.99121,-16.32191 C 217.98218,142.18817 206.23697,131.5016 174.1651,99.230607 157.96547,82.930293 140.90693,66.675301 136.25725,63.108421 118.85995,49.762486 116.07187,45.790654 120.49283,40.650899 c 2.28309,-2.654228 2.5565,-2.720497 6.31334,-1.530584 6.18154,1.957983 24.52597,11.813393 40.81038,21.9251 86.44123,53.675195 362.34769,245.774915 420.60967,292.849085 4.44684,3.59294 6.9956,6.33664 6.67136,7.18154 -0.72456,1.88657 3.44934,9.81434 9.24334,17.55916 6.79323,9.08041 27.02753,29.77164 38.23887,39.10244 14.18822,11.80826 26.01394,17.03533 26.01394,11.49842 0,-3.64519 -9.43308,-14.27535 -35.38024,-39.87008 -13.21487,-13.03542 -23.64908,-23.70625 -23.18687,-23.71298 0.46252,-0.007 7.65087,4.63329 15.975,10.31115 83.7684,57.13769 103.49567,70.83555 103.4873,71.85789 -0.0316,3.52506 -19.82325,36.63326 -21.90175,36.63326 -0.40885,0 -17.23155,-8.08738 -37.38551,-17.97194 -20.15395,-9.88457 -37.08888,-17.97195 -37.63302,-17.97195 -0.54461,0 12.76845,12.3133 29.58341,27.36291 16.81512,15.04961 30.51571,27.7423 30.44594,28.20597 -0.33308,2.20975 -28.62853,45.20748 -29.53321,44.87801 -0.56987,-0.20742 -9.90349,-7.14234 -20.74182,-15.41077 -30.56101,-23.31487 -52.28455,-37.51791 -80.06333,-52.3459 -17.47101,-9.32584 -28.26656,-15.67918 -45.42912,-26.73579 -15.91233,-10.25122 -20.99218,-12.94353 -24.42194,-12.94353 -3.90587,0 -3.19172,3.04839 2.09018,8.9232 9.29054,10.33328 32.18679,28.33315 74.75001,58.76466 54.78438,39.16937 69.41412,53.20165 69.38192,66.54894 -0.0107,4.46989 -2.93315,11.42328 -8.37859,19.93594 -3.67508,5.74504 -4.73272,6.31069 -7.98632,4.27113 z M 354.36268,374.66094 c 1.00713,-1.63048 -2.97561,-8.18386 -9.36915,-15.4142 -11.57836,-13.09382 -15.47254,-20.29434 -17.07116,-31.56598 -2.75303,-19.4114 -22.70114,-57.72245 -38.09775,-73.16809 -9.94643,-9.97818 -29.20408,-17.56788 -57.58051,-22.6932 -9.05737,-1.63596 -16.64905,-2.79345 -16.87021,-2.57219 -0.221,0.22131 6.92789,4.32824 15.88724,9.12666 29.06768,15.56815 43.78961,26.74317 56.86051,43.16131 10.90131,13.69275 15.85203,25.00081 17.71601,40.46536 1.85103,15.35754 9.79599,28.15423 25.68244,41.36607 11.65097,9.68947 20.98286,14.30345 22.84258,11.29426 z"
         id="path874" />
      <path
         style="opacity:0.999;fill:#ffffff;stroke:#000000;stroke-width:11.9325;stroke-miterlimit:4;stroke-dasharray:none"
         d="m 512.44966,269.35626 c -10.30461,-6.21369 -23.94711,-15.6519 -49.73499,-34.40765 -14.00305,-10.18462 -35.0841,-24.93427 -46.84653,-32.777 -11.76242,-7.84273 -21.55636,-14.42958 -21.76425,-14.63745 -0.20838,-0.20789 7.39419,-6.13851 16.89341,-13.1792 34.99396,-25.93712 129.92208,-96.510497 156.91631,-116.657825 30.33118,-22.637873 36.68541,-26.801833 43.75378,-28.671684 5.24229,-1.386776 9.79947,-0.1547 9.79947,2.648388 0,3.093245 -5.10526,11.508397 -12.81454,21.122111 -10.02899,12.506592 -16.77187,19.866942 -47.4107,51.75233 -35.45728,36.89987 -53.09831,57.2435 -51.24554,59.09625 2.10503,2.10504 25.01928,-15.32275 68.53786,-52.12767 44.62452,-37.740238 60.57805,-49.957572 63.87032,-48.91262 8.1688,2.592696 79.91763,99.46933 79.90153,107.88465 -0.0158,11.86705 -43.68638,40.92114 -93.49225,62.2103 -28.02141,11.97761 -44.40668,16.7548 -62.48987,18.21926 -7.51243,0.60838 -14.75129,1.87987 -19.82182,3.48168 -6.87563,2.17201 -8.92036,3.39394 -14.6861,8.77687 -7.16909,6.69291 -11.01433,9.61023 -12.66157,9.60611 -0.56513,-0.001 -3.58131,-1.54353 -6.70452,-3.42685 z"
         id="path876" />
      <path
         style="opacity:0.999;fill:#ffffff;stroke:#000000;stroke-width:4.27087;stroke-miterlimit:4;stroke-dasharray:none"
         d="m 553.5743,293.98624 c -7.18987,-1.56818 -20.57315,-10.09413 -20.57315,-13.10633 0,-1.37264 1.22549,-2.87908 4.11463,-5.05796 6.71324,-5.06286 16.69153,-8.12509 30.16425,-9.25711 5.52861,-0.46453 17.7488,-0.22356 19.83324,0.39109 3.42515,1.00999 2.48525,3.1481 -5.14647,11.70738 -11.89047,13.33563 -19.26261,17.31424 -28.3925,15.32293 z"
         id="path901" />
    </g>
  </g>
</svg>
