<?xml version="1.0" encoding="UTF-8" standalone="no"?>
<svg
   xmlns:dc="http://purl.org/dc/elements/1.1/"
   xmlns:cc="http://creativecommons.org/ns#"
   xmlns:rdf="http://www.w3.org/1999/02/22-rdf-syntax-ns#"
   xmlns:svg="http://www.w3.org/2000/svg"
   xmlns="http://www.w3.org/2000/svg"
   xmlns:sodipodi="http://sodipodi.sourceforge.net/DTD/sodipodi-0.dtd"
   xmlns:inkscape="http://www.inkscape.org/namespaces/inkscape"
   width="21.5mm"
   height="21.5mm"
   viewBox="0 0 21.5 21.5"
   version="1.1"
   id="svg858"
   inkscape:version="1.0.1 (3bc2e813f5, 2020-09-07)"
   sodipodi:docname="6_машиностроение_легенда.svg">
  <defs
     id="defs852" />
  <sodipodi:namedview
     id="base"
     pagecolor="#ffffff"
     bordercolor="#666666"
     borderopacity="1.0"
     inkscape:pageopacity="0.0"
     inkscape:pageshadow="2"
     inkscape:zoom="3.959798"
     inkscape:cx="13.907201"
     inkscape:cy="20.527048"
     inkscape:document-units="mm"
     inkscape:current-layer="layer1"
     inkscape:document-rotation="0"
     showgrid="false"
     inkscape:window-width="1710"
     inkscape:window-height="1030"
     inkscape:window-x="192"
     inkscape:window-y="0"
     inkscape:window-maximized="0"
     inkscape:snap-center="true" />
  <metadata
     id="metadata855">
    <rdf:RDF>
      <cc:Work
         rdf:about="">
        <dc:format>image/svg+xml</dc:format>
        <dc:type
           rdf:resource="http://purl.org/dc/dcmitype/StillImage" />
        <dc:title></dc:title>
      </cc:Work>
    </rdf:RDF>
  </metadata>
  <g
     inkscape:label="Слой 1"
     inkscape:groupmode="layer"
     id="layer1"
     transform="translate(-70.366302,-88.807899)">
    <circle
       style="opacity:0.999;fill:#ffffff;fill-opacity:1;stroke:#000000;stroke-width:1.5;stroke-linecap:round;stroke-miterlimit:4;stroke-dasharray:none;stroke-opacity:1"
       id="path1421"
       cx="81.116302"
       cy="99.557899"
       r="10" />
    <g
       id="g843"
       style="overflow:hidden;fill:currentColor"
       transform="matrix(0.01984375,0,0,0.01984375,73.616303,92.059006)">
      <path
         style="fill:#000000;stroke-width:2.52736"
         d="m 336.33792,749.70417 c -1.27345,-3.34943 -8.10067,-22.90479 -15.17162,-43.45644 -7.07093,-20.55161 -13.10909,-37.51645 -13.41812,-37.69964 -0.30904,-0.18324 -7.95443,-2.93648 -16.98978,-6.1184 -9.03532,-3.18194 -26.27233,-10.83208 -38.30446,-17.00031 l -21.87662,-11.21498 -16.03388,7.41055 c -8.81867,4.07582 -27.09218,12.67689 -40.60779,19.11354 L 149.3618,672.44144 117.70173,640.31868 C 100.2887,622.65117 86.041683,607.37961 86.041683,606.38186 c 0,-0.99775 8.187507,-19.06656 18.194437,-40.15292 l 18.19444,-38.33884 -10.6918,-20.79085 c -5.8805,-11.43496 -13.390543,-28.51419 -16.689009,-37.95378 -3.298442,-9.43962 -6.958953,-18.02027 -8.134458,-19.06817 -1.175529,-1.04788 -16.353733,-6.71059 -33.729381,-12.58382 -17.375649,-5.87319 -36.4507,-12.45377 -42.389,-14.62352 L 0,418.92502 0.68744384,373.46638 1.3748877,328.00772 44.718423,312.94077 88.061959,297.87383 93.617492,282.31117 c 3.055535,-8.55945 11.087638,-26.03 17.849128,-38.8234 l 12.29361,-23.26074 -18.81854,-38.65976 C 94.591513,160.30441 86.104842,141.75311 86.082425,140.3422 c -0.02275,-1.4109 14.114405,-16.68646 31.415145,-33.94565 l 31.45591,-31.38036 40.98325,19.53498 40.98326,19.53497 17.9142,-8.68529 c 9.85284,-4.77686 27.21787,-11.751 38.58902,-15.49799 l 20.67476,-6.81274 11.66123,-32.01181 c 6.4137,-17.60647 13.18921,-35.99238 15.05673,-40.85757 L 338.21145,1.37495 383.6321,0.6875 429.05275,0 443.94053,40.86992 c 8.1883,22.47848 16.59376,41.76133 18.67884,42.85082 2.08508,1.08947 13.45823,5.03849 25.27368,8.77555 11.81545,3.7371 27.77637,9.96112 35.46871,13.83121 l 13.9861,7.03655 38.82392,-18.71588 c 21.35314,-10.29373 39.89096,-18.71588 41.19513,-18.71588 2.96568,0 64.05396,63.36325 63.36811,65.72796 -0.27587,0.95122 -8.86964,19.24938 -19.09726,40.66258 l -18.59569,38.93307 8.27134,16.42788 c 4.54923,9.03535 11.36138,26.29198 15.13807,38.34807 l 6.8667,21.9202 40.60605,14.95497 40.60604,14.95497 0.68763,45.57713 0.68761,45.57712 -41.08109,15.15259 -41.08111,15.15264 -6.56208,21.30497 c -3.60913,11.71774 -10.25739,29.32208 -14.77387,39.12073 l -8.21182,17.81576 19.22766,40.10287 19.22762,40.1029 -32.53097,32.531 -32.53103,32.53099 -39.71438,-19.07124 -39.71441,-19.07126 -20.50889,10.34134 c -11.27987,5.68772 -29.03942,13.45137 -39.46559,17.25255 l -18.95671,6.91125 -15.05417,43.30035 -15.05413,43.30035 h -45.23363 -45.23362 z m 96.25525,-234.59075 c 24.78664,-9.08892 39.50805,-18.53917 57.82724,-37.12163 19.33593,-19.61385 31.07573,-40.45962 37.97258,-67.426 13.53572,-52.92417 -0.62742,-102.94058 -40.3887,-142.63074 -30.15471,-30.10076 -61.46015,-42.8881 -104.99698,-42.8881 -42.01061,0 -75.6682,13.922 -105.30359,43.55742 -18.16042,18.16038 -34.5723,47.07293 -39.83357,70.1741 -4.56279,20.03414 -3.31054,58.15792 2.54394,77.45032 15.28367,50.36432 59.37384,92.00163 109.57388,103.478 22.96671,5.25048 61.62154,3.10102 82.6052,-4.59337 z"
         id="path3009"
         sodipodi:nodetypes="ssssscsscssscssssscccccsscscsccccscsscccsssscsssscsscccccccsscccccccsscccccsssssssssss" />
      <path
         style="opacity:0.999;fill:#ffffff;stroke-width:1.65894;stroke-linecap:round"
         d="M 351.23937,519.36625 C 300.13618,507.6088 255.4966,465.30671 240.71047,414.62503 c -2.6001,-8.91225 -3.33522,-16.04237 -3.93152,-38.13286 -0.65761,-24.36228 -0.41226,-28.441 2.37357,-39.45748 10.32646,-40.8356 43.84239,-80.82986 82.83404,-98.84511 19.81808,-9.15651 32.96916,-11.54069 62.90402,-11.40396 22.05784,0.10075 28.237,0.63015 38.04049,3.25908 50.94908,13.66269 95.94767,61.60339 106.81192,113.79553 6.66902,32.03814 0.18998,73.22063 -16.1031,102.35537 -18.77614,33.57488 -54.47182,61.53514 -90.70882,71.05181 -15.18484,3.98789 -58.06024,5.25508 -71.6917,2.11884 z"
         id="path839" />
    </g>
  </g>
</svg>
