<?xml version="1.0" encoding="UTF-8" standalone="no"?>
<svg
   xmlns:dc="http://purl.org/dc/elements/1.1/"
   xmlns:cc="http://creativecommons.org/ns#"
   xmlns:rdf="http://www.w3.org/1999/02/22-rdf-syntax-ns#"
   xmlns:svg="http://www.w3.org/2000/svg"
   xmlns="http://www.w3.org/2000/svg"
   xmlns:sodipodi="http://sodipodi.sourceforge.net/DTD/sodipodi-0.dtd"
   xmlns:inkscape="http://www.inkscape.org/namespaces/inkscape"
   width="21.5mm"
   height="21.5mm"
   viewBox="0 0 21.5 21.5"
   version="1.1"
   id="svg858"
   inkscape:version="1.0.1 (3bc2e813f5, 2020-09-07)"
   sodipodi:docname="7_автопром_легенда.svg">
  <defs
     id="defs852">
    <inkscape:path-effect
       effect="bspline"
       id="path-effect2921"
       is_visible="true"
       lpeversion="1"
       weight="33.333333"
       steps="2"
       helper_size="0"
       apply_no_weight="true"
       apply_with_weight="true"
       only_selected="false" />
  </defs>
  <sodipodi:namedview
     id="base"
     pagecolor="#ffffff"
     bordercolor="#666666"
     borderopacity="1.0"
     inkscape:pageopacity="0.0"
     inkscape:pageshadow="2"
     inkscape:zoom="6.4171414"
     inkscape:cx="32.194644"
     inkscape:cy="38.99876"
     inkscape:document-units="mm"
     inkscape:current-layer="layer1"
     inkscape:document-rotation="0"
     showgrid="false"
     inkscape:window-width="1710"
     inkscape:window-height="1030"
     inkscape:window-x="192"
     inkscape:window-y="0"
     inkscape:window-maximized="0"
     inkscape:snap-center="true" />
  <metadata
     id="metadata855">
    <rdf:RDF>
      <cc:Work
         rdf:about="">
        <dc:format>image/svg+xml</dc:format>
        <dc:type
           rdf:resource="http://purl.org/dc/dcmitype/StillImage" />
        <dc:title />
      </cc:Work>
    </rdf:RDF>
  </metadata>
  <g
     inkscape:label="Слой 1"
     inkscape:groupmode="layer"
     id="layer1"
     transform="translate(-70.366302,-88.807899)">
    <circle
       style="opacity:0.999;fill:#ffffff;fill-opacity:1;stroke:#000000;stroke-width:1.5;stroke-linecap:round;stroke-miterlimit:4;stroke-dasharray:none;stroke-opacity:1"
       id="path1421"
       cx="81.116302"
       cy="99.557899"
       r="10" />
    <g
       id="g863">
      <path
         style="fill:none;stroke:#000000;stroke-width:1;stroke-linecap:butt;stroke-linejoin:miter;stroke-miterlimit:4;stroke-dasharray:none;stroke-opacity:1"
         d="m 87.395431,101.91042 1.080999,-0.33822 -0.116596,-2.76916 -1.967559,-0.204043 -1.355429,-1.4866 -5.028206,0.01457 -1.850963,1.763515 c 0,0 -2.617435,0.281055 -3.787752,0.406989 -0.126838,0.07325 -0.253688,0.14649 -0.380558,0.219715 -0.07772,0.150618 -0.233192,0.45181 -0.233192,0.45181 v 2.025854 h 1.063939"
         id="path2872"
         sodipodi:nodetypes="cccccccccccc" />
      <path
         style="opacity:0.999;fill:none;fill-opacity:1;stroke:#000000;stroke-width:1;stroke-linecap:round;stroke-miterlimit:4;stroke-dasharray:none;stroke-opacity:1"
         id="path2874"
         sodipodi:type="arc"
         sodipodi:cx="76.31382"
         sodipodi:cy="101.9753"
         sodipodi:rx="1.4938873"
         sodipodi:ry="1.8218137"
         sodipodi:start="3.1261668"
         sodipodi:end="0.0048039463"
         sodipodi:arc-type="arc"
         sodipodi:open="true"
         d="m 74.82011,102.00341 a 1.4938873,1.8218137 0 0 1 0.735561,-1.59787 1.4938873,1.8218137 0 0 1 1.502582,-0.01 1.4938873,1.8218137 0 0 1 0.749437,1.58826" />
      <path
         style="overflow:hidden;opacity:0.999;fill:none;fill-opacity:1;stroke:#000000;stroke-width:1;stroke-linecap:round;stroke-miterlimit:4;stroke-dasharray:none;stroke-opacity:1"
         id="path2874-1"
         sodipodi:type="arc"
         sodipodi:cx="86.027695"
         sodipodi:cy="101.92905"
         sodipodi:rx="1.4938873"
         sodipodi:ry="1.8218137"
         sodipodi:start="3.1261668"
         sodipodi:end="6.2536884"
         sodipodi:arc-type="arc"
         sodipodi:open="true"
         d="m 84.533985,101.95715 a 1.4938873,1.8218137 0 0 1 1.460158,-1.84946 1.4938873,1.8218137 0 0 1 1.526789,1.76763" />
      <path
         style="fill:none;stroke:#000000;stroke-width:1;stroke-linecap:butt;stroke-linejoin:miter;stroke-miterlimit:4;stroke-dasharray:none;stroke-opacity:1"
         d="m 77.807694,101.98405 6.726294,-0.0269"
         id="path2909"
         sodipodi:nodetypes="cc" />
      <path
         style="fill:none;stroke:#000000;stroke-width:0.4;stroke-linecap:butt;stroke-linejoin:miter;stroke-miterlimit:4;stroke-dasharray:none;stroke-opacity:1"
         d="m 78.157677,98.890487 h 6.416945 l -0.475709,-1.775371"
         id="path2911" />
      <path
         style="fill:none;stroke:#000000;stroke-width:0.275423;stroke-linecap:butt;stroke-linejoin:miter;stroke-miterlimit:4;stroke-dasharray:none;stroke-opacity:1"
         d="m 81.859603,98.890487 0.254993,-1.769619"
         id="path2917" />
      <path
         style="fill:none;stroke:#000000;stroke-width:0.4;stroke-linecap:butt;stroke-linejoin:miter;stroke-miterlimit:4;stroke-dasharray:none;stroke-opacity:1"
         d="m 78.157677,98.890487 c -1.005624,-0.612119 -2.011265,-1.224248 -2.634712,-1.46068 -0.623446,-0.236431 -0.864676,-0.09716 -1.105915,0.04212"
         id="path2919"
         inkscape:path-effect="#path-effect2921"
         inkscape:original-d="M 78.157677,98.890487 C 77.15205,98.278373 76.146409,97.666243 75.140753,97.054099 74.899529,97.193394 74.658299,97.332668 74.41705,97.47193" />
      <path
         style="opacity:0.999;fill:#ffffff;fill-opacity:1;stroke:none;stroke-width:1;stroke-linecap:round;stroke-miterlimit:4;stroke-dasharray:none;stroke-opacity:1"
         d="m 73.9062,100.93738 v -0.91892 l 0.09903,-0.196033 c 0.0851,-0.168456 0.121684,-0.20896 0.260102,-0.28797 l 0.161074,-0.09194 1.80219,-0.199548 1.802191,-0.199548 3.369252,-0.01458 3.369253,-0.01457 -0.227116,-0.845322 c -0.124913,-0.464927 -0.227714,-0.861718 -0.228445,-0.881758 -9.88e-4,-0.02708 0.08321,-0.03644 0.327749,-0.03644 h 0.329078 l 0.630595,0.693028 c 0.346827,0.381165 0.656946,0.716875 0.689152,0.746021 0.04838,0.04379 0.218566,0.06955 0.979627,0.148327 0.506589,0.05243 0.928168,0.10243 0.936844,0.111106 0.01391,0.01391 0.131429,2.506867 0.118661,2.517317 -0.0028,0.002 -0.175567,0.0559 -0.383983,0.11916 l -0.378937,0.11503 -0.02058,-0.15355 c -0.08469,-0.63182 -0.404613,-1.18573 -0.851778,-1.47475 -0.44671,-0.288726 -0.990762,-0.305441 -1.481733,-0.0455 -0.198369,0.10502 -0.524376,0.43591 -0.655435,0.66527 -0.132743,0.2323 -0.242467,0.58684 -0.264753,0.85547 l -0.01956,0.23577 -0.670427,0.018 c -0.368735,0.01 -1.786099,0.0198 -3.149698,0.0219 l -2.479269,0.004 -0.03705,-0.22049 c -0.08002,-0.47621 -0.245447,-0.80943 -0.559612,-1.12719 -0.168843,-0.17077 -0.275107,-0.25015 -0.438216,-0.32732 -0.904035,-0.427758 -1.899597,0.14471 -2.183732,1.25567 -0.0316,0.12354 -0.05745,0.27499 -0.05745,0.33655 v 0.11193 h -0.393511 -0.393512 z"
         id="path2923" />
      <path
         style="opacity:0.999;fill:#ffffff;fill-opacity:1;stroke:none;stroke-width:1.1017;stroke-linecap:round;stroke-miterlimit:4;stroke-dasharray:none;stroke-opacity:1"
         d="m 82.042922,98.658189 c 0.0088,-0.04409 0.05685,-0.368735 0.106794,-0.721438 0.04994,-0.352703 0.09298,-0.642744 0.09563,-0.644536 0.0027,-0.0018 0.394673,-0.0112 0.871147,-0.02091 l 0.866317,-0.01765 0.03225,0.122928 c 0.01774,0.06761 0.103388,0.386981 0.190336,0.709713 0.08695,0.322731 0.158086,0.601469 0.158086,0.619417 0,0.02353 -0.325721,0.03263 -1.168277,0.03263 H 82.02693 Z"
         id="path2925" />
      <path
         style="opacity:0.999;fill:#ffffff;fill-opacity:1;stroke:none;stroke-width:1.1017;stroke-linecap:round;stroke-miterlimit:4;stroke-dasharray:none;stroke-opacity:1"
         d="m 78.98549,98.311789 c 0.240479,-0.232953 0.583065,-0.560202 0.761302,-0.727221 l 0.324066,-0.30367 h 0.940028 c 0.916232,0 0.939654,0.0014 0.92523,0.05659 -0.0081,0.03113 -0.05775,0.359052 -0.110239,0.728725 l -0.09544,0.672134 -1.591092,-0.0015 -1.591092,-0.0015 z"
         id="path2927" />
    </g>
  </g>
</svg>
