<?xml version="1.0" encoding="UTF-8" standalone="no"?>
<svg
   xmlns:dc="http://purl.org/dc/elements/1.1/"
   xmlns:cc="http://creativecommons.org/ns#"
   xmlns:rdf="http://www.w3.org/1999/02/22-rdf-syntax-ns#"
   xmlns:svg="http://www.w3.org/2000/svg"
   xmlns="http://www.w3.org/2000/svg"
   xmlns:sodipodi="http://sodipodi.sourceforge.net/DTD/sodipodi-0.dtd"
   xmlns:inkscape="http://www.inkscape.org/namespaces/inkscape"
   width="21.5mm"
   height="21.5mm"
   viewBox="0 0 21.5 21.5"
   version="1.1"
   id="svg858"
   inkscape:version="1.0.1 (3bc2e813f5, 2020-09-07)"
   sodipodi:docname="7_автопром_легенда.svg">
  <defs
     id="defs852">
    <inkscape:path-effect
       effect="bspline"
       id="path-effect2921"
       is_visible="true"
       lpeversion="1"
       weight="33.333333"
       steps="2"
       helper_size="0"
       apply_no_weight="true"
       apply_with_weight="true"
       only_selected="false" />
  </defs>
  <sodipodi:namedview
     id="base"
     pagecolor="#ffffff"
     bordercolor="#666666"
     borderopacity="1.0"
     inkscape:pageopacity="0.0"
     inkscape:pageshadow="2"
     inkscape:zoom="6.4171414"
     inkscape:cx="24.057778"
     inkscape:cy="37.437958"
     inkscape:document-units="mm"
     inkscape:current-layer="layer1"
     inkscape:document-rotation="0"
     showgrid="false"
     inkscape:window-width="1710"
     inkscape:window-height="1030"
     inkscape:window-x="192"
     inkscape:window-y="0"
     inkscape:window-maximized="0"
     inkscape:snap-center="true" />
  <metadata
     id="metadata855">
    <rdf:RDF>
      <cc:Work
         rdf:about="">
        <dc:format>image/svg+xml</dc:format>
        <dc:type
           rdf:resource="http://purl.org/dc/dcmitype/StillImage" />
        <dc:title></dc:title>
      </cc:Work>
    </rdf:RDF>
  </metadata>
  <g
     inkscape:label="Слой 1"
     inkscape:groupmode="layer"
     id="layer1"
     transform="translate(-70.366302,-88.807899)">
    <circle
       style="opacity:0.999;fill:#ffffff;fill-opacity:1;stroke:#000000;stroke-width:1.5;stroke-linecap:round;stroke-miterlimit:4;stroke-dasharray:none;stroke-opacity:1"
       id="path1421"
       cx="81.116302"
       cy="99.557899"
       r="10" />
    <g
       id="g2939"
       transform="matrix(0.01457451,0,0,0.01457451,72.269575,98.905062)"
       style="overflow:hidden;fill:currentColor">
      <path
         style="fill:none;stroke:#000000;stroke-width:18.8976;stroke-linecap:butt;stroke-linejoin:miter;stroke-miterlimit:4;stroke-dasharray:none;stroke-opacity:1"
         d="M 1037.8295,206.20649 1112,183 1104,-7 969,-21 876,-123 531,-122 404,-1 C 404,-1 224.41008,18.283949 144.11122,26.924682 135.40848,31.950788 126.70491,36.975793 118,42 112.66767,52.334333 102,73 102,73 v 139 h 73"
         id="path2872"
         sodipodi:nodetypes="cccccccccccc" />
      <path
         style="opacity:0.999;fill:none;fill-opacity:1;stroke:#000000;stroke-width:18.8976;stroke-linecap:round;stroke-miterlimit:4;stroke-dasharray:none;stroke-opacity:1"
         id="path2874"
         sodipodi:type="arc"
         sodipodi:cx="277.48779"
         sodipodi:cy="210.658"
         sodipodi:rx="102.5"
         sodipodi:ry="125"
         sodipodi:start="3.1261668"
         sodipodi:end="0.0048039463"
         sodipodi:arc-type="arc"
         d="M 174.99999,212.58616 A 102.5,125 0 0 1 225.469,102.95156 102.5,125 0 0 1 328.56555,102.28383 102.5,125 0 0 1 379.98661,211.2585"
         sodipodi:open="true" />
      <path
         style="overflow:hidden;opacity:0.999;fill:none;fill-opacity:1;stroke:#000000;stroke-width:18.8976;stroke-linecap:round;stroke-miterlimit:4;stroke-dasharray:none;stroke-opacity:1"
         id="path2874-1"
         sodipodi:type="arc"
         sodipodi:cx="935.5"
         sodipodi:cy="199"
         sodipodi:rx="102.5"
         sodipodi:ry="125"
         sodipodi:start="3.1261668"
         sodipodi:end="0.057683884"
         sodipodi:arc-type="arc"
         d="m 833.0122,200.92816 a 102.5,125 0 0 1 52.03378,-110.736002 102.5,125 0 0 1 104.63224,2.69647 102.5,125 0 0 1 48.15128,113.317862"
         sodipodi:open="true" />
      <path
         style="fill:none;stroke:#000000;stroke-width:18.8976;stroke-linecap:butt;stroke-linejoin:miter;stroke-miterlimit:4;stroke-dasharray:none;stroke-opacity:1"
         d="m 379.98661,211.2585 461.51087,-1.84506"
         id="path2909"
         sodipodi:nodetypes="cc" />
      <path
         style="fill:none;stroke:#000000;stroke-width:18.8976;stroke-linecap:butt;stroke-linejoin:miter;stroke-miterlimit:4;stroke-dasharray:none;stroke-opacity:1"
         d="M 404,-1 H 844.28549 L 811.64567,-122.81347"
         id="path2911" />
      <path
         style="fill:none;stroke:#000000;stroke-width:18.8976;stroke-linecap:butt;stroke-linejoin:miter;stroke-miterlimit:4;stroke-dasharray:none;stroke-opacity:1"
         d="m 658,-1 17.49588,-121.41883"
         id="path2917" />
      <path
         style="fill:none;stroke:#000000;stroke-width:18.8976;stroke-linecap:butt;stroke-linejoin:miter;stroke-miterlimit:4;stroke-dasharray:none;stroke-opacity:1"
         d="m 404,-1 c -68.99883,-41.999286 -137.99883,-83.999286 -180.77533,-100.22154 -42.7765,-16.22225 -59.32798,-6.66625 -75.88012,2.890125"
         id="path2919"
         inkscape:path-effect="#path-effect2921"
         inkscape:original-d="m 404,-1 c -68.999,-41.999 -137.999,-83.999 -207,-126 -16.55115,9.55739 -33.10263,19.11339 -49.65545,28.668585" />
      <path
         style="opacity:0.999;fill:#ffffff;fill-opacity:1;stroke:none;stroke-width:37.7953;stroke-linecap:round;stroke-miterlimit:4;stroke-dasharray:none;stroke-opacity:1"
         d="M 111.79867,139.5114 V 76.461461 l 6.79466,-13.450071 c 5.83896,-11.55826 8.34914,-14.337378 17.84639,-19.758484 l 11.05173,-6.308414 123.65361,-13.691586 123.6536,-13.6915882 231.17432,-1 231.17434,-1 -15.58308,-57.9999998 c -8.5707,-31.9 -15.62414,-59.124998 -15.67432,-60.499998 -0.0678,-1.85776 5.70922,-2.5 22.4878,-2.5 h 22.57904 l 43.26698,47.550678 c 23.79684,26.152874 45.07498,49.186904 47.28476,51.186734 3.31982,3.004398 14.99646,4.7723679 67.2151,10.1771058 34.7585,3.59757801 63.6843,7.028078 64.2796,7.623332 0.9547,0.95477 9.0177,172.0028302 8.1417,172.7196502 -0.1904,0.1558 -12.0462,3.83502 -26.3462,8.17596 l -26,7.8926 -1.4121,-10.53512 c -5.8107,-43.35104 -27.7617,-81.356523 -58.44302,-101.186813 -30.65006,-19.810095 -67.9791,-20.956945 -101.66604,-3.12346 -13.61074,7.20537 -35.97904,29.909213 -44.97132,45.645933 -9.10792,15.93908 -16.6364,40.26518 -18.1655,58.69654 l -1.34206,16.17686 -46,1.23744 c -25.3,0.68058 -122.5495,1.35558 -216.11,1.5 l -170.11,0.26256 -2.54212,-15.12906 c -5.4902,-32.67398 -16.8409,-55.53684 -38.39666,-77.33944 -11.58484,-11.717503 -18.8759,-17.163583 -30.06728,-22.458803 -62.0285,-29.348875 -130.33692,9.9293 -149.83227,86.155403 -2.16792,8.47646 -3.94166,18.86778 -3.94166,23.09182 v 7.68008 h -27 -27 z"
         id="path2923" />
      <path
         style="opacity:0.999;fill:#ffffff;fill-opacity:1;stroke:none;stroke-width:75.5906;stroke-linecap:round;stroke-miterlimit:4;stroke-dasharray:none;stroke-opacity:1"
         d="m 670.57806,-16.938682 c 0.60348,-3.025 3.90085,-25.3 7.3275,-49.5 3.42665,-24.2 6.37941,-44.100568 6.56169,-44.223478 0.18228,-0.12292 27.07966,-0.76843 59.77197,-1.43448 l 59.44055,-1.21099 2.21267,8.43447 c 1.21697,4.63896 7.09372,26.551928 13.05945,48.69548 5.96572,22.14355 10.84677,41.26855 10.84677,42.5 0,1.614754 -22.34867,2.238998 -80.15891,2.238998 h -80.15891 z"
         id="path2925" />
      <path
         style="opacity:0.999;fill:#ffffff;fill-opacity:1;stroke:none;stroke-width:75.5906;stroke-linecap:round;stroke-miterlimit:4;stroke-dasharray:none;stroke-opacity:1"
         d="m 460.79866,-40.706238 c 16.5,-15.983552 40.00583,-38.437078 52.23516,-49.896724 l 22.23516,-20.835718 h 64.4981 c 62.86532,0 64.4724,0.0983 63.4827,3.88294 -0.55848,2.13562 -3.96218,24.635622 -7.56378,50.000002 l -6.54836,46.117056 -109.16949,-0.103276 -109.16949,-0.103278 z"
         id="path2927" />
    </g>
  </g>
</svg>
