<?xml version="1.0" encoding="UTF-8" standalone="no"?>
<svg
   xmlns:dc="http://purl.org/dc/elements/1.1/"
   xmlns:cc="http://creativecommons.org/ns#"
   xmlns:rdf="http://www.w3.org/1999/02/22-rdf-syntax-ns#"
   xmlns:svg="http://www.w3.org/2000/svg"
   xmlns="http://www.w3.org/2000/svg"
   xmlns:sodipodi="http://sodipodi.sourceforge.net/DTD/sodipodi-0.dtd"
   xmlns:inkscape="http://www.inkscape.org/namespaces/inkscape"
   width="21.5mm"
   height="21.5mm"
   viewBox="0 0 21.5 21.5"
   version="1.1"
   id="svg858"
   inkscape:version="1.0.1 (3bc2e813f5, 2020-09-07)"
   sodipodi:docname="8_судостроение_легенда.svg">
  <defs
     id="defs852" />
  <sodipodi:namedview
     id="base"
     pagecolor="#ffffff"
     bordercolor="#666666"
     borderopacity="1.0"
     inkscape:pageopacity="0.0"
     inkscape:pageshadow="2"
     inkscape:zoom="4.5376042"
     inkscape:cx="49.206928"
     inkscape:cy="45.937041"
     inkscape:document-units="mm"
     inkscape:current-layer="layer1"
     inkscape:document-rotation="0"
     showgrid="false"
     inkscape:window-width="1710"
     inkscape:window-height="1030"
     inkscape:window-x="192"
     inkscape:window-y="0"
     inkscape:window-maximized="0"
     inkscape:snap-center="true" />
  <metadata
     id="metadata855">
    <rdf:RDF>
      <cc:Work
         rdf:about="">
        <dc:format>image/svg+xml</dc:format>
        <dc:type
           rdf:resource="http://purl.org/dc/dcmitype/StillImage" />
        <dc:title></dc:title>
      </cc:Work>
    </rdf:RDF>
  </metadata>
  <g
     inkscape:label="Слой 1"
     inkscape:groupmode="layer"
     id="layer1"
     transform="translate(-70.366302,-88.807899)">
    <circle
       style="opacity:0.999;fill:#ffffff;fill-opacity:1;stroke:#000000;stroke-width:1.5;stroke-linecap:round;stroke-miterlimit:4;stroke-dasharray:none;stroke-opacity:1"
       id="path1421"
       cx="81.116302"
       cy="99.557899"
       r="10" />
    <g
       id="g1312"
       style="overflow:hidden;fill:currentColor"
       transform="matrix(0.02116667,0,0,0.02116667,73.09706,96.447276)">
      <path
         style="fill:#000000;stroke-width:0.847125"
         d="m 236.28616,185.68225 c -8.00472,-2.19031 -11.47866,-4.6732 -24.77883,-17.71015 -7.22174,-7.07878 -14.57338,-14.08623 -16.33679,-15.5721 l -3.20611,-2.70162 h 27.10284 27.10303 l -0.17694,18.42494 -0.17694,18.42497 -2.54137,0.17533 c -1.39786,0.0965 -4.54244,-0.37218 -6.98829,-1.04139 z m 21.813,-17.34713 v -18.63674 h 43.62682 43.62681 v 18.63674 18.63673 h -43.62681 -43.62682 z m 99.69422,18.00138 c -0.20148,-0.34943 -0.4301,-8.73596 -0.50811,-18.63674 l -0.14277,-18.00138 h 93.64192 93.64172 v 18.63674 18.63673 h -93.13361 c -51.22355,0 -93.29848,-0.28591 -93.49996,-0.63535 z m 240.88749,-0.75153 c 0.0221,-0.86793 2.43358,-20.58966 5.36161,-43.82606 l 5.32341,-42.248013 -4.1027,-20.439173 c -2.25624,-11.24155 -4.50544,-22.440533 -4.99787,-24.886587 -0.57828,-2.87275 -1.32406,-4.447413 -2.10604,-4.447413 -0.9937,0 -1.21046,-2.200403 -1.21046,-12.28329 V 25.171125 h 20.68398 20.68378 L 642.48301,12.676045 646.64965,0.18096572 659.07254,0.09048286 671.49564,0 v 12.585623 12.585623 h 12.70681 12.70701 l 6e-4,14.612901 c 4.1e-4,8.03709 0.37199,18.615541 0.82561,23.507688 0.45382,4.892147 1.20905,13.659875 1.67856,19.483855 1.46099,18.13041 5.03285,58.67655 5.54076,62.89898 l 0.48399,4.02383 h -27.16396 c -30.49011,0 -32.85755,0.36519 -42.08861,6.49245 -5.15008,3.41848 -7.28708,5.94959 -15.34468,18.17509 -3.20491,4.86291 -6.93763,9.57922 -8.29487,10.48071 -1.6311,1.08334 -4.40651,1.75388 -8.18588,1.97773 -5.14425,0.30469 -5.7141,0.18037 -5.68011,-1.23939 z m 35.54126,-67.23019 v -5.92987 h -5.86027 -5.86048 l -0.2811,5.93178 -0.2813,5.93179 6.14158,-0.002 6.14157,-0.002 v -5.92986 z m 24.5667,0 v -5.92987 h -5.92984 -5.92985 v 5.92987 5.92988 h 5.92985 5.92984 z m 25.41362,0 v -5.92987 h -6.3533 -6.35351 v 5.92987 5.92988 h 6.35351 6.3533 z M 658.78883,62.444594 v -12.70687 h -23.29592 c -12.81277,0 -23.29592,0.320309 -23.29592,0.711818 0,0.92751 4.22214,22.261096 4.67938,23.643011 0.26742,0.808816 5.25806,1.05889 21.13136,1.05889 h 20.7811 z m 25.22481,-0.249351 0.23465,-12.53266 -6.16449,0.249351 -6.1645,0.24935 -0.23767,11.393441 c -0.13069,6.2664 -0.0402,11.90672 0.20108,12.534047 0.32111,0.836706 1.96428,1.073811 6.16731,0.889869 l 5.72977,-0.250758 z m -525.5532,50.017897 0.10254,-24.778387 93.39541,-0.21549 93.3954,-0.21551 v 24.993897 24.99386 H 251.85685 158.3597 Z m 198.93139,0 0.24431,-24.778387 43.29886,-0.219411 43.29907,-0.219411 0.53968,3.937915 c 0.29678,2.165858 0.53968,13.414864 0.53968,24.997804 v 21.05986 h -44.08305 -44.08305 z m 99.78149,-0.21179 V 87.011193 h 43.62681 43.62681 v 24.990157 24.99016 H 500.80013 457.17332 Z M 158.6977,74.581341 C 158.39006,74.273679 158.13832,63.03052 158.13832,49.59653 V 25.171125 h 43.84679 43.84679 v 24.778389 24.778369 l -43.27936,0.206442 c -23.80363,0.113606 -43.53091,-0.04524 -43.83855,-0.352984 z M 258.09916,50.161284 V 25.171125 h 43.62682 43.62681 v 24.990159 24.990159 h -43.62681 -43.62682 z"
         id="path1096"
         sodipodi:nodetypes="ssscccccsssccccccccccccccccsccsscsssscccccccccccsscscsssssssccccccccccccccccccccccccccccccssssccccccscscccccccccccccccssccccccccccccccscccccsccccccccccc" />
      <path
         style="fill:#000000;fill-opacity:1;stroke:#000000;stroke-width:7.59962;stroke-linecap:butt;stroke-linejoin:miter;stroke-miterlimit:4;stroke-dasharray:none;stroke-opacity:1"
         d="m 6.4085578,158.1089 73.8500982,135.80822 647.476304,-0.0241 23.58003,-123.71128 -95.31886,-0.2135 c -18.69255,0.60927 -30.24701,35.27034 -52.70024,36.73839 -7.80284,0.002 -15.60728,0.001 -23.41414,-7.6e-4 -113.35251,-0.26658 -226.7026,-0.53516 -340.05691,-0.80574 -31.25519,-0.13572 -46.05136,-47.67709 -76.93484,-47.02827 z"
         id="path1098"
         sodipodi:nodetypes="cccccccccc" />
      <path
         style="opacity:0.999;fill:#ffffff;fill-opacity:1;stroke:none;stroke-width:2.69026;stroke-linecap:round;stroke-miterlimit:4;stroke-dasharray:none;stroke-opacity:1"
         d="m 622.25467,74.592179 c -2.34592,-0.142963 -4.50183,-0.494861 -4.79057,-0.781812 -0.51213,-0.508635 -4.80665,-20.714844 -4.80665,-22.615366 0,-0.780083 4.17528,-0.955439 22.7488,-0.955439 h 22.749 v 12.44075 12.440769 l -15.81761,-0.134518 c -8.69963,-0.07399 -17.73705,-0.251461 -20.08297,-0.394485 z"
         id="path1102" />
      <path
         style="opacity:0.999;fill:#ffffff;fill-opacity:1;stroke:none;stroke-width:0.951152;stroke-linecap:round;stroke-miterlimit:4;stroke-dasharray:none;stroke-opacity:1"
         d="m 622.61016,118.486 v -5.68719 h 5.68715 5.68715 v 5.68719 5.68721 h -5.68715 -5.68715 z"
         id="path1104" />
      <path
         style="opacity:0.999;fill:#ffffff;fill-opacity:1;stroke:none;stroke-width:0.951152;stroke-linecap:round;stroke-miterlimit:4;stroke-dasharray:none;stroke-opacity:1"
         d="m 647.49174,118.486 v -5.68719 h 5.33166 5.33185 v 5.68719 5.68721 h -5.33185 -5.33166 z"
         id="path1106" />
      <path
         style="opacity:0.999;fill:#ffffff;fill-opacity:1;stroke:none;stroke-width:0.951152;stroke-linecap:round;stroke-miterlimit:4;stroke-dasharray:none;stroke-opacity:1"
         d="m 671.66233,118.486 v -5.68719 h 6.04265 6.04264 v 5.68719 5.68721 h -6.04264 -6.04265 z"
         id="path1108" />
      <path
         style="opacity:0.999;fill:#ffffff;fill-opacity:1;stroke:none;stroke-width:0.951152;stroke-linecap:round;stroke-miterlimit:4;stroke-dasharray:none;stroke-opacity:1"
         d="m 671.96575,71.894563 c -0.25959,-1.383603 -0.24129,-6.821985 0.0402,-12.085313 l 0.51254,-9.569688 h 5.61436 5.61436 v 12.085313 12.085293 h -5.65498 -5.65498 z"
         id="path1110" />
      <path
         style="opacity:0.999;fill:#ffffff;fill-opacity:1;stroke:none;stroke-width:0.336283;stroke-linecap:round;stroke-miterlimit:4;stroke-dasharray:none;stroke-opacity:1"
         d="m 159.67269,81.676766 c 0.002,-3.136096 0.0712,-5.954999 0.15402,-6.264229 l 0.1508,-0.562261 13.10413,0.158446 c 7.20726,0.08706 26.53523,0.07178 42.95083,-0.03398 l 29.84688,-0.192426 V 50.558645 26.334956 h 6.03099 6.03078 l 0.0643,24.442939 0.0643,24.442939 43.04209,0.06354 43.04229,0.06354 v 5.749059 5.74908 l -55.73503,0.152414 c -30.65418,0.08385 -72.16309,0.203707 -92.24225,0.266361 l -36.50726,0.113807 z"
         id="path1132" />
      <path
         style="opacity:0.999;fill:#ffffff;fill-opacity:1;stroke:none;stroke-width:0.668976;stroke-linecap:round;stroke-miterlimit:4;stroke-dasharray:none;stroke-opacity:1"
         d="m 342.64404,202.15136 c -102.7672,-0.24963 -107.36494,-0.2993 -110,-1.1884 -8.25124,-2.78409 -13.35977,-6.65217 -28.5,-21.57966 -13.58111,-13.39029 -18.7075,-17.60672 -25.19419,-20.72209 -5.01821,-2.41011 -8.65101,-3.32637 -14.93081,-3.76586 l -4.875,-0.34117 v -8.70334 -8.70334 h 93.25 93.25 v -24 -23.999997 l 5.875,-2.26e-4 5.875,-2.27e-4 -0.14763,24.00023 -0.14763,24.00022 h 44.34923 44.34923 l -0.33507,-23.125 c -0.18429,-12.71875 -0.46929,-23.856247 -0.63335,-24.749997 l -0.29828,-1.625 h 6.30675 6.30675 v 24.749997 24.75 h 42.75 42.75 v 6.25 6.25 h -92.78353 -92.78354 l 0.15854,18.20895 c 0.0872,10.01492 0.34599,18.39617 0.57511,18.625 0.22911,0.22883 42.13536,0.49155 93.125,0.58382 l 92.70842,0.16777 v 7.70723 7.70723 l -46.875,-0.11781 c -25.78125,-0.0648 -95.1375,-0.23504 -154.125,-0.37833 z m -97.375,-15.49703 c 0.81745,-0.006 0.875,-1.22371 0.875,-18.50683 v -18.5 h -27.09538 -27.09537 l 5.72038,5.37046 c 3.1462,2.95375 9.36684,8.90577 13.82363,13.2267 11.51979,11.16864 16.03018,14.62621 21.84812,16.74835 2.75644,1.00542 8.80979,2.13629 10.04862,1.87725 0.55,-0.11501 1.39375,-0.21218 1.875,-0.21593 z m 100.375,-18.25956 v -18.75273 l -43.875,0.12773 -43.875,0.12773 -0.13145,17.9976 c -0.0723,9.89868 -0.0231,18.27993 0.10931,18.625 0.19056,0.49659 9.36585,0.6274 44.00645,0.6274 h 43.76569 z"
         id="path1238" />
      <path
         style="opacity:0.999;fill:#ffffff;fill-opacity:1;stroke:none;stroke-width:0.473038;stroke-linecap:round;stroke-miterlimit:4;stroke-dasharray:none;stroke-opacity:1"
         d="m 599.18212,194.84547 v -7.77817 h 2.44929 c 3.68872,0 7.76381,-0.65603 9.79827,-1.57738 2.14664,-0.97215 4.35215,-3.48544 8.69913,-9.91311 8.98303,-13.28275 11.2417,-15.94221 16.52925,-19.46227 8.83626,-5.88255 10.94125,-6.17035 45.13012,-6.17035 h 23.1064 v 8.14261 8.14261 l -25.72101,-0.0254 c -28.74075,-0.0283 -27.58616,-0.11648 -32.5934,2.48857 -5.00091,2.60176 -9.16527,6.41436 -19.94367,18.25906 -6.73651,7.40295 -10.52248,10.69812 -15.10876,13.15013 -3.53512,1.89001 -5.89135,2.52183 -9.40459,2.52183 h -2.94103 z"
         id="path1291" />
    </g>
  </g>
</svg>
