<?xml version="1.0" encoding="UTF-8" standalone="no"?>
<svg
   xmlns:dc="http://purl.org/dc/elements/1.1/"
   xmlns:cc="http://creativecommons.org/ns#"
   xmlns:rdf="http://www.w3.org/1999/02/22-rdf-syntax-ns#"
   xmlns:svg="http://www.w3.org/2000/svg"
   xmlns="http://www.w3.org/2000/svg"
   xmlns:sodipodi="http://sodipodi.sourceforge.net/DTD/sodipodi-0.dtd"
   xmlns:inkscape="http://www.inkscape.org/namespaces/inkscape"
   width="100.77918"
   height="151.18056"
   viewBox="0 0 3.0233753 4.5354165"
   version="1.1"
   id="svg6"
   sodipodi:docname="экскурсии.svg"
   inkscape:version="1.0.1 (3bc2e813f5, 2020-09-07)">
  <metadata
     id="metadata12">
    <rdf:RDF>
      <cc:Work
         rdf:about="">
        <dc:format>image/svg+xml</dc:format>
        <dc:type
           rdf:resource="http://purl.org/dc/dcmitype/StillImage" />
        <dc:title></dc:title>
      </cc:Work>
    </rdf:RDF>
  </metadata>
  <defs
     id="defs10" />
  <sodipodi:namedview
     pagecolor="#ffffff"
     bordercolor="#666666"
     borderopacity="1"
     objecttolerance="10"
     gridtolerance="10"
     guidetolerance="10"
     inkscape:pageopacity="0"
     inkscape:pageshadow="2"
     inkscape:window-width="1920"
     inkscape:window-height="1001"
     id="namedview8"
     showgrid="false"
     inkscape:snap-midpoints="true"
     inkscape:snap-smooth-nodes="true"
     inkscape:snap-intersection-paths="true"
     inkscape:object-paths="true"
     inkscape:snap-object-midpoints="true"
     inkscape:snap-center="true"
     inkscape:snap-text-baseline="true"
     inkscape:zoom="4.098341"
     inkscape:cx="10.017319"
     inkscape:cy="73.669417"
     inkscape:window-x="-9"
     inkscape:window-y="-9"
     inkscape:window-maximized="1"
     inkscape:current-layer="svg6" />
  <path
     fill="none"
     d="m -12.864114,-1.4831595 h 24 V 22.51684 h -24 z"
     id="path4" />
  <g
     id="g859"
     transform="translate(0.20385915,0.2043804)">
    <g
       id="g850"
       transform="matrix(1.118791,0,0,1.118791,-0.3103285,-0.56774399)"
       style="fill:#ffffff;fill-opacity:1;stroke:#ffeb00;stroke-width:0.202693;stroke-miterlimit:4;stroke-dasharray:none;stroke-opacity:1">
      <circle
         style="fill:#ffffff;fill-opacity:1;stroke:#ffeb00;stroke-width:0.202693;stroke-miterlimit:4;stroke-dasharray:none;stroke-opacity:1;stop-color:#000000"
         id="path837"
         cx="1.4463443"
         cy="1.6758507"
         r="0.5669291" />
      <path
         style="fill:#ffffff;fill-opacity:1;stroke:#ffeb00;stroke-width:0.202693;stroke-miterlimit:4;stroke-dasharray:none;stroke-opacity:1;stop-color:#000000"
         id="path841"
         sodipodi:type="arc"
         sodipodi:cx="0.16228552"
         sodipodi:cy="-2.2077253"
         sodipodi:rx="1.2500466"
         sodipodi:ry="1.2500466"
         sodipodi:start="0.26179939"
         sodipodi:end="4.4505896"
         sodipodi:arc-type="arc"
         d="M 1.3697378,-1.8841894 A 1.2500466,1.2500466 0 0 1 0.05333678,-0.96243548 1.2500466,1.2500466 0 0 1 -1.0830043,-2.0987766 1.2500466,1.2500466 0 0 1 -0.16125034,-3.4151776"
         transform="rotate(135)"
         sodipodi:open="true" />
      <path
         style="fill:#ffffff;fill-opacity:1;stroke:#ffeb00;stroke-width:0.202693;stroke-linecap:butt;stroke-linejoin:miter;stroke-miterlimit:4;stroke-dasharray:none;stroke-opacity:1"
         d="M 0.36377217,2.300874 1.4463444,4.1759442 2.5289166,2.300874"
         id="path845" />
    </g>
    <path
       style="fill:#ffeb00;fill-opacity:1;stroke:#ffeb00;stroke-width:0.0553326;stroke-miterlimit:4;stroke-dasharray:none;stroke-opacity:1;stop-color:#000000"
       d="M 0.7417925,2.8909395 C 0.4309715,2.3525698 0.1620965,1.8808466 0.1442925,1.8426658 0.0551975,1.6516044 0.0157875,1.4335029 0.0307805,1.2144722 c 0.04107,-0.59993919 0.499874,-1.09098659 1.098928,-1.17614949 0.08753,-0.012443 0.246587,-0.014071 0.334875,-0.00343 0.211265,0.025468 0.436119,0.1162865 0.611354,0.2469242 0.488928,0.3644963 0.65298,1.03868249 0.385179,1.58292699 -0.02795,0.056808 -1.135225,1.982707 -1.149806,1.9998784 -0.0024,0.00284 -0.258697,-0.4353156 -0.569518,-0.9736854 z M 1.4971615,2.0334556 C 1.8847495,1.9268554 2.1210285,1.548019 2.0422355,1.159513 2.0139025,1.0198112 1.9533465,0.90150111 1.8578145,0.79920621 c -0.069794,-0.0747351 -0.132459,-0.121316 -0.221402,-0.1645756 -0.169537,-0.082459 -0.351359,-0.099559 -0.530702,-0.049912 -0.333841,0.092416 -0.564605,0.411912 -0.546507,0.75664549 0.0184,0.350445 0.253593,0.6231479 0.606209,0.7028829 0.07115,0.016088 0.255865,0.010079 0.331749,-0.010791 z"
       id="path852" />
  </g>
</svg>
