<?xml version="1.0" encoding="UTF-8" standalone="no"?>
<svg
   xmlns:dc="http://purl.org/dc/elements/1.1/"
   xmlns:cc="http://creativecommons.org/ns#"
   xmlns:rdf="http://www.w3.org/1999/02/22-rdf-syntax-ns#"
   xmlns:svg="http://www.w3.org/2000/svg"
   xmlns="http://www.w3.org/2000/svg"
   xmlns:sodipodi="http://sodipodi.sourceforge.net/DTD/sodipodi-0.dtd"
   xmlns:inkscape="http://www.inkscape.org/namespaces/inkscape"
   width="21.5mm"
   height="21.5mm"
   viewBox="0 0 21.5 21.5"
   version="1.1"
   id="svg858"
   inkscape:version="1.0.1 (3bc2e813f5, 2020-09-07)"
   sodipodi:docname="1_сх_легенда.svg">
  <defs
     id="defs852" />
  <sodipodi:namedview
     id="base"
     pagecolor="#ffffff"
     bordercolor="#666666"
     borderopacity="1.0"
     inkscape:pageopacity="0.0"
     inkscape:pageshadow="2"
     inkscape:zoom="5.6"
     inkscape:cx="48.36295"
     inkscape:cy="43.2752"
     inkscape:document-units="mm"
     inkscape:current-layer="layer1"
     inkscape:document-rotation="0"
     showgrid="false"
     inkscape:window-width="1710"
     inkscape:window-height="1030"
     inkscape:window-x="192"
     inkscape:window-y="0"
     inkscape:window-maximized="0"
     inkscape:snap-center="true" />
  <metadata
     id="metadata855">
    <rdf:RDF>
      <cc:Work
         rdf:about="">
        <dc:format>image/svg+xml</dc:format>
        <dc:type
           rdf:resource="http://purl.org/dc/dcmitype/StillImage" />
        <dc:title />
      </cc:Work>
    </rdf:RDF>
  </metadata>
  <g
     inkscape:label="Слой 1"
     inkscape:groupmode="layer"
     id="layer1"
     transform="translate(-70.366302,-88.807899)">
    <circle
       style="opacity:0.999;fill:#ffffff;fill-opacity:1;stroke:#000000;stroke-width:1.5;stroke-linecap:round;stroke-miterlimit:4;stroke-dasharray:none;stroke-opacity:1"
       id="path1421"
       cx="81.116302"
       cy="99.557899"
       r="10" />
    <g
       id="g847"
       transform="matrix(0.01633674,0,0,0.01633674,78.341554,92.006686)">
      <path
         style="fill:none;stroke:#000000;stroke-width:17.0079;stroke-linecap:butt;stroke-linejoin:miter;stroke-miterlimit:4;stroke-dasharray:none;stroke-opacity:1"
         d="M 170.53239,918.17605 V 252.93126"
         id="path859" />
      <path
         style="fill:#000000;fill-opacity:1;stroke:#000000;stroke-width:9.3643;stroke-linecap:butt;stroke-linejoin:miter;stroke-miterlimit:4;stroke-dasharray:none;stroke-opacity:1"
         d="m 245.38119,700.14215 c 98.5494,-52.34501 90.5606,-128.23122 88.6172,-211.61456 -159.2085,59.43254 -162.0957,150.0947 -162.0957,150.0947 l -2.7406,117.10806 c 0,0 59.7137,-45.0996 76.2191,-55.5882 z"
         id="path888"
         sodipodi:nodetypes="ccccc" />
      <path
         style="fill:#000000;fill-opacity:1;stroke:#000000;stroke-width:9.36432;stroke-linecap:butt;stroke-linejoin:miter;stroke-miterlimit:4;stroke-dasharray:none;stroke-opacity:1"
         d="M 94.313116,699.10865 C -4.2364741,646.76381 3.7524259,570.87761 5.6958859,487.49414 164.90439,546.92678 167.79179,637.58901 167.79179,637.58901 l 2.7406,117.10784 c 0,0 -59.7139,-45.0996 -76.219274,-55.5882 z"
         id="path888-6"
         sodipodi:nodetypes="ccccc" />
      <path
         style="opacity:0.999;fill:#000000;fill-opacity:1;stroke:#000000;stroke-width:12.5389;stroke-linecap:round;stroke-miterlimit:4;stroke-dasharray:none;stroke-opacity:1"
         d="m 156.73659,256.27313 c -17.7097,-29.69291 -22.6733,-40.2805 -27.3987,-51.41131 -17.11252,-40.30821 -16.56972,-72.96788 2.0034,-120.519697 7.1818,-18.3872 37.4155,-78.08344 39.5401,-78.07256 2.4571,0.014 29.9253,56.47249 41.0563,84.38909 10.3858,26.048147 13.9148,46.206557 11.7544,67.144847 -3.3088,32.07454 -15.3382,60.57114 -45.1976,107.06854 -4.2696,6.64877 -5.1114,7.92695 -7.9621,12.35033 -0.11,0.1428 -6.2044,-8.22038 -13.7958,-20.94924 z"
         id="path1101"
         sodipodi:nodetypes="ccscscscc" />
      <path
         style="fill:#000000;fill-opacity:1;stroke:#000000;stroke-width:9.36427;stroke-linecap:butt;stroke-linejoin:miter;stroke-miterlimit:4;stroke-dasharray:none;stroke-opacity:1"
         d="m 244.01089,460.35013 c 98.5494,-52.34498 90.5606,-128.23119 88.6172,-211.61453 -159.2085,59.43254 -162.0957,150.0947 -162.0957,150.0947 l -2.7406,117.10803 c 0,0 59.7137,-45.0996 76.2191,-55.5882 z"
         id="path888-3"
         sodipodi:nodetypes="ccccc" />
      <path
         style="fill:#000000;fill-opacity:1;stroke:#000000;stroke-width:9.36435;stroke-linecap:butt;stroke-linejoin:miter;stroke-miterlimit:4;stroke-dasharray:none;stroke-opacity:1"
         d="M 97.053786,460.34993 C -1.4958141,408.0051 6.4930859,332.1189 8.4364859,248.73543 167.64499,308.16807 170.53239,398.8303 170.53239,398.8303 l 2.7406,117.10783 c 0,0 -59.7139,-45.0996 -76.219204,-55.5882 z"
         id="path888-6-2"
         sodipodi:nodetypes="ccccc" />
    </g>
  </g>
</svg>
